/* XPM */
static char *result[] = {
/* columns rows colors chars-per-pixel */
"50 50 193 2 ",
"   c #010101",
".  c #0D0605",
"X  c #070709",
"o  c #140C0A",
"O  c #180D0D",
"+  c #150807",
"@  c #19130D",
"#  c #0C0C19",
"$  c #100F1F",
"%  c #1D1211",
"&  c #181818",
"*  c #0E1316",
"=  c #261A15",
"-  c #301D1C",
";  c #1E201F",
":  c #30221C",
">  c #101021",
",  c #1B1B37",
"<  c #251D2E",
"1  c #1F2221",
"2  c #222323",
"3  c #23272B",
"4  c #382121",
"5  c #352123",
"6  c #25233B",
"7  c #2D3231",
"8  c #481C1A",
"9  c #53201E",
"0  c #41251E",
"q  c #452B29",
"w  c #542726",
"e  c #5F2C2A",
"r  c #5A2724",
"t  c #4F302E",
"y  c #51312F",
"u  c #523230",
"i  c #5C3834",
"p  c #4E3E3D",
"a  c #632E2C",
"s  c #682E2C",
"d  c #63312F",
"f  c #6C302E",
"g  c #75312E",
"h  c #633230",
"j  c #6B3E3C",
"k  c #683936",
"l  c #7C3732",
"z  c #632D38",
"x  c #4D4A3F",
"c  c #6D413F",
"v  c #67493B",
"b  c #72483C",
"n  c #77543A",
"m  c #6F5533",
"M  c #2C3944",
"N  c #323858",
"B  c #282853",
"V  c #303164",
"C  c #383667",
"Z  c #393974",
"A  c #373873",
"S  c #473B6A",
"D  c #523B68",
"F  c #324647",
"G  c #494A4A",
"H  c #5F4050",
"J  c #585959",
"K  c #53514D",
"L  c #6F4341",
"P  c #63414D",
"I  c #734541",
"U  c #744A43",
"Y  c #7B4C46",
"T  c #774B4A",
"R  c #794F4D",
"E  c #7D5343",
"W  c #745145",
"Q  c #775955",
"!  c #724F53",
"~  c #76655C",
"^  c #484373",
"/  c #554F6A",
"(  c #665D64",
")  c #725967",
"_  c #5C6461",
"`  c #737568",
"'  c #6A7773",
"]  c #853532",
"[  c #8C3936",
"{  c #8A3A34",
"}  c #9A3E39",
"|  c #963B37",
" . c #A23E3A",
".. c #9A443F",
"X. c #A5413D",
"o. c #AF433E",
"O. c #A8493E",
"+. c #B1443F",
"@. c #A4543D",
"#. c #867337",
"$. c #8A3F4F",
"%. c #8C424D",
"&. c #984843",
"*. c #875E44",
"=. c #885E57",
"-. c #B54941",
";. c #BC4F43",
":. c #B44740",
">. c #B95B45",
",. c #B35943",
"<. c #A55741",
"1. c #8B6448",
"2. c #926B44",
"3. c #946748",
"4. c #9A7647",
"5. c #8E6651",
"6. c #826151",
"7. c #B06542",
"8. c #A17A4A",
"9. c #A76C50",
"0. c #8E726F",
"q. c #8B6B75",
"w. c #897973",
"e. c #926969",
"r. c #A47A75",
"t. c #C45546",
"y. c #C65C48",
"u. c #D4634B",
"i. c #E16E51",
"p. c #E47152",
"a. c #5F8173",
"s. c #988342",
"d. c #A8894A",
"f. c #AD9349",
"g. c #A9924A",
"h. c #B19649",
"j. c #B29949",
"k. c #B18747",
"l. c #BDA450",
"z. c #868178",
"x. c #B08175",
"c. c #D3B95D",
"v. c #CBA85B",
"b. c #C5886C",
"n. c #C79070",
"m. c #CB9375",
"M. c #D5B964",
"N. c #E4BA64",
"B. c #DEC464",
"V. c #E2C669",
"C. c #E6CC67",
"Z. c #F2D86E",
"A. c #F0D66D",
"S. c #EAD06A",
"D. c #70719B",
"F. c #6B9F8A",
"G. c #42AE80",
"H. c #4CB287",
"J. c #55B78E",
"K. c #57B88F",
"L. c #5AB991",
"P. c #62BA95",
"I. c #66BC99",
"U. c #6BBE9B",
"Y. c #6F8DB0",
"T. c #7B9EBC",
"R. c #7491AF",
"E. c #6FC09F",
"W. c #70C09E",
"Q. c #6FC0A0",
"!. c #72C1A2",
"~. c #78C3A6",
"^. c #7DC6A9",
"/. c #868685",
"(. c #919994",
"). c #A78B89",
"_. c #849DA7",
"`. c #9BAAA3",
"'. c #88BBA6",
"]. c #A4A6A5",
"[. c #A0A8A4",
"{. c #B6A5A3",
"}. c #B6B8B6",
"|. c #A2BDB2",
" X c #CABCBB",
".X c #82C5AB",
"XX c #84C8AE",
"oX c #88C9AF",
"OX c #8DC1AB",
"+X c #8CC9B2",
"@X c #C3C1BD",
"#X c #B9C8C1",
"$X c #C6C8C7",
/* pixels */
"Q.Q.!.U.U.U.U.Q.!.~.!.Q.Q.Q.Q.Q.Q.Q.Q.Q.E.E.E.Q.Q.!.~.!.Q.Q.Q.Q.Q.Q.Q.Q.Q.Q.Q.!.~.~.!.Q.Q.Q.Q.Q.Q.Q.",
"Q.Q.U.U.J.J.U.!.+X+X~.Q.Q.Q.Q.Q.Q.Q.Q.Q.E.E.E.Q.Q.!.!.Q.!.Q.Q.Q.Q.Q.Q.Q.Q.Q.Q.~.+X+X~.Q.Q.Q.Q.Q.Q.Q.",
"P.P.U.U.J.J.U.~.+X+X~.Q.Q.Q.Q.Q.Q.Q.Q.Q.Q.!.Q.Q.Q.!.!..X~.Q.Q.Q.P.P.U.!.Q.Q.Q.~.+X+X~.Q.Q.Q.Q.Q.Q.Q.",
"G.G.P.U.U.U.Q.!.~.~.!.Q.Q.Q.Q.Q.Q.Q.Q.Q.Q.Q.Q.Q.!.Q.Q.Q.Q.Q.Q.Q.J.G.P.U.Q.Q.Q.!.~.~.!.Q.Q.Q.Q.Q.Q.Q.",
"G.G.P.Q.Q.Q.Q.Q.Q.Q.Q.Q.W.!.!.!.!.!.!.E.!.E.E.Q.^.^.~.E.U.U.!.P.G.G.P.!.Q.Q.Q.Q.Q.Q.Q.Q.Q.Q.Q.Q.Q.Q.",
"P.P.U.Q.Q.Q.Q.Q.Q.Q.Q.Q.Q.!.W.!.R R R T R R R R R R R R ! Q ~ ` ` F.U.!.Q.Q.Q.Q.Q.Q.Q.Q.Q.Q.Q.Q.Q.Q.",
"Q.Q.Q.Q.Q.Q.Q.Q.Q.Q.Q.E.Q.!.~..Xe e e e e e e e e e e e e e a e e e.^.!.Q.Q.Q.Q.Q.Q.Q.Q.Q.Q.Q.Q.Q.!.",
"Q.Q.Q.Q.Q.Q.Q.Q.Q.Q.Q.E.!.OXz.e.| ..,.>.>.>.>.>.>.>.>.>.>.>.>.O.| &.0.).~.Q.Q.Q.Q.Q.Q.Q.Q.Q.Q.Q.Q.~.",
"~.~.~.~.!.Q.Q.Q.Q.Q.Q.Q.!.'.k f +.-.i.p.p.p.p.p.p.p.p.p.p.p.p.t.o.} e T ~.E.Q.Q.Q.Q.Q.Q.Q.!.~.~.!.~.",
"+X^.+X+X~.E.Q.Q.Q.Q.Q.Q.U.[.e g t.t.p.p.p.p.p.p.p.p.p.p.p.p.p.y.t.O.e T Q.Q.Q.!.Q.Q.Q.Q.Q.~.+X+X~.!.",
"+X~.+X+X~.E.Q.Q.Q.Q.Q.Q.~.{.e l i.p.p.p.p.p.p.p.p.p.p.p.p.p.p.p.p.y.e T Q.!.U.U.Q.Q.Q.Q.Q.~.+X+X~.Q.",
"~.!.~.~.Q.Q.Q.Q.Q.Q.!.Q.oX).s { p.p.p.p.p.p.p.p.p.p.p.p.p.p.p.p.p.7.f %..X!.!.!.Q.Q.Q.Q.Q.Q.~.~.!.Q.",
"E.E.Q.Q.Q.Q.Q.Q.Q.U.Q.0.e ] &.;.p.p.p.p.p.p.p.p.p.p.p.p.p.p.p.p.p.u.o. .a h U.E.E.Q.Q.Q.Q.Q.Q.Q.Q.Q.",
"E.E.Q.Q.Q.Q.Q.Q.K.P.L.w.e ] :.-.p.p.p.p.p.p.p.p.p.p.p.p.p.p.p.p.p.u.+. .a z L.I.I.Q.Q.Q.Q.Q.Q.Q.Q.Q.",
"E.Q.Q.Q.Q.Q.Q.Q.K.I.L.w.e l :.:.-.;.i.p.p.p.p.p.p.p.p.p.p.p.p.y.-.-.+. .e d P.L.U.Q.Q.Q.Q.Q.Q.Q.Q.Q.",
"E.Q.Q.Q.Q.Q.Q.E.I.U.U.w.e ] :.:.+.-.i.p.p.p.p.p.p.p.p.p.p.p.p.t.+.o.o. .e d E.U.E.Q.Q.Q.Q.Q.Q.Q.Q.Q.",
"Q.E.E.E.Q.Q.Q.!.U.~.U.' O r +.o.+.:.t.;.t.t.-.t.t.-.t.;.;.;.;.:.o.o.o.| O O ~.~.!.~.U.U.Q.Q.Q.Q.Q.E.",
"Q.E.E.E.Q.Q.Q.Q.U.oX~._   9 o.o.+. .+. .:.:. .+.:. . .+.+.+.+.+.o.o.o.|   X oXoX~.~.~.!.E.E.Q.Q.Q.I.",
"E.Q.P.P.U.Q.E.Q.!.+X~.J   4 { | +.:.+.+.:. .+.:.+.:.+.+.+.+.+. .o.X.{ g   X oXoX~.!.~.!.Q.Q.P.P.Q.I.",
"Q.L.G.G.P.Q.E.E.U.~.~.K   = e g  .:. .+.:. .+. .+. .+.+.+.+.+.:.o.} e w   X .X!..X~.!.Q.E.P.G.G.L.Q.",
"!.P.G.G.L.E.U.E.~.~.~.K = 0 d f  . .o.o.o.o.} ] ] ] ] o. .+.+. .} [ d e = = }.$X~.!.E.E.E.I.G.G.P.E.",
"E.U.P.P.E.U.J.K.U.2   m 8.*.c j s s X.o.o.o.9       + o.:.+.+.] a d L U 8.4..   `.U.E.E.E.E.P.P.E.E.",
"!.Q.Q.Q.Q.I.J.J.Q.&   m 8.1.L k a s X.o.o.o.9   .   + o.o.o. .] a d c n 8.4.o   `.Q.Q.!.~.~.Q.Q.E.!.",
"~.Q.Q.Q.Q.E.I.E.Q.=   5.n.W X = j j f s s s a w w r 9 s z f f g c y X = n.n.@   `.!.Q.~.+X+X!.Q.Q.~.",
"~.!.~.~.!.Q.Q.U.E.1 * s.n.W   O I j a a e a e e a e a e e e e k L u   % m.n.@   `.Q.Q.~.+X+X~.~.!.~.",
"!.~.+X+X~.Q.!.L.K.#X#XK : @   O L c j j #.3.n j j j b 2.2.b j j L u   X : : u u }.U.Q.Q.~.~.~.+X~.!.",
"Q.~.+X+X~.Q.Q.I.a.L.E.K   .   % L I L L 3.4.*.L L L I 4.8.Y I L I u         k L  XI.Q.Q.Q.Q.!.+X~.Q.",
"Q.!.~.~.!.Q.Q.U.E.E.E.OXa.( : 4 4 4 4 4 U *.Y L L L I *.*.q 4 4 5 5 , 6 v v L L  XQ.Q.Q.Q.Q.E.~.!.Q.",
"Q.Q.Q.Q.Q.Q.Q.Q.I.I.^.!.!.{.L u         y I L L L L I L L O       $ A ^ m.m.T L  XQ.Q.Q.Q.Q.Q.Q.Q.Q.",
"Q.Q.Q.Q.Q.Q.Q.U.K.K.^.!.~.{.u q $ $ % % q y y y u u t y y = % % % < Z ^ r.r.U I  XI.I.Q.Q.Q.Q.Q.Q.Q.",
"Q.Q.Q.Q.Q.Q.Q.I.a.K..XW.!.(.  # Z S L L %                 i L L I H A A Z Z P I  XU.I.Q.Q.Q.Q.Q.Q.Q.",
"Q.Q.Q.Q.Q.Q.Q.Q.W.W.oXW.W.D.X > Z Z L U = . . . . . . . . i U I I H A A A C ! R  X^.Q.Q.Q.Q.Q.Q.Q.Q.",
"Q.Q.Q.Q.Q.U.Q.Q.Q.!..X_ * 6 C C L U d.f.@.X. . . . . . .} d.f.7.X.$.Z V X X ~.~.~.Q.Q.E.U.I.U.Q.E.Q.",
"Q.Q.Q.Q.Q.I.I.Q.Q.oX+XK   , Z S c U f.j.@.o. .+.:. . .:.:.k.h.7.+.$.A V   X ~.+X~.Q.U.U.J.J.U.Q.E.E.",
"U.Q.Q.Q.Q.U.I.Q.!.a.7 6.9.) Z D X.&.E E v.N.N.N.N.N.N.N.N.2.E .. .$.P Q !.~.oX+X~.Q.Q.U.J.J.U.U.I.Q.",
"I.Q.Q.Q.Q.Q.Q.Q.+X3   5.m.q.Z D o.O.L L M.A.Z.Z.Z.Z.Z.Z.Z.1.L ..+.&.L =.Q.!.~.~.!.Q.Q.U.I.U.U.P.G.H.",
"P.Q.Q.Q.Q.Q.Q.Q.XX3   5.m.x.q.e.O.:.2.4.B.Z.Z.Z.Z.Z.Z.Z.Z.k.4.<.+.| 4 p W.!.Q.Q.Q.Q.Q.Q.Q.Q.Q.P.G.G.",
"U.Q.Q.Q.Q.Q.Q.Q.W.F   5.m.m.m.b.:.:.f.j.B.Z.Z.Z.Z.Z.Z.Z.A.v.j.7. .]   2 !.U.Q.Q.Q.Q.Q.Q.Q.Q.Q.U.P.P.",
"!.Q.Q.Q.Q.Q.!.Q.W.F.K Q 5.5.5.=.%.%.f.j.c.B.S.Z.Z.Z.Z.V.B.l.h.3.$.z   3 !.Q.Q.Q.Q.Q.Q.!.~.~.!.Q.Q.Q.",
"~.Q.Q.Q.Q.Q.Q.Q.E.~.!.G       # Z ^ g.j.j.j.c.Z.Z.Z.A.h.h.h.h.( S B   2 Q.Q.Q.Q.Q.Q.Q.~.+X+X~.Q.Q.Q.",
"~.!.~.~.!.Q.Q.Q.E.E.XXa.1 1 1 3 V C s.s.h.j.v.C.V.V.B.j.j.g.d.( A V = G !.Q.Q.Q.Q.Q.Q.~.+X+X~.!.~.~.",
"+X~.+X+X~.Q.Q.Q.Q.Q.E.!.!.W.^.}.X   X X #.j.2.U U T E f.j./ Z Z A D.+XQ.Q.!.Q.Q.Q.Q.Q.!.~.~.!.~.+X+X",
"+XXX+X+X~.Q.Q.Q.Q.Q.Q.Q.Q.~.~.^.        #.j.#.b L L T j.j./ Z Z A D..XQ.Q.Q.Q.Q.Q.Q.Q.Q.Q.Q.Q.~.+X+X",
"~.~.!.~.!.Q.Q.Q.Q.Q.Q.Q.Q.Q.Q.~.^.^.~.$Xx @ % O o o 2 _._.R.R.N # J !.Q.Q.Q.Q.Q.Q.Q.Q.Q.Q.Q.Q.!.~.~.",
"E.E.E.Q.Q.Q.Q.Q.W.W.I.I.U.Q.Q.Q.!.^.~.!.G           * T.T.T.T.F   K E.E.Q.Q.Q.U.U.I.U.Q.Q.Q.Q.Q.Q.Q.",
"E.E.Q.Q.Q.Q.Q.Q.W.I.K.J.U.Q.Q.Q.Q.Q.!.!.|.].].].].].(.M M M M ' ].~.E.E.Q.Q.Q.U.J.J.U.Q.Q.Q.Q.Q.Q.Q.",
"Q.Q.Q.Q.Q.Q.E.E.!.U.J.J.I.Q.Q.Q.Q.Q.Q.Q.U.U.!.U.L.L.U.X       (.XX^.!.E.Q.Q.U.U.J.J.U.Q.Q.Q.Q.Q.Q.Q.",
"Q.Q.Q.Q.Q.E.E.U.U.U.U.U.E.Q.Q.Q.Q.Q.Q.Q.Q.Q.Q.U.U.U.E.( J ( _ ~.Q.!.Q.Q.Q.Q.!.U.I.U.U.Q.Q.Q.Q.Q.Q.Q.",
"Q.Q.Q.Q.Q.Q.Q.!.~.~.!.!.E.E.Q.Q.Q.Q.Q.Q.Q.!.~.~.!.Q.Q.!.~.Q.Q.Q.Q.Q.Q.Q.Q.!.~.~.!.~.Q.Q.Q.Q.Q.Q.Q.Q.",
"Q.Q.Q.Q.Q.Q.Q.!.+X+X~.Q.!.Q.Q.Q.Q.Q.Q.Q.Q.~.+X+X~.Q.Q.U.J.J.U.Q.Q.Q.Q.Q.Q.~.~.^.+X+X~.Q.Q.Q.Q.Q.Q.I."
};
