/* XPM */
static char *result[] = {
/* columns rows colors chars-per-pixel */
"50 50 254 2 ",
"   c #6FC0A0",
".  c #72C1A2",
"X  c #78C3A6",
"o  c #6DBF9E",
"O  c #69BD99",
"+  c #8CC9B2",
"@  c #55B78E",
"#  c #6CBE9D",
"$  c #61BA95",
"%  c #42AE80",
"&  c #74C2A3",
"*  c #70BFA0",
"=  c #6FBF9F",
"-  c #6EBD9E",
";  c #6CBB9B",
":  c #66B593",
">  c #6AB698",
",  c #6EB99B",
"<  c #70C0A0",
"1  c #70C0A1",
"2  c #999394",
"3  c #3F3134",
"4  c #504447",
"5  c #6FBE9C",
"6  c #78C2A2",
"7  c #6FC09F",
"8  c #74C0A2",
"9  c #464847",
"0  c #72404D",
"q  c #A63753",
"w  c #9B3952",
"e  c #544649",
"r  c #595A5A",
"t  c #72C19F",
"y  c #71C1A1",
"u  c #7AC4A7",
"i  c #A8A4A4",
"p  c #3E3134",
"a  c #783E4D",
"s  c #BE4E6A",
"d  c #B9415F",
"f  c #B63858",
"g  c #B13554",
"h  c #B03553",
"j  c #A4344F",
"k  c #4E3138",
"l  c #4E4346",
"z  c #6DBE9B",
"x  c #62BB96",
"c  c #71C0A1",
"v  c #3B3D3C",
"b  c #653B45",
"n  c #AE3856",
"m  c #CD8A9B",
"M  c #F3EBED",
"N  c #CE7D92",
"B  c #922237",
"V  c #871B2D",
"C  c #8B1E31",
"Z  c #A83350",
"A  c #A23853",
"S  c #3F3D3D",
"D  c #6A6B6A",
"F  c #4BB286",
"G  c #59B88F",
"H  c #65BC97",
"J  c #B3B0B1",
"K  c #3D3134",
"L  c #67323F",
"P  c #B13553",
"I  c #CD8496",
"U  c #F0E2E5",
"Y  c #C9788C",
"T  c #8E2033",
"R  c #84192A",
"E  c #891C2E",
"W  c #AA314D",
"Q  c #A53450",
"!  c #413135",
"~  c #665D5F",
"^  c #49B084",
"/  c #4DB287",
"(  c #63BB96",
")  c #3D403F",
"_  c #5F3C44",
"`  c #AD3855",
"'  c #9F2D46",
"]  c #9F2E45",
"[  c #BA4562",
"{  c #9B2B42",
"}  c #851A2B",
"|  c #AC3754",
" . c #923950",
".. c #3E3D3D",
"X. c #838785",
"o. c #6ABD99",
"O. c #2E302F",
"+. c #58323C",
"@. c #A42C47",
"#. c #96253B",
"$. c #AC324F",
"%. c #892539",
"&. c #731E2B",
"*. c #741D2B",
"=. c #811A2A",
"-. c #891C2F",
";. c #B43756",
":. c #96364E",
">. c #313030",
",. c #7C7D7C",
"<. c #73C2A2",
"1. c #861A2B",
"2. c #881B2D",
"3. c #54272E",
"4. c #342F2F",
"5. c #382D2E",
"6. c #781C2A",
"7. c #6EBF9E",
"8. c #38393C",
"9. c #573842",
"0. c #9C3650",
"q. c #932B42",
"w. c #7C1B2A",
"e. c #731D2B",
"r. c #604045",
"t. c #545655",
"y. c #414344",
"u. c #3E3C3D",
"i. c #6B222E",
"p. c #751D2B",
"a. c #821A2A",
"s. c #861C2E",
"d. c #9B354F",
"f. c #84374B",
"g. c #3A393C",
"h. c #828384",
"j. c #7AC5A7",
"k. c #606071",
"l. c #51515D",
"z. c #4E282D",
"x. c #5D242C",
"c. c #AAAAAA",
"v. c gray97",
"b. c #92939B",
"n. c #6F717B",
"m. c #383A3B",
"M. c #372E2E",
"N. c #781C2B",
"B. c #312F2F",
"V. c #3A3B3F",
"C. c #5F5F70",
"Z. c #9B9BA6",
"A. c #7FC6AB",
"S. c #75C2A3",
"D. c #585A67",
"F. c #474D50",
"G. c #583C42",
"H. c #54262D",
"J. c #9A9B9C",
"K. c #DFDFE1",
"L. c #8C8E96",
"P. c #352E2E",
"I. c #6A202B",
"U. c #70222F",
"Y. c #494B4F",
"T. c #4D5258",
"R. c #606070",
"E. c #7CC5A9",
"W. c #73C1A2",
"Q. c #7B8294",
"!. c #B8CFE3",
"~. c #8594A1",
"^. c #595B60",
"/. c #73757F",
"(. c #3C4041",
"). c #B3C9DC",
"_. c #A3B5C8",
"`. c #626273",
"'. c #75C2A4",
"]. c #79C4A6",
"[. c #8B8B97",
"{. c #9197A5",
"}. c #A0B2C5",
"|. c #83919F",
" X c #535B5F",
".X c #5B5F62",
"XX c #646565",
"oX c #626468",
"OX c #61636A",
"+X c #616369",
"@X c #636565",
"#X c #626464",
"$X c #555C60",
"%X c #5A6369",
"&X c #9DAEC1",
"*X c #9BA8BA",
"=X c #8B8B98",
"-X c #B6B6BE",
";X c #78C4A6",
":X c #CECED3",
">X c #80899B",
",X c #D5E1EC",
"<X c #393B3A",
"1X c #DADADA",
"2X c #F0F3F5",
"3X c #C1D5E6",
"4X c #AFC4D8",
"5X c #636475",
"6X c #868693",
"7X c #7BC5A7",
"8X c #86CAAF",
"9X c #78C2A5",
"0X c #9696A1",
"qX c #979DAB",
"wX c #9AAABC",
"eX c #BBC7D4",
"rX c #E2E9F0",
"tX c #9DA1A3",
"yX c #727473",
"uX c #787A7A",
"iX c #D1D8DE",
"pX c #DAE3EB",
"aX c #A4B3C4",
"sX c #9AA8BA",
"dX c #9697A2",
"fX c #AFAFB7",
"gX c #79C4A7",
"hX c #C4C4CA",
"jX c #8893A5",
"kX c #DFE8EF",
"lX c #F4F5F6",
"zX c #AFC3D7",
"xX c #6D7081",
"cX c #70707F",
"vX c #82C8AC",
"bX c #8E9CA0",
"nX c #979EAD",
"mX c #9AAABD",
"MX c #B4BAC5",
"NX c #C5C5CA",
"BX c #C2C3CA",
"VX c #A1AEBF",
"CX c #9698A4",
"ZX c #9F9FAA",
"AX c #81C8AC",
"SX c #717180",
"DX c #86C8AE",
"FX c #76C3A5",
"GX c #8CC8B2",
"HX c #79C2A6",
"JX c #71BFA0",
"KX c #45AF82",
"LX c #79C3A6",
"PX c #6EBF9D",
/* pixels */
"              . X X .                     . X X .                         . X X .     o O O o       ",
"              X + + X                     X + + X                         X + + X     O @ @ O       ",
"              X + + X         # $ $ #     X + + X                         X + + X     O @ @ O # $ $ ",
"              . X X .         $ % % $     . X X .                         . X X .     o O O o $ % % ",
"                              $ % % $ o O O o                                                 $ % % ",
"                              # $ $ # O @ @ O                                                 # $ $ ",
".                                     O @ @ O         . X X .                         . X X .       ",
"X                                     o O O o         X + + X                         X + + X       ",
"X . X X .                     . X X .     # $ $ #     X + + X . X X .                 X + + X . X X ",
". X + + X                     X + + X     $ % % $     . X X . X + + X                 . X X . X + + ",
"  X + + X                     X + + X     $ % % $             X + + X                         X + + ",
"  . X X .                     . X X .     # $ $ #             . X X .                         . X X ",
"                  o O O o                     o O O o                         o O O o               ",
"                  O @ @ O                     O @ @ O                         O @ @ O               ",
"                  O @ @ O                     O @ @ O                         O @ @ O               ",
"                  o O O o         &     * = - ; : : > ,                       o O O o               ",
"o             . X X .           <   1 < 2 3 3 3 3 3 3 4 5 6 7 .           . X X .                   ",
"O             X + + X             < 8 9 0 q q q q q q w e r t y           X + + X                   ",
"O # $ $ #     X + + X         y y u i p a s d f g h h j k l z < x $ #     X + + X                   ",
"o $ % % $     . X X .           c v b n m M N f B V V C Z A S D F G H     . X X .                   ",
"  $ % % $ o O O o           < . J K L P I U Y P T R R E W Q ! ~ ^ / ( o O O o                       ",
"  # $ $ # O @ @ O             ) _ ` ' V ] [ { V } R R R V C |  ...X.= o.@ @ O                       ",
".         O @ @ O       <   < O.+.f @.R #.$.%.&.&.*.=.R R -.;.:.>.,.<.o.@ @ O         . X X .       ",
"X         o O O o       y   < O.+.f @.R 1.2.3.4.4.5.6.R R -.;.:.>.,.. 7.O O o         X + + X       ",
"X . X X .     # $ $ #         8.9.0.q.R w.e.r.t.y.u.i.p.a.s.d.f.g.h.j.<   # $ $ #     X + + X . X X ",
". X + + X     $ % % $       1 k.l.O.z.R x.O.c.v.b.n.m.M.N.w.B.V.C.Z.A.<   $ % % $     . X X . X + + ",
"  X + + X     $ % % $       S.k.D.F.G.*.H.O.J.K.L.n.m.P.I.U.Y.T.R.Z.E.<   $ % % $             X + + ",
"  . X X .     # $ $ #       W.k.Q.!.~.O.O.O.^././.n.m.O.O.(.)._.`.Z.'.<   # $ $ #             . X X ",
"                  o O O o   ].[.{.}.|. X.XXXoXOXOX+X@X#X$X%X&X*X=X-X.         o O O o               ",
"                  O @ @ O   . ;X:Xk.>X!.,Xv.,.O.O.<X1X2X3X4X5X6X7X8X<         O @ @ O               ",
"                  O @ @ O       9X0XqXwXeXrXtXyXyXuXiXpXaXsXdXfX].gX          O @ @ O               ",
"                  o O O o       &   hXk.jX!.kXv.v.lX3XzXxXcXvX'.. .           o O O o               ",
"              . X X .             <.c bXnXmXMXNXNXBXVXsXCXZX1 y 1         . X X .     o O O o       ",
"              X + + X               y AX-Xk.k.k.k.k.k.SXDXFX  1           X + + X     O @ @ O       ",
"              X + + X         # $ $ #     X GXGXHXJXJX*   ;X              X + + X     O @ @ O # $ $ ",
"              . X X .         $ % KX( y < W.LXu & y < y                   . X X .     o O O o $ % % ",
"                              $ % % ( W.PXPXy . <       <                                     $ % % ",
"                              # $ $ # O @ @ O                                                 # $ $ ",
".                                     O @ @ O         . X X .                         . X X .       ",
"X                                     o O O o         X + + X                         X + + X       ",
"X . X X .                     . X X .     # $ $ #     X + + X . X X .                 X + + X . X X ",
". X + + X                     X + + X     $ % % $     . X X . X + + X                 . X X . X + + ",
"  X + + X                     X + + X     $ % % $             X + + X                         X + + ",
"  . X X .                     . X X .     # $ $ #             . X X .                         . X X ",
"                  o O O o                     o O O o                         o O O o               ",
"                  O @ @ O                     O @ @ O                         O @ @ O               ",
"                  O @ @ O                     O @ @ O                         O @ @ O               ",
"                  o O O o                     o O O o                         o O O o               ",
"o             . X X .                     . X X .     o O O o             . X X .                   ",
"O             X + + X                     X + + X     O @ @ O             X + + X                   "
};
