/* XPM */
static char *result[] = {
/* columns rows colors chars-per-pixel */
"50 50 203 2 ",
"   c #000000",
".  c #0B0603",
"X  c #0A0807",
"o  c #150B06",
"O  c #1B0E08",
"+  c #100E0E",
"@  c #10120D",
"#  c #151107",
"$  c #0A0E11",
"%  c #2E1A0E",
"&  c #26140A",
"*  c #241A11",
"=  c #371D12",
"-  c #3B1E11",
";  c #331B0D",
":  c #21231B",
">  c #2A261B",
",  c #372919",
"<  c #342B13",
"1  c #131D22",
"2  c #313130",
"3  c #502D0C",
"4  c #59320D",
"5  c #4A2616",
"6  c #432615",
"7  c #502918",
"8  c #5C2F1B",
"9  c #5D3511",
"0  c #5D311C",
"q  c #533516",
"w  c #482C0D",
"e  c #633612",
"r  c #673A13",
"t  c #6B3B15",
"y  c #603F19",
"u  c #6D3A1A",
"i  c #723D1B",
"p  c #47392D",
"a  c #593A28",
"s  c #413F39",
"d  c #6A3720",
"f  c #763D23",
"g  c #75421A",
"h  c #7D431D",
"j  c #714A19",
"k  c #414635",
"l  c #4C4C37",
"z  c #5A463C",
"x  c #4B513D",
"c  c #684B25",
"v  c #644629",
"b  c #7C4123",
"n  c #7A442C",
"m  c #6B552A",
"M  c #7C5428",
"N  c #6F5831",
"B  c #6E593A",
"V  c #7C503B",
"C  c #775F38",
"Z  c #6C4536",
"A  c #77643D",
"S  c #7D662C",
"D  c #363E41",
"F  c #38454B",
"G  c #304756",
"H  c #394751",
"J  c #354D5A",
"K  c #3C515B",
"L  c #37525E",
"P  c #2B404D",
"I  c #3E5C66",
"U  c #3A5762",
"Y  c #464546",
"T  c #564A48",
"R  c #525843",
"E  c #515548",
"W  c #474D53",
"Q  c #47595D",
"!  c #565653",
"~  c #755848",
"^  c #6C5C4E",
"/  c #7F724A",
"(  c #626950",
")  c #68625A",
"_  c #787A59",
"`  c #7B6B43",
"'  c #455D62",
"]  c #47646A",
"[  c #536664",
"{  c #5D736D",
"}  c #476D72",
"|  c #4D7779",
" . c #527F7F",
".. c #6A7B6E",
"X. c #7B7F68",
"o. c #824325",
"O. c #8B4A22",
"+. c #854428",
"@. c #8D4A2B",
"#. c #88482B",
"$. c #944C2B",
"%. c #934D27",
"&. c #9B512C",
"*. c #93552A",
"=. c #884C33",
"-. c #9D593C",
";. c #975535",
":. c #A5552E",
">. c #A1592C",
",. c #A45430",
"<. c #AE5A31",
"1. c #B85E35",
"2. c #B05B33",
"3. c #946A2A",
"4. c #8D6132",
"5. c #AC6133",
"6. c #BD6137",
"7. c #BA663A",
"8. c #BC6839",
"9. c #A07932",
"0. c #C16539",
"q. c #C56B3C",
"w. c #CC6D3E",
"e. c #CB703C",
"r. c #D0713F",
"t. c #875641",
"y. c #857D55",
"u. c #8D6952",
"i. c #BE7657",
"p. c #B26743",
"a. c #AA7A63",
"s. c #CF7241",
"d. c #C6754A",
"f. c #D47341",
"g. c #D97743",
"h. c #DD7945",
"j. c #D57948",
"k. c #C77E57",
"l. c #CC7749",
"z. c #E27C46",
"x. c #E67F48",
"c. c #798D76",
"v. c #59AA7E",
"b. c #7CA57D",
"n. c #6DA27E",
"m. c #B9923E",
"M. c #AC8739",
"N. c #8B875F",
"B. c #BD9A43",
"V. c #8B8E66",
"C. c #978460",
"Z. c #809271",
"A. c #8D8B74",
"S. c #AC8573",
"D. c #C69944",
"F. c #E58758",
"G. c #D0A94A",
"H. c #D5B154",
"J. c #DAB95E",
"K. c #D9B65B",
"L. c #D4AF52",
"P. c #CA8863",
"I. c #E39775",
"U. c #DDBD64",
"Y. c #DFC068",
"T. c #E7CD79",
"R. c #E5CA75",
"E. c #EAD17E",
"W. c #E2C56E",
"Q. c #5F888B",
"!. c #42AE80",
"~. c #55B78E",
"^. c #50AC80",
"/. c #7CAC89",
"(. c #7FB18D",
"). c #61BA95",
"_. c #6BBE9B",
"`. c #7BB593",
"'. c #75BC9B",
"]. c #7AB998",
"[. c #76BA97",
"{. c #7DBEA0",
"}. c #6FC0A0",
"|. c #72C1A2",
" X c #78C3A6",
".X c #908B88",
"XX c #A29995",
"oX c #81A580",
"OX c #84A883",
"+X c #80AB8C",
"@X c #82B595",
"#X c #A0A0A0",
"$X c #95ACBA",
"%X c #D09C89",
"&X c #DFAC9F",
"*X c #E0A38D",
"=X c #D0ACA4",
"-X c #8EC3AA",
";X c #8CC9B2",
":X c #D3C1CF",
">X c #DBC6D3",
",X c #D8CFE5",
"<X c #D5D6F2",
/* pixels */
"}.}.}.}.}.}.}.|. X X|.}.}.}.}.}.}.}.}.}.}.|. X X|.}.}.}.}.}.}.}.}.}.}.}.}.}. X X|.}.}.}._._._.}.}.}.",
"}.}.}.}.}.}.}. X;X;X X}.}.}.}.|.}.}.}.}.}. X;X;X X}.}.}.}.}.}.}.}.}.}.}.}. X;X;X X}.}._.~.~._._.}.}.",
"}.}.}.}.}.}.}. X;X;X X}.}.}.}._.).)._.}.}. X;X;X X}.}.}.}.}.}.}.}.}.}.}.}. X;X;X X}.}._.~.~._._.).~.",
"}.}.}.}.}.}.}.|. X X|.}.}.}.}.).!.!.).}.}.}. X X|.}.}.}.}.}.}.}.}.}.}.}.}.|. X X}.}.}._._._.}.).v.!.",
"}.}.}.}.}.}.}.}.}.}.}.}.|.|.|.).!.^.A V.)._.}.}.}.}.}.}.}.|.` / }.}.}.}.}.}.}.}.}.}.}.}.}.}.}.).!.!.",
"}.}.}.}.}.}.}.}.}.}.}.}._._.|._.).oX4 y.~.~._.}.}.}.}.}.}.'.y m }.}.}.}.}.}.}.}.}.}.}.}.}.}.}._.).).",
"|.}.}.}.}.}.}.}.}.}.}.}.|.|._.'.y g x.&.4 b._.}.}.}.}.|.m r r.e.4 A }.}.}.}.}.}.}.}.}.|. X X|.}.}.}.",
" X}.}.}.}.}.}.}.}.}.}.}.|._.|.'.q u x.>.4 Z.}.}.}.}.}. XN j r.e.w B }.}.}.}.}.}.}.}.}. X;X;X X}.}.}.",
" X|. X X|.}.}.}.}.}.}.}.}.}.}.`.# % x.>.y Z.).)._.|.|. XN e g.8.  k |.}.}.}.}.}.}.}.}. X;X;X X|. X X",
"|. X;X;X X}.}.}.}.}.}.}.}.}.}.@X@ % x.>.4 u.C.C.C.C.C.C.c t g.7.  k  X}.}.}.}.}.}.}.}.|. X X|. X;X;X",
"}. X;X;X X}.}.}.}.}.}.}.}.}.}.@X@ % z.>.4 b +.+.+.+.+.+.r e g.7.  k  X_.}.}.}.}.}.}._.}.}.}.}. X;X;X",
"}.'. X@Xc c c c N '.(.c c c (.`.@ % F.g.e.j t w.f.f.>.e <.e.F.7.  k  X` c c C }.V.c c c c A }.|. X X",
"}.}.}.OX4 4 4 4 9 '.OX4 4 4 OX`.@ % F.z.x.g r g.x.x.2.4 8.F.z.1.  k }.N 4 4 c _.y.4 4 4 9 c }.}.}.}.",
"|.'.y t 2.7.1.1.<.r t 1.O.4 OX`.@ & 1.e.z.&.%.g.x.F.8.+.q.z.6.%.  k }.N e <.,.4 h 1.1.1.2.:.4 A }.}.",
"(.V.c b -.-.-.-.;.u g 1.O.4 oX`.& ; 1.e.x.:.&.h.x.x.q.%.e.z.6.%.o l }.N e <.,.e b -.-.-.-.;.t A /.}.",
"c e 2.,.G G G G H n @.2.O.4 OX[.j t 1.r.x.0.6.h.x.x.r.6.r.z.0.:.4 A }.N e 2.<.o.Z G G G G T 1.*.4 y.",
"c 0 V ^ I I I I ' ^ ~ ,.f 4 OX'.9 e ,.q.x.r.w.x.x.x.r.r.z.z.:.%.4 A _.N e &.;.~ ! I I I I Q t.n 9 y.",
"c q D G  . . . . . ...+.i 4 OX'.y 9 +.7.x.x.x.x.x.x.x.x.x.z.$.b 4 A |.N 9 o.V  .c.| | Q. .| G 2 9 y.",
"/.OX/.c.L }  . . . .{ +.o.f , = i O.f.h.x.x.x.x.x.x.x.x.x.z.f.0.f a * d f +.V  . . . .| U ] /.(.OX'.",
"}.).!./.G I  . . . .{ +.+.#.O . f &.z.F.x.x.x.x.x.x.x.x.x.x.x.f.#.7   8 #.+.V  . .| Q.| J Q |.}._._.",
"}.).!.!._...G | | J G G z +.O o ,.k.<X=XF.x.x.x.x.x.x.x.x.F.,X:X1.d   8 f H G G I  .I L }.}.}.}.|.}.",
"}._.).)._...G } } J G G T +.O o 2.i.<X=Xk.z.x.x.x.x.x.x.j.P.,X:X0.f   a =.G G G I } U L '.}.}.}.}.}.",
"}.}.}.}._...G G G G G G z +.O o s.I.<X$X .k.F.z.x.x.x.x.X.Q.<X>Xx.@.  8 f H G G G G G L {. X}.}.}.}.",
" X}.}.}._...G G G G G G H T + # s.F.*Xa.I p.w.z.x.x.j.s.) ] %XI.x.@.  2 T J G G G G G L -X;X X}.}.}.",
" X|. X X|...G G J G G G G G $ # f.x.z.u.G -.6.z.x.x.f.1.T W j.x.F.O.  2 G G G G G G G K -X;X X X X X",
"|. X;X;X X'././.c.J G G G G a d g O.x.j.d.j.h.x.x.x.z.h.l.d.z.s.g u u Y G G G G [ +X/.`. X X}. X;X;X",
"}. X;X;X X X_._.v.L G G G G Z b 4 g x.x.x.x.x.x.x.x.x.x.x.x.x.s.4 u +.T G G G G { '.}.}.}.}.}. X;X;X",
"}.|. X X_._._._.).)._.}.c.P G D X & 1.w.x.x.x.x.x.x.x.x.x.x.1.@.  1 G G L _.).)._._.}.}.}.}._. X X X",
"}.}.}.}. X X_.|.}._._._.c.Q F F * - $.6.x.h.h.x.x.x.z.g.x.h.&.f & > F W [ _._._._._._._.}.}.}.}.}.}.",
"}.}.}.}._._._.|.}._.~.~._.'.c e <.$.  f x.6.6.z.x.x.f.1.j.s.O & 1.O.4 V.{._. X_.~.~._. X}.}.}.}.}.}.",
"}.}.}.}.}.}.|.|.}._.~.~._._.c e q.0.d +.@.a.a.s.w.w.i.S.-.%.f +.r.>.4 A.|._.|._.~.)._._.}.}.}.}.}.}.",
"}.}.}.}.}.|.|._.}._._._._.}.c r g.h.2.O.4 .X#X7.1.1.a.#XB e 2.6.F.<.4 Z.|.|._._._._._._.}.}.}.}.}.}.",
"}.}.}.}.}.}.}.|. X X}.}.( : 5.s.0.<.t 3.m.M v % & & , c 9.M.g g 0.q.w.a 2 '. X X|.}.}._._._._.}.}.}.",
"}.}.}.}.}.}.}. X;X;X X}.E   7.h.0.>.4 3.G.j 3 .     & 4 M.D.g r 1.w.F.6 $ @X;X;X X}.}._.~.~._.}.}.}.",
"}.}.}.}.}.}.}. X;X;X X}.R   @.<.e j G.U.E.L.G.G.G.G.G.G.W.T.G.m.4 o.2.;     > ;X X}.}._.~.~._._.).).",
"}.}.}.}.}.}.}.|. X X'.) z 5 o.O.t M G.Y.E.Y.K.J.J.J.J.J.R.T.L.B.t i %.e 6 X :  X|.}.}.'._._._.).!.!.",
"}.}.}.}.}.}.}.}.}.}.Z.  0 2.r 4 o.*.G.Y.E.E.E.E.E.E.E.E.E.T.G.D.+.i 4 &.:.o : _.}.}.}.}.}.}.}.).!.!.",
"}.}.}.}.}.}.}.}.}.}.Z.  0 6.&.%.&.5.G.H.J.T.E.E.E.E.E.E.Y.J.L.D.:.&.%.&.O.. : _.}.}.}.}.}.}.}._.).).",
"|.}.}.}.}.}.}.}.}.}.Z.  8 1.6.6.6.8.G.G.G.R.E.E.E.E.E.E.K.G.G.D.1.1.1.$.f . * _.}.}.}.|. X X|.}.}.}.",
" X}.}.}.}.}.}.}.}.}.Z.  5 @.<.1.7.&.% S G.L.H.H.L.L.H.H.G.D.< w 1.1.1.5 % X./.'.}.}.}. X;X;X X}.}.}.",
" X|. X X}.}.}.}.}.}.Z.  6 +.<.1.1.$.  c G.G.G.G.G.G.G.G.G.B.# & 1.1.1.< @ `.}.}.}.}.}. X;X;X X|. X X",
"|. X;X;X|.}.}.}.}.}.}.}.R   d +.+.+.+.6   M.G.G.G.G.G.G.< X b o.+.+.+.& @ `.}.}.}.}.}.|. X X|. X;X;X",
"}. X;X;X X}.}.}.}.}.}.}.!   ~ u.#.=.u.p   M 9.9.9.9.9.9.q & 5 7 7 7 7 p x '.}.}.}.}.}.}.}.}.}. X;X;X",
"}.|. X X|.}.}.}.}.}.}.}.E   X.XX=.t.#X!   w 4 4 4 4 4 4 4 3 .         _ }.}.}.}.}.}.}.}.}.}.}.|. X X",
"}.}.}.}.}.}.}.}.}._._._.c.( Y k , , s E ( _ / N.N.N./ N.N._ ( ( ( ( ( (.}.}.}._._._.}.}.}.}.}.}.}.}.",
"}.}.}.}.}.}.}.}.}._.~.~._.}.:         R }.}.}._.^.~.)._.}.}.'.}._.|.|._.}.}.}._.~.~._.}.}.}.}.}.}.}.",
"}.}.}.}.}.}.}.}.}._.~.~._.}.Z.Z.Z.Z.c.`.}.}.}._.~.~._._.}.}.}.}.}.}._.|.}.}.}._.~.~._.}.}.}.}.}.}.}.",
"}.}.}.}.}.}.}.}.}._._._.}.}.|.|.}.}.}.}.}.}.}._._._.'.}.}.}.}.}.}.|._.|.}.}.}._.)._._.}.}.}.}.}.}.}.",
"}.}.}.}.}.}.}.}. X X|.}.}.}.}.}.}.}.}.}.}.|. X X|.}.}._._._._.}.}.}.}.}.}.|. X X|.}.}.}.}.}.}.}.}.}.",
"_.}.}.}.}.}.}. X;X;X X}.}.}.}.}.}.}.}.}.}. X;X;X X}.}._.~.~._.}.}.}.}.}.}. X;X;X X}.}.}.}.}.}.}.}.}."
};
