/* XPM */
static char *result[] = {
/* columns rows colors chars-per-pixel */
"50 50 177 2 ",
"   c black",
".  c #0F0804",
"X  c #120904",
"o  c #1B0F06",
"O  c #0A0E11",
"+  c #25130B",
"@  c #2B170C",
"#  c #2E1A0E",
"$  c #241405",
"%  c #351E08",
"&  c #341B10",
"*  c #3D1F12",
"=  c #2A220F",
"-  c #21231B",
";  c #2F2B1D",
":  c #3A2615",
">  c #3E3316",
",  c #131D22",
"<  c #1D2B34",
"1  c #313528",
"2  c #59320D",
"3  c #462616",
"4  c #522A18",
"5  c #502B11",
"6  c #5A301C",
"7  c #633612",
"8  c #6C3B15",
"9  c #603F19",
"0  c #6C3A18",
"q  c #68351E",
"w  c #733D1C",
"e  c #4B3B21",
"r  c #5A3D32",
"t  c #6B3620",
"y  c #6E3820",
"u  c #763D23",
"i  c #754219",
"p  c #7E431D",
"a  c #754C1B",
"s  c #7D561F",
"d  c #5D4620",
"f  c #414635",
"g  c #4F4832",
"h  c #504A36",
"j  c #684B25",
"k  c #67442C",
"l  c #7B4022",
"z  c #744D27",
"x  c #674538",
"c  c #6F5831",
"v  c #7A593A",
"b  c #7B642C",
"n  c #77643D",
"m  c #243641",
"M  c #304756",
"N  c #334B58",
"B  c #39515C",
"V  c #3C5A64",
"C  c #3F6068",
"Z  c #41464D",
"A  c #524644",
"S  c #595B44",
"D  c #5A5B57",
"F  c #745E4C",
"G  c #5F664D",
"H  c #7F734B",
"J  c #626950",
"K  c #6F775B",
"L  c #687055",
"P  c #7A6942",
"I  c #406169",
"U  c #5E716A",
"Y  c #4D7779",
"T  c #527F7F",
"R  c #567471",
"E  c #596C67",
"W  c #626261",
"Q  c #717569",
"!  c #647972",
"~  c #777573",
"^  c #844423",
"/  c #8C4B23",
"(  c #854428",
")  c #894629",
"_  c #8E4A2B",
"`  c #934C2B",
"'  c #944D27",
"]  c #855328",
"[  c #925125",
"{  c #9B522C",
"}  c #94582F",
"|  c #865334",
" . c #985939",
".. c #A4552D",
"X. c #A45530",
"o. c #A25934",
"O. c #AD5A32",
"+. c #B85E35",
"@. c #B25C33",
"#. c #856437",
"$. c #9D6234",
"%. c #8D7332",
"&. c #896225",
"*. c #A66133",
"=. c #BC6837",
"-. c #BB663A",
";. c #BA6537",
":. c #C2663A",
">. c #C6693B",
",. c #CA6B3D",
"<. c #CB703D",
"1. c #875641",
"2. c #92664E",
"3. c #84724A",
"4. c #8F6B53",
"5. c #857D55",
"6. c #A86948",
"7. c #AB7F5E",
"8. c #A07155",
"9. c #BE765B",
"0. c #B36B4B",
"q. c #847465",
"w. c #CF7241",
"e. c #C3734A",
"r. c #D37443",
"t. c #D97743",
"y. c #DD7944",
"u. c #DB7C49",
"i. c #CE7F51",
"p. c #E27C47",
"a. c #E67F48",
"s. c #758572",
"d. c #7A8A74",
"f. c #4DAD7F",
"g. c #7EA67E",
"h. c #B8913D",
"j. c #8A855D",
"k. c #809271",
"l. c #869E77",
"z. c #8A936B",
"x. c #AA8675",
"c. c #C69E44",
"v. c #E58656",
"b. c #CDA147",
"n. c #D0A949",
"m. c #D5B154",
"M. c #D8B559",
"N. c #DAB95E",
"B. c #CD8162",
"V. c #DB8A64",
"C. c #E48C60",
"Z. c #E3916B",
"A. c #DEBE65",
"S. c #E0C169",
"D. c #EAD17E",
"F. c #E6CB76",
"G. c #42AE80",
"H. c #55B78E",
"J. c #61BA95",
"K. c #6BBE9B",
"L. c #74BD9C",
"P. c #7BBA98",
"I. c #60B48C",
"U. c #6FC0A0",
"Y. c #72C1A2",
"T. c #78C3A6",
"R. c #8F8C8A",
"E. c #B08E82",
"W. c #85A984",
"Q. c #A0A0A0",
"!. c #E19F86",
"~. c #8CC9B2",
"^. c #8FC2A7",
"/. c #B0BED2",
"(. c #CABEC8",
"). c #DCBEC1",
"_. c #D7CDE3",
/* pixels */
"U.U.U.U.U.U.U.Y.T.T.Y.U.U.U.U.U.U.U.U.U.U.Y.T.T.Y.U.U.U.U.U.U.U.U.U.U.U.U.U.T.T.Y.U.U.U.K.K.K.U.U.U.",
"U.U.U.U.U.U.U.T.~.~.T.U.U.U.U.U.U.U.U.U.U.T.~.~.T.U.U.U.U.U.U.U.U.U.U.U.U.T.~.~.T.U.U.K.H.H.K.K.U.U.",
"U.U.U.U.U.U.U.T.~.~.T.U.U.U.U.K.J.J.K.U.U.T.~.~.T.U.U.U.U.U.U.U.U.U.U.U.U.T.~.~.T.U.U.K.H.H.K.K.J.J.",
"U.U.U.U.U.U.U.Y.T.T.Y.U.U.U.U.J.G.G.J.U.U.Y.T.T.Y.U.U.U.U.U.U.U.U.U.U.U.U.Y.T.T.U.U.U.K.K.K.K.J.G.G.",
"U.U.U.U.U.U.U.U.U.U.U.U.U.U.Y.J.G.G.j.z.K.J.K.U.U.U.U.U.U.U.z.j.L.U.U.U.U.U.U.U.U.U.U.U.U.U.U.J.G.G.",
"U.U.U.U.U.U.U.U.U.U.U.U.U.U.L.K.J.W.9 c H.H.K.U.U.U.U.U.U.U.c 9 W.U.U.U.U.U.U.U.U.U.U.U.U.U.U.U.J.J.",
"Y.U.U.U.U.U.U.U.U.U.U.U.U.U.U.U.3.#.*.$.n l.J.U.U.U.U.Y.l.n $.*.#.H U.U.U.U.U.U.U.U.U.Y.T.T.Y.U.U.U.",
"T.U.U.U.U.U.U.U.U.U.U.U.U.U.U.U.j i t.-.2 5.U.U.U.U.U.T.5.2 =.t.i j U.U.U.U.U.U.U.U.U.T.~.~.T.U.U.U.",
"T.Y.T.T.Y.U.U.U.U.U.U.U.U.U.U.Y.; : r.=.2 5.J.J.K.U.U.T.5.2 =.r.: ; L.U.U.U.U.U.U.U.U.T.~.~.T.Y.T.T.",
"Y.T.~.~.T.U.U.U.U.U.U.U.U.U.U.T.- # <.=.2 5.G.G.J.U.U.Y.5.2 =.w.# - T.U.U.U.U.U.U.U.U.Y.T.T.Y.T.~.~.",
"U.T.~.~.T.U.U.U.U.U.U.U.U.U.U.T.- % w.-.2 w ) ( ) ( ( ) w 2 =.w.# - T.U.U.U.U.U.U.U.U.U.U.U.U.T.~.~.",
"U.Y.T.T.Y.U.U.U.U.U.U.U.U.U.U.Y.- # w.>.i l l ` { ` ` l l i >.w.# - Y.U.U.U.U.U.U.U.U.U.U.U.U.Y.T.T.",
"U.U.U.U.U.U.U.U.U.K.K.J.K.Y.U.U.- # w.a.a.[ 2 <.a.a.,.2 [ p.v.<.# - Y.U.U.U.U.U.K.K.K.U.U.U.U.U.U.U.",
"U.U.U.U.U.U.U.U.U.K.H.H.K.U.U.U.- @ -.t.a.{ 0 <.a.a.<.8 { v.<.:.@ - U.U.U.U.U.J.H.H.K.U.U.U.U.U.U.U.",
"U.U.U.U.U.U.U.U.U.K.H.H.K.K.U.U.- + X.>.a.O.( t.a.a.t.) @.a.,...+ - U.U.U.U.K.K.H.H.K.U.U.U.U.U.U.U.",
"U.U.U.U.U.U.U.U.U.K.P.n n n l.Y.e 5 O.>.a.-...t.a.a.<...:.a.>.O.5 e U.l.n n n P.K.K.K.U.U.U.U.U.U.U.",
"U.U.U.U.U.U.U.Y.T.T.W.2 2 2 5.U.j 0 O.>.a.w.@.t.a.a.y.+.w.a.>.@.0 j U.5.2 2 2 W.Y.U.U.U.U.U.U.U.U.U.",
"K.U.U.U.U.U.U.P j j z ..^ 2 5.U.j 7 ) O.a.p.t.a.a.a.a.y.y.p.O.) 7 j U.5.2 ^ ..z j j P U.U.U.U.U.U.U.",
"K.K.J.J.K.U.U.c 2 2 8 +.' 2 5.U.j 7 l X.a.a.a.a.a.a.a.a.a.a.X.l 7 j K.5.2 ' +.8 2 2 c U.U.U.U.U.U.U.",
"K.J.G.G.J.5.2 { @.) _ +.' 2 $   t { y.a.a.a.a.a.a.a.a.a.a.a.a.y.{ y   $ 2 ' +._ ) @.{ 2 5.U.U.U.U.U.",
"U.J.G.G.g.3.0 } 6.F z O./ 2 $   u  .V.Z.a.a.a.a.a.a.a.a.a.a.C.V. .u   + 2 / O.| | 2. .8 3.W.L.U.U.U.",
"U.K.I.P.2 p +.Q Y s.R ( w 2 $   ` e._.).a.a.a.a.a.a.a.a.a.a.)._.e.`   + 2 y ( U T T Q +.^ 2 W.K.U.U.",
"Y.U.5.3.^ | 4.! T T R r k 0 @   o.i._.(.7.i.a.a.a.a.a.a.i.7.(._.B. .  # q y x R T T ! 4.] p 3.j.U.U.",
"T.P.7 8 +.4.T T T T Y N A ( &   0.Z._./.T 7.a.a.a.a.a.a.7.T /._.Z.-.  & ( A M Y T T T T 4.+.8 9 L.U.",
"T.P.9 8 +.4.s.Y T I V M A ( &   0.a.!.E.V 2.w.p.a.a.p.w.2.I E.!.v.;.  & ( A M V I T T Y 2.+.8 7 W.T.",
"T.P.d 8 +.2.Y G.Y N M M A ( &   -.a.a.0.m 1.@.y.a.a.y.+.1.m 0.a.v.-.  % ( A M M N Y T Y 4.;.8 d ~.~.",
"v z { o.) F Y C B M M M M Z r t y / y.u.i.i.y.a.a.a.a.y.r.e.u.u./ w t r Z M M M N B V G.F ' ..{ c v ",
"j 2 O.O.( F T V M M M M M M x ( 7 i t.a.a.p.a.a.a.a.a.a.a.a.a.t.w 7 ( x M M M M B m V T F ( O.O.7 j ",
"j 7 @.o.M M M M M M M M M M M M O + X.e.a.a.a.a.a.a.a.a.a.a.:.X.+ O M M M M M M N N N M M M  .@.2 j ",
"j 2 / | R U U U E N M M M M m < 3 4 q ` a.t.r.p.a.a.p.r.u.a.` t 4 3 < m N M M M N W U R U U | / 7 j ",
"j 2 2 k U.U.Y.Y.L.B M M M M ,   ` ` X 3 a.w.+.p.a.a.y.+.w.a.3 X ' `   , M M N M N I.L.Y.U.U.j 2 2 j ",
"j.5.5.q.U.U.Y.Y.U.d.s.s.s.s.g % +.>.u u _ 8.7.e.>.w.e.x.8.` u u 0.+.% f s.s.d.~ s.K.L.U.U.U.j.5.j.j.",
"Y.U.U.U.U.U.U.Y.T.T.Y.U.U.U.n 2 ,.y.;.{ 2 5.Q.0.+.+.0.Q.q.2 { ;.y.<.2 n U.Y.T.T.Y.U.U.U.K.K.K.U.U.U.",
"Y.U.U.U.U.U.U.T.~.~.T.U.K - | ,.>.O.w ] h.#.k % + + : k #.h.] i @.:.,.] - K ~.~.T.U.K.K.H.H.K.U.U.U.",
"U.U.U.U.U.U.U.T.~.~.T.Y.J   ) v.:...7 s n.&.2 X     X 2 &.n.s 2 ..:.v./   J ~.~.T.U.U.K.H.H.J.K.J.J.",
"U.U.U.U.U.U.U.Y.T.T.k.      0 +.8 a c.M.D.M.n.n.n.n.n.b.N.D.M.c.i 8 +.0   J T.T.Y.U.U.U.K.K.U.J.G.G.",
"U.U.U.U.U.U.U.U.K.Y.k.  X + w ..w a c.M.D.A.m.m.m.m.m.m.A.D.M.c.a w ..w + S k.L.U.U.U.U.U.U.U.J.G.G.",
"U.U.U.U.U.U.U.U.Y.Y.k.  3 +.^ 2 l } c.M.D.D.D.D.D.D.D.D.D.D.M.b.} p 2 ^ +.3   k.U.U.U.U.U.U.U.K.J.J.",
"Y.U.U.U.U.U.U.U.U.U.k.  * ../ p ` *.c.m.A.F.D.D.D.D.D.D.F.S.m.b.*.' p ' +.3   k.U.U.U.Y.T.T.Y.U.U.U.",
"T.U.U.U.U.U.U.U.U.U.k.  & ( ..+.;.=.b.n.n.S.D.D.D.D.D.D.S.n.n.b.=.;.+.+.+.5   k.U.U.U.T.~.~.T.U.U.U.",
"T.Y.T.T.Y.U.U.U.U.U.P.J h & ( +.+.o.d b n.m.A.N.N.N.N.N.m.n.b d X.+.+.O.' *   k.U.U.U.T.~.~.T.Y.T.T.",
"Y.T.~.~.T.U.U.U.U.U.U.U.J   q +.;.` X > n.n.n.n.n.n.n.n.n.n.3 X ` +.+.X.( :   d.U.U.U.Y.T.T.Y.T.~.~.",
"U.T.~.~.T.U.U.U.U.U.U.U.J   6 ` _ ( y 6 = %.n.n.n.n.n.n.%.= 6 q ) _ ` 6 o S k.L.U.U.U.U.U.U.U.T.~.~.",
"U.Y.T.T.Y.U.U.U.U.U.U.U.J   4 ( ( ( ( 6   b n.n.n.n.n.n.b   6 ^ ( ( ( 4   J U.U.U.U.U.U.U.U.U.Y.T.T.",
"U.U.U.U.U.U.U.U.Y.K.J.K.K.U.f         o 2 2 2 2 2 2 2 2 %   ~ Q.1.1.Q.W   J U.K.K.K.K.U.U.U.U.U.U.U.",
"U.U.U.U.U.U.U.U.U.K.H.H.K.U.S - - - - > j j j j j j j j e - W ~ x z R.D - K U.K.H.H.K.U.U.U.U.U.U.U.",
"U.U.U.U.U.U.U.U.U.K.H.H.K.U.U.U.U.U.U.U.K.U.U.K.H.H.K.U.U.U.1         f U.U.U.K.H.H.K.Y.U.U.U.U.U.U.",
"U.U.U.U.U.U.U.U.U.K.K.K.K.U.U.U.U.U.U.U.U.U.U.K.K.K.U.U.U.U.G f f f f L U.U.U.U.K.J.K.U.U.U.U.U.U.U.",
"U.U.U.U.U.U.U.Y.T.T.Y.U.U.U.U.U.U.U.U.U.U.Y.T.T.Y.U.U.K.K.J.K.U.U.U.U.U.U.Y.T.T.Y.U.U.U.U.U.U.U.U.U.",
"K.U.U.U.U.U.U.T.~.~.T.U.U.U.U.U.U.U.U.U.U.T.~.~.T.U.U.K.H.H.K.Y.U.U.U.U.U.T.~.~.T.U.U.U.U.U.U.U.U.U."
};
