/* XPM */
static char *result[] = {
/* columns rows colors chars-per-pixel */
"50 50 10 1 ",
"  c #6FC0A0",
". c #72C1A2",
"X c #78C3A6",
"o c #6DBF9E",
"O c #69BD99",
"+ c #8CC9B2",
"@ c #55B78E",
"# c #6CBE9D",
"$ c #61BA95",
"% c #42AE80",
/* pixels */
"       .XX.          .XX.            .XX.  oOOo   ",
"       X++X          X++X            X++X  O@@O   ",
"       X++X    #$$#  X++X            X++X  O@@O#$$",
"       .XX.    $%%$  .XX.            .XX.  oOOo$%%",
"               $%%$oOOo                        $%%",
"               #$$#O@@O                        #$$",
".                  O@@O    .XX.            .XX.   ",
"X                  oOOo    X++X            X++X   ",
"X.XX.          .XX.  #$$#  X++X.XX.        X++X.XX",
".X++X          X++X  $%%$  .XX.X++X        .XX.X++",
" X++X          X++X  $%%$      X++X            X++",
" .XX.          .XX.  #$$#      .XX.            .XX",
"         oOOo          oOOo            oOOo       ",
"         O@@O          O@@O            O@@O       ",
"         O@@O          O@@O            O@@O       ",
"         oOOo          oOOo            oOOo       ",
"o      .XX.          .XX.  oOOo      .XX.         ",
"O      X++X          X++X  O@@O      X++X         ",
"O#$$#  X++X          X++X  O@@O#$$#  X++X         ",
"o$%%$  .XX.          .XX.  oOOo$%%$  .XX.         ",
" $%%$oOOo                      $%%$oOOo           ",
" #$$#O@@O                      #$$#O@@O           ",
".    O@@O                  .XX.    O@@O    .XX.   ",
"X    oOOo                  X++X    oOOo    X++X   ",
"X.XX.  #$$#    .XX.        X++X.XX.  #$$#  X++X.XX",
".X++X  $%%$    X++X        .XX.X++X  $%%$  .XX.X++",
" X++X  $%%$    X++X            X++X  $%%$      X++",
" .XX.  #$$#    .XX.            .XX.  #$$#      .XX",
"         oOOo          oOOo            oOOo       ",
"         O@@O          O@@O            O@@O       ",
"         O@@O          O@@O            O@@O       ",
"         oOOo          oOOo            oOOo       ",
"       .XX.          .XX.            .XX.  oOOo   ",
"       X++X          X++X            X++X  O@@O   ",
"       X++X    #$$#  X++X            X++X  O@@O#$$",
"       .XX.    $%%$  .XX.            .XX.  oOOo$%%",
"               $%%$oOOo                        $%%",
"               #$$#O@@O                        #$$",
".                  O@@O    .XX.            .XX.   ",
"X                  oOOo    X++X            X++X   ",
"X.XX.          .XX.  #$$#  X++X.XX.        X++X.XX",
".X++X          X++X  $%%$  .XX.X++X        .XX.X++",
" X++X          X++X  $%%$      X++X            X++",
" .XX.          .XX.  #$$#      .XX.            .XX",
"         oOOo          oOOo            oOOo       ",
"         O@@O          O@@O            O@@O       ",
"         O@@O          O@@O            O@@O       ",
"         oOOo          oOOo            oOOo       ",
"o      .XX.          .XX.  oOOo      .XX.         ",
"O      X++X          X++X  O@@O      X++X         "
};
