/* XPM */
static char *result[] = {
/* columns rows colors chars-per-pixel */
"50 50 193 2 ",
"   c #010101",
".  c #0D0605",
"X  c #070709",
"o  c #140C0A",
"O  c #180D0D",
"+  c #150807",
"@  c #19130D",
"#  c #0D0D1B",
"$  c #0A0A14",
"%  c #100F1F",
"&  c #1D1211",
"*  c #181818",
"=  c #0E1316",
"-  c #261A15",
";  c #301D1C",
":  c #1E201F",
">  c #30221C",
",  c #101021",
"<  c #1B1B37",
"1  c #251D2E",
"2  c #1F2221",
"3  c #222323",
"4  c #23272B",
"5  c #382121",
"6  c #352123",
"7  c #25233B",
"8  c #2D3231",
"9  c #481C1A",
"0  c #53201E",
"q  c #41251E",
"w  c #452B29",
"e  c #542726",
"r  c #5F2C2A",
"t  c #5A2724",
"y  c #4F302E",
"u  c #51312F",
"i  c #523230",
"p  c #5C3834",
"a  c #4E3E3D",
"s  c #632E2C",
"d  c #682E2C",
"f  c #63312F",
"g  c #6C302E",
"h  c #75312E",
"j  c #633230",
"k  c #6B3E3C",
"l  c #683936",
"z  c #7C3732",
"x  c #632D38",
"c  c #4D4A3F",
"v  c #6D413F",
"b  c #67493B",
"n  c #72483C",
"m  c #77543A",
"M  c #6F5533",
"N  c #2C3944",
"B  c #323858",
"V  c #282853",
"C  c #303164",
"Z  c #383667",
"A  c #393974",
"S  c #373873",
"D  c #473B6A",
"F  c #523B68",
"G  c #324647",
"H  c #494A4A",
"J  c #5F4050",
"K  c #4F5351",
"L  c #585959",
"P  c #54514C",
"I  c #6F4341",
"U  c #63414D",
"Y  c #734541",
"T  c #744A43",
"R  c #7B4C46",
"E  c #774B4A",
"W  c #794F4D",
"Q  c #7D5343",
"!  c #745145",
"~  c #775955",
"^  c #724F53",
"/  c #76655C",
"(  c #484373",
")  c #554F6A",
"_  c #665D64",
"`  c #725967",
"'  c #5C6461",
"]  c #737568",
"[  c #6A7773",
"{  c #853532",
"}  c #8C3936",
"|  c #8A3A34",
" . c #9A3E39",
".. c #963B37",
"X. c #A23E3A",
"o. c #9A443F",
"O. c #A5413D",
"+. c #AF433E",
"@. c #A8493E",
"#. c #B1443F",
"$. c #A4543D",
"%. c #867337",
"&. c #8A3F4F",
"*. c #8C424D",
"=. c #984843",
"-. c #875E44",
";. c #885E57",
":. c #B54941",
">. c #BC4F43",
",. c #B44740",
"<. c #B95B45",
"1. c #B35943",
"2. c #A55741",
"3. c #8B6448",
"4. c #926B44",
"5. c #946748",
"6. c #9A7647",
"7. c #8E6651",
"8. c #826151",
"9. c #B06542",
"0. c #A17A4A",
"q. c #A76C50",
"w. c #946567",
"e. c #8E726F",
"r. c #8B6B75",
"t. c #897973",
"y. c #906D6B",
"u. c #A47A75",
"i. c #C45546",
"p. c #C65C48",
"a. c #D4634B",
"s. c #E16E51",
"d. c #E47152",
"f. c #5F8173",
"g. c #988342",
"h. c #A8894A",
"j. c #AD9349",
"k. c #A9924A",
"l. c #B19649",
"z. c #B29949",
"x. c #B18747",
"c. c #BDA450",
"v. c #868178",
"b. c #B08175",
"n. c #D3B95D",
"m. c #CBA85B",
"M. c #C5886C",
"N. c #C79070",
"B. c #CB9375",
"V. c #D5B964",
"C. c #E4BA64",
"Z. c #DEC464",
"A. c #E2C669",
"S. c #E6CC67",
"D. c #F2D86E",
"F. c #F0D66D",
"G. c #EAD06A",
"H. c #70719B",
"J. c #6B9F8A",
"K. c #42AE80",
"L. c #55B78E",
"P. c #5BBA92",
"I. c #61BA95",
"U. c #6BBE9B",
"Y. c #67BC99",
"T. c #6F8DB0",
"R. c #7B9EBC",
"E. c #7491AF",
"W. c #6FC09F",
"Q. c #6FC0A0",
"!. c #72C1A2",
"~. c #78C3A6",
"^. c #7DC6A9",
"/. c #868685",
"(. c #919994",
"). c #A78B89",
"_. c #849DA7",
"`. c #9BAAA3",
"'. c #88BBA6",
"]. c #A4A6A5",
"[. c #A0A8A4",
"{. c #B6A5A3",
"}. c #B5B7B5",
"|. c #A2BDB2",
" X c #CABCBB",
".X c #82C5AA",
"XX c #84C9AD",
"oX c #8BC5AD",
"OX c #8CC9B2",
"+X c #C3C1BD",
"@X c #B9C8C1",
"#X c gray77",
"$X c #C9D0CD",
/* pixels */
"Q.Q.Q.Q.Q.Q.Q.!.~.~.!.Q.Q.Q.Q.Q.Q.Q.Q.Q.Q.!.~.~.!.Q.Q.Q.Q.Q.Q.Q.Q.Q.Q.Q.Q.!.~.~.!.Q.Q.W.U.Y.W.W.W.Q.",
"Q.Q.Q.Q.Q.Q.Q.~.OXOX~.Q.Q.Q.Q.Q.Q.Q.Q.Q.Q.~.OXOX~.Q.Q.Q.Q.Q.Q.Q.Q.W.Q.Q.Q.~.OXOX~.Q.W.Y.L.L.Y.W.Q.Q.",
"Q.Q.Q.Q.Q.Q.Q.~.OXOX~.Q.Q.Q.Q.U.I.I.U.Q.W.~.OXOX~.Q.Q.Q.Q.Q.Q.Q.Q.!.Q.W.Q.~.OXOX~.Q.Q.Y.L.L.U.U.I.P.",
"Q.Q.Q.Q.Q.Q.Q.!.~.~.!.Q.Q.Q.Q.I.K.K.I.Q.W.!.~.~.!.Q.Q.Q.Q.Q.Q.Q.Q.Q.Q.W.Q.!.~.~.!.Q.W.W.U.Y.Q.I.K.K.",
"Q.Q.Q.Q.Q.Q.Q.Q.Q.Q.Q.Q.Q.Q.Q.I.K.K.Y.!.U.Y.!.~.^.^.Q.W.Q.!.!.Q.W.!.~.!.!.Q.Q.Q.Q.Q.Q.Q.Q.Q.Q.P.K.K.",
"Q.Q.Q.Q.Q.Q.Q.Q.Q.Q.Q.Q.Q.Q.!.U.(.] ] / ~ Q W W W W W W W W W W W E W.W.Q.Q.Q.Q.Q.Q.Q.Q.Q.Q.W.W.I.I.",
"!.Q.Q.Q.Q.Q.Q.Q.Q.Q.Q.Q.Q.Q.~.~.y.s r d r r r r r r r r r r r r r r .X~.!.W.W.W.Q.Q.Q.!.~.~.!.Q.!.Q.",
"~.Q.Q.Q.Q.Q.Q.Q.Q.Q.Q.!.U.~.).e.*.| @.$.<.<.<.<.<.<.<.<.<.<.<.<.o...w.v.oX!.!.W.Q.Q.Q.~.OXOX~.Q.Q.Q.",
"~.!.~.~.!.Q.Q.Q.Q.Q.Q.Q.!.~.E r o.+.i.d.d.d.d.d.d.d.d.d.d.d.d.s.#.#.h p '.W.!.W.Q.Q.Q.~.OXOX~.!.~.~.",
"!.~.OXOX~.Q.Q.Q.Q.Q.Q.Q.U.!.E r @.>.a.d.d.d.d.d.d.d.d.d.d.d.d.s.i.<.z r [.W.W.W.Q.Q.Q.!.~.~.!.~.OXOX",
"Q.~.OXOX~.Q.Q.Q.Q.Q.Q.Q.Q.Q.E s <.d.d.d.d.d.d.d.d.d.d.d.d.d.d.d.s.s.z r {.~.W.W.Q.Q.Q.Q.Q.Q.Q.~.OXOX",
"Q.!.~.~.!.Q.Q.Q.Q.Q.Q.Q.!.oXR g p.d.d.d.d.d.d.d.d.d.d.d.d.d.d.d.s.s.o.d )..XW.!.Q.Q.Q.Q.Q.Q.Q.!.~.~.",
"Q.Q.Q.Q.Q.Q.Q.Q.Q.U.U.Y.j s X.+.a.d.d.d.d.d.d.d.d.d.d.d.d.d.d.d.d.d.>.+.{ s e.W.U.Y.U.!.Q.Q.Q.Q.Q.Q.",
"Q.Q.Q.Q.Q.Q.Q.Q.Q.U.L.L.f r X.+.a.d.d.d.d.d.d.d.d.d.d.d.d.d.d.d.d.d.>.+.{ r t.W.L.L.U.Q.Q.Q.Q.Q.Q.Q.",
"Q.Q.Q.Q.Q.Q.Q.Q.Q.U.L.L.f r X.+.#.#.p.d.d.d.d.d.d.d.d.d.d.d.d.s.>.,.,.+.z r t.U.L.L.Y.Q.Q.Q.Q.Q.Q.Q.",
"Q.Q.Q.Q.Q.Q.Q.Q.Q.U.U.U.f r O.+.#.#.i.d.d.d.d.d.d.d.d.d.d.d.d.s.,.+.+.+.{ r v.U.U.Y.W.Q.Q.Q.Q.Q.Q.Q.",
"Q.Q.Q.Q.Q.Q.W.!.~.~.!.!.& o  .+.#.#.#.i.i.>.>.i.i.:.i.>.>.i.>.>.,.X.,.+.t O [ !.U.Q.Q.Q.Q.Q.Q.Q.Q.Q.",
"U.Q.Q.Q.Q.Q.W.~.OXOX~.!.X   ..+.#.#.#.+.+.+.X.#.X.X.,.X.#.X.#.#.+.+.+.+.0   ' OX~.Q.Q.Q.Q.Q.Q.Q.Q.Q.",
"U.U.I.I.W.W.W.~.OXOX~.U.X   h } O.+.+.+.+.+.+.+.i.:.,.,.#.#.#.#.X.,...} 9   L OX~.Q.Q.Q.Q.Q.Q.Q.Q.Q.",
"Q.P.K.K.P.W.W.!.~..X!.^.X   e r  .+.#.+.+.+.+.+.X.X.X.,.#.#.,.X.,.,.g r -   K ^.!.Q.Q.Q.Q.Q.Q.Q.Q.Q.",
"!.I.K.K.P.W.U.Y.!.!.#X}.> - t f |  .O.+.+.+.+.| { { { ..#.#.#.#. . .h j q - P ~.~.!.Q.Q.Q.Q.Q.Q.Q.Q.",
"Q.U.I.I.W.Y.L.L.U.`.  + 6.0.T n f s { +.+.+.+.+       0 X.,.#.X.s r k Y %.0.M   3 !.Q.Q.Q.Q.Q.Q.Q.Q.",
"!.Q.Q.Q.W.I.L.L.Y.`.  o 6.0.n v f s z +.+.+.O.+ .   X 0 +.X.#.X.s s k v -.q.M   * !.W.!.~.~.!.Q.Q.Q.",
"~.Q.Q.Q.W.W.W.Y.W.`.  o N.N.- X u v l d s d s t t t t t h d h h k k - . ! N.7.  3 !.W.~.OXOX~.Q.Q.Q.",
"~.!.~.~.!.Q.Q.U.P.`.  O B.B.-   y I l r r r r r r r s r r r r s v I O   ! B.7.  2 !.Q.~.OXOX~.!.~.~.",
"!.~.OXOX~.Q.Q.I.K.}.i i > > X   y Y v k n 4.4.n k k k m 4.-.k k I I O   @ > P #X@X!.Q.!.~.~.!.~.OXOX",
"Q.~.OXOX~.Q.Q.I.K. XI l         y I Y Y R 6.6.T I I I -.0.4.I v I I O       H I.U.!.Q.Q.Q.Q.Q.~.OXOX",
"Q.!.~.~.!.Q.Q.U.Y. XI I b b 7 < 6 5 5 5 w -.-.Y Y I I R 3.n 5 5 5 5 5 5 L v.[.Y.Q.Q.Q.Q.Q.Q.Q.!.~.~.",
"Q.Q.Q.Q.Q.Q.Q.Q.!. XI R B.B.( S ,       O I I I I I I I I u         i I {.W.~.XXY.Y.U.!.Q.Q.Q.Q.Q.Q.",
"Q.Q.Q.Q.Q.Q.Q.Q.!. XI T u.u.( A 1 & & & - i i i u i i i u w & & % % w i {.~.~.!.L.L.Y.!.Q.Q.Q.Q.Q.Q.",
"Q.Q.Q.Q.Q.Q.Q.Q.~. XY U A A S A J I I I i                 & I I A S $   /.~.!.!.L.L.U.Q.Q.Q.Q.Q.Q.Q.",
"Q.Q.Q.Q.Q.Q.Q.Q.^.+XW ^ Z S S A U Y Y T l . . . . . . . . - T I D A , X /.~.~.XXU.U.U.Q.!.Q.Q.Q.Q.Q.",
"Q.Q.Q.Q.Q.Q.Q.!.~.^.!.!.$ X C S &.+.9.j.0.O.X.X.X.X.X.X. .$.j.h.I I Z Z 7 = L XX!.Q.Q.U.U.U.U.Q.Q.Q.",
"Q.Q.Q.Q.Q.Q.Q.~.OXOX~.!.X   C S &.#.9.l.x.#.+.+.#.#.+.#.+.1.z.j.! Y D S < X K OXXXQ.Q.U.L.L.U.Q.Q.!.",
"Q.Q.Q.Q.Q.Q.Q.~.OXOX~.~.Q.!.^ J =.X.=.Q 4.C.C.C.C.C.C.C.C.m.! o.o.=.F S ` q.8.8 f.!.Q.Y.L.L.U.U.P.I.",
"Q.Q.Q.Q.Q.Q.Q.!.~.~.!.Q.Q.Q.;.Y o.+.o.I 3.D.D.D.D.D.F.F.F.V.b n +.,.F S r.B.7.  8 XXQ.Q.U.U.U.I.K.K.",
"Q.Q.Q.Q.Q.Q.Q.Q.Q.Q.Q.Q.Q.!.a ; } +.2.6.h.D.D.D.D.D.D.D.D.V.6.4.+.+.w.r.u.B.7.  4 XXQ.Q.Q.Q.Q.P.K.K.",
"Q.Q.Q.Q.Q.Q.Q.Q.Q.Q.Q.Q.Q.Q.4   h ,.9.l.m.D.D.D.D.D.D.D.D.S.z.l.@.+.M.B.B.B.7.  G !.Q.Q.Q.Q.Q.Q.I.I.",
"!.Q.Q.Q.Q.Q.Q.Q.Q.Q.Q.Q.!.!.4   j &.5.z.c.Z.Z.F.D.D.D.G.Z.n.z.j.*.*.;.7.5.7.~ P J.W.Q.!.~.~.!.Q.Q.Q.",
"~.Q.Q.Q.Q.Q.Q.Q.Q.Q.Q.Q.W.!.3   V A _ l.l.l.z.G.D.D.D.n.z.z.z.j.( A $       P !.~.W.Q.~.OXOX~.Q.Q.Q.",
"~.!.~.~.!.Q.Q.Q.Q.Q.Q.Q.Q.!.H * C S _ k.k.k.z.Z.Z.S.Z.m.z.z.g.6.Z C 4 : 2 2 [ ^.W.W.Q.~.OXOX~.!.~.~.",
"!.~.OXOX~.Q.Q.Q.Q.Q.Q.Q.!.Q.Q.OXH.A S A ) z.l.Q T T ! 6.z.%.. X     @X~.!.!.Q.Q.W.W.Q.!.~.~.!.~.OXOX",
"Q.~.OXOX~.Q.Q.Q.Q.Q.Q.Q.Q.Q.Q.^.H.A A A ) z.z.m I I b 4.z.%.        ~.~.~.W.Q.Q.W.Q.Q.Q.Q.Q.Q.~.OXOX",
"Q.!.~.~.!.Q.Q.Q.Q.Q.Q.Q.Q.Q.Q.~.L $ G E.E._._.< o O o @ @ c $X!.~.XX~.Q.Q.W.Q.W.W.Q.Q.Q.Q.Q.Q.!.~.~.",
"Q.Q.Q.Q.Q.Q.Q.Q.W.W.Y.Y.W.Q.Q.Q.H   G R.R.R.R.=           H Q.~.^.!.Q.Q.W.W.Q.W.Y.U.W.Q.Q.Q.Q.Q.Q.Q.",
"Q.Q.Q.Q.Q.Q.Q.Q.W.Y.L.L.Y.Q.Q.Q..X].H.8 N N N (.].].].].`.|.!.!.!.Q.Q.Q.W.W.Q.Y.L.L.Y.Q.Q.Q.Q.Q.Q.Q.",
"Q.Q.Q.Q.Q.Q.W.W.W.U.L.L.U.Q.Q.Q.^.XX(.      X Y.P.P.U.!.Q.Q.Q.Q.Q.Q.Q.Q.W.W.W.Y.L.L.Y.Q.Q.Q.Q.Q.Q.Q.",
"Q.Q.Q.Q.Q.Q.W.W.W.W.U.Y.W.Q.Q.Q.~.!.'.' ' L ' !.U.U.U.Q.Q.Q.Q.W.Q.Q.Q.Q.W.W.W.W.W.Y.W.Q.Q.Q.Q.Q.Q.Q.",
"W.Q.Q.Q.Q.Q.Q.!.~.~.!.Q.Q.Q.Q.Q.Q.Q.Q.!.!.^.^.~.!.Q.Q.W.Y.Y.W.W.Q.Q.Q.Q.Q.!.~.~.!.Q.Q.Q.Q.Q.Q.Q.Q.Q.",
"Y.Q.Q.Q.Q.Q.Q.~.OXOX~.Q.Q.Q.Q.Q.Q.Q.Q.Q.Q.~.OXOX~.Q.Q.U.L.L.U.Q.Q.Q.Q.Q.Q.~.OXOX~.Q.Q.Q.Q.Q.Q.Q.Q.Q."
};
