/* XPM */
static char *result[] = {
/* columns rows colors chars-per-pixel */
"50 50 219 2 ",
"   c #030304",
".  c #0D0B0B",
"X  c #0A0608",
"o  c #150C0A",
"O  c #121112",
"+  c #191919",
"@  c #110F16",
"#  c #2A1815",
"$  c #391A19",
"%  c #38231E",
"&  c #25241E",
"*  c #171827",
"=  c #1D1D3A",
"-  c #291E2F",
";  c #1E2238",
":  c #3B2524",
">  c #24342E",
",  c #2B2C34",
"<  c #383737",
"1  c #2E2A2E",
"2  c #401D1C",
"3  c #54211E",
"4  c #44391E",
"5  c #461E22",
"6  c #492C29",
"7  c #5F2C2A",
"8  c #592729",
"9  c #4A342A",
"0  c #573B33",
"q  c #583130",
"w  c #612D2B",
"e  c #682F2C",
"r  c #642724",
"t  c #65302E",
"y  c #6C312E",
"u  c #72322F",
"i  c #693937",
"p  c #733630",
"a  c #7A3937",
"s  c #33443D",
"d  c #554826",
"f  c #5B502E",
"g  c #6E413F",
"h  c #74403E",
"j  c #635332",
"k  c #716035",
"l  c #313757",
"z  c #282A4B",
"x  c #2F3062",
"c  c #35356A",
"v  c #3B3B73",
"b  c #533858",
"n  c #553B5F",
"m  c #3B4443",
"M  c #3E554C",
"N  c #39475B",
"B  c #4B4A4B",
"V  c #41564E",
"C  c #575152",
"Z  c #4D5252",
"A  c #6F4341",
"S  c #714542",
"D  c #7A4D45",
"F  c #794946",
"G  c #7D514B",
"H  c #7C5545",
"J  c #7F5755",
"K  c #7B5854",
"L  c #664C55",
"P  c #57615D",
"I  c #70695B",
"U  c #445869",
"Y  c #4E456C",
"T  c #655879",
"R  c #7D5E65",
"E  c #546E6B",
"W  c #767668",
"Q  c #797A78",
"!  c #766572",
"~  c #8A3935",
"^  c #863733",
"/  c #973D39",
"(  c #82322F",
")  c #A23F3B",
"_  c #9B433C",
"`  c #8C413F",
"'  c #A5413B",
"]  c #AE433E",
"[  c #A44F3E",
"{  c #B1453F",
"}  c #B2483F",
"|  c #8A723D",
" . c #8A3B42",
".. c #82554C",
"X. c #88584C",
"o. c #805755",
"O. c #865D59",
"+. c #945C58",
"@. c #954141",
"#. c #AF4E4C",
"$. c #AB4442",
"%. c #B64941",
"&. c #B75A44",
"*. c #B95245",
"=. c #AF5455",
"-. c #AF585A",
";. c #B55551",
":. c #8A644A",
">. c #986B5A",
",. c #90714B",
"<. c #A26D5B",
"1. c #A2755B",
"2. c #8B6867",
"3. c #997269",
"4. c #8F6E72",
"5. c #967272",
"6. c #996669",
"7. c #A97763",
"8. c #AB7B71",
"9. c #C85947",
"0. c #C65F52",
"q. c #D3624B",
"w. c #DA684E",
"e. c #D26C5B",
"r. c #E16E51",
"t. c #E37152",
"y. c #E2755A",
"u. c #E27A60",
"i. c #658879",
"p. c #6A8A7D",
"a. c #548772",
"s. c #9B8540",
"d. c #B1944E",
"f. c #B4846B",
"g. c #BA856C",
"h. c #AF876E",
"j. c #C5AB5A",
"k. c #C68E72",
"l. c #CB9275",
"z. c #C8977A",
"x. c #D39D7D",
"c. c #D3B762",
"v. c #CDAF62",
"b. c #E5CB67",
"n. c #787789",
"m. c #565689",
"M. c #967F83",
"N. c #AF7D8A",
"B. c #AF7884",
"V. c #6A9585",
"C. c #7E9C88",
"Z. c #42AE80",
"A. c #46B083",
"S. c #4FB388",
"D. c #54B68D",
"F. c #58B88F",
"G. c #5AB791",
"H. c #5DB992",
"J. c #73A18F",
"K. c #6DA891",
"L. c #76A391",
"P. c #79AC95",
"I. c #63BB96",
"U. c #66BC99",
"Y. c #6CBE9C",
"T. c #6DB394",
"R. c #7BB59D",
"E. c #74B89C",
"W. c #68A28A",
"Q. c #7CBDA2",
"!. c #77BDA1",
"~. c #6FBFA0",
"^. c #7091AC",
"/. c #6EC09F",
"(. c #70C09F",
"). c #6FC0A0",
"_. c #72C1A2",
"`. c #79C3A6",
"'. c #7DC5A9",
"]. c #8C918D",
"[. c #A78A89",
"{. c #A98B93",
"}. c #B29D9A",
"|. c #B29492",
" X c #88AA9A",
".X c #92A89B",
"XX c #A0A59C",
"oX c #9F9FA9",
"OX c #B09DB4",
"+X c #AC8FA1",
"@X c #88BCA5",
"#X c #83BBA3",
"$X c #9AB6A6",
"%X c #93A9A0",
"&X c #A7AAA2",
"*X c #B8ADA9",
"=X c #ABB5AB",
"-X c #A3B5A7",
";X c #B1B1BC",
":X c #B4AFB3",
">X c #C98D8E",
",X c #D8A684",
"<X c #DCB387",
"1X c #C7A48D",
"2X c #E3B58E",
"3X c #E8BA91",
"4X c #D4ACB3",
"5X c #E4B9B6",
"6X c #84C6AD",
"7X c #85C8AE",
"8X c #8CC9B2",
"9X c #ACABC8",
"0X c #B0ABC7",
"qX c #B6B5CE",
"wX c #C4BACF",
"eX c #CBC6D4",
"rX c #D8D4E4",
"tX c #E2DBE9",
"yX c #E5E3F2",
/* pixels */
").).).)._.6X8X6X`.).).).).Y.I.I.Y.).)._.7X8X6X_._./.).).).).).).).).).).`.7X8X'._.~.Y.I.D.G.Y.Y.H.U.",
").).).)._.`.`.`.).).).).).H.A.A.H.~._._.`.`._._.).).).).).).).).).).).).).`.'.`._.~.Y.Y.U.U.Y.H.A.A.",
").).).).).)._.).).).).).).H.Z.Z.H.Y.Y.Y././.(./.).).).).).).).).).).).).).)._.).).).).).Y.).~.H.Z.Z.",
").).).).).).).).).).).).).U.G.G.U.Y.G.G.I./././.).).).).)././._.).`._._.).).).).).).).).~.~.~.U.G.G.",
").).).).).).).).).).).).!.Y.Y.Y.).(.I.H./././.(._.`._.'._._._._.~._._.).).).).).).).).`.`.`.~.Y.Y.).",
").).).).).).).).).).).)._.~.~.~.).$X$X$X-X-X=X=X=X=X=X=X=X=X=X=X=X=X!.).)._.).).).)._.'.7X'.`.~.).).",
"_._.).).).).).).).)././.)._.`.`.$X2.K K K K o.o.o.o.o.o.o.o.o.o.o.O.XX!.)._.).).).)._.'.8X7X`.~.`.).",
"7X`._.).).).).).).).).`.`.`.7X7X}.S e y u p p p p p p p p p p p y p [.Q._.).).).).).).`.'.'.`.`.7X7X",
"8X'._.).).).).).)._._._.`.6XXXW +./ _ &.&.&.&.&.&.&.&.&.&.&.&.&._ _ +.I .X#X_.).).)./._._._._.'.8X8X",
"6X`._.).).).).)._._._._.`.#X[.i ^ ] *.w.t.t.t.t.t.t.t.t.r.r.r.r.} } ~ e [.@X)._._.).).).).)._._.'.'.",
"_.).).).~.)._.Y./.(.(.E. XW +./ [ 9.w.r.t.t.t.t.t.t.t.t.t.t.t.t.q.q._ t [.@X).).Y./././.).).)._.`.`.",
").).).)._.~.Y.U.I./.(.R.5.7 @.-.0.r.t.t.t.t.t.t.t.t.t.t.t.t.t.t.t.r.[ y h.#X).U.I.U./.).).).).).Y.).",
").).).).).).Y.I.H.T.].i.G e 2.>X>Xy.t.t.t.t.t.t.t.t.t.t.t.t.t.t.t.t.} / -.p.L.T.D.H./.).).).).).).).",
").).).).)._.Y.U.I.P.2.i t e {.yX5Xy.t.t.t.t.t.t.t.t.t.t.t.t.t.t.r.r.9.} ~ y 3.P.H.I./.).).).).).).).",
").).).).)._._.T.i.i.M.4.S t {.yX5Xe.w.r.t.t.t.t.t.t.t.t.t.t.t.t.w.q.9.{ ^ e 2. X/.Y./.).).).).).).).",
").).).)._.`.6XV.< s :XeX4.i {.yX4X;.9.w.t.t.t.t.t.t.t.t.t.t.t.t.} { ] { ^ e 2. X_.).).).).).).).).).",
"/./././._.7X8XV.1 1 ;XrX5.a {.rX4X#.%.9.q.q.q.q.q.q.q.q.q.q.q.q.%.{ ] { ~ e 2..X`.(.(.(.).).).).~.~.",
"D.G././._.'.8XV.& 1 ;XtX>X$.B.qX{.#.] %.{ %.{ { { { { %.{ { %.] ] { ] ] ~ e 2. X(.(._.).).).).).).~.",
"Z.F././.)._._.i.1 , ;XtX>X=.N.OXN.#.] ] ] ] ] ] ] ] ] ] ] ] ] ] ] ] ' ' u 8 2. X_.)._./.).).).).).).",
"A.G./.I././.).i.1 , 9XtXwXOXB.=.#.$.] ] ] ] ] ] ] ] ] ] ] ] ] ] $.] ~ p 2 o C J./._._./.).).).).).).",
"I.Y.U.G.D.H./.V.m B oXwXqX9X{.#.=.=.=.$.] ] ] ] ] ] ] ] ] ] ) ) ' ' a t $   B J.)._._._._./.).).).).",
").)./.H.F.I./.(.(.K.Z < n.9X0XOXOXOXN.=.] ] ] ] ] ] ] ] ] ] ( y y y p i % . B J.)._._._.`.`._.).).).",
"_.).).Y./.I./._._.W.m + n.9X9X9X0X0X+X=.] ] ] ] ] ] ] ] $.) u w 7 w i g : . B K.)._.`.'.8X7X`.).).).",
"`._.).)./.I././.).)._.E.[.R T m.T L F u u u u u u u u u u u i i g i g S 2 . B L._._.`.6X8X7X`._.`.`.",
"8X`._.).U.G.F.H./._.'.#X[.A n v b q 7 7 w t w w w w r 7 7 t i A g S g S : . B V.Y.)._._.`.`._.'.8X8X",
"8X'._.).U.D.Z.F.(._._.#X[.S O.5.3.<...% % h <.<.<.+.a X.f.g.8.7...g 6 # L ]. XI.U.).).).).)._.`.8X8X",
"`._._.).Y.I.H.U././.`.#X[.S 1.k.k.l.:.# # ,.k.k.k.7...>.<X2Xx.k.X.g %   Q E.U.Y.).).).).).).)._.`.`.",
"_.).).)._.~.Y.Y.Y.Y./._.R.}.[.>.8.,Xh.0 0 f.,Xx.k.8.<.8.3X3Xx.k.0 : C Q  X`.`.(.Y.Y.).).).).).).)._.",
").).).).).).Y.I.F.H.Y.)._.#X}.D 7.2X1XH ..z.3X,Xl.l.k.x.3X3Xx.l.% o Q R._.(.(.I.G.I.).).).).).).).).",
").).).).).).Y.I.F.G.Y.)._._.R.}.[.g.h.<.7.z.,Xx.l.l.l.l.g.h.7.<.j d I Q T._./.H.D.H.Y.).).).).).).).",
").).).).).)./.Y.I.U.Y.)._._.(.@X*XO.X.g.l.l.x.z.l.l.k.8...D D D s.s.f & p.@X_.Y.U.U.Y.).).).).).).).",
").).).~._._._._._.Y.).~._._._._.:XG D <.7.7.1.>.:.>.5.2.L L H :.d.j.| d W ].R._.).).).Y.Y.Y.~.).).).",
").).).)._.'.7X'._._.).).)._.).).*Xg i F J G F 6 # , Y Y Y Y ,.d.c.b.c.c.,.s P P.(.(./.H.H.H./.(.~.~.",
").).).)._.6X8X7X_.).).).).~.U.Y.*Xg t a F ` h : * = v v T ! h.j.v.v.c.c.k o Z J.(.(./.H.F.F././.U.I.",
").).).)._.`.6X`._.~.).).Y.U.D.G.*Xg u / / ' @.g x x v m.|.1X<X<X1.:.:.:.9 . B L.`.(.(./.H.I./.F.S.S.",
").).).).)._._._._._.).).~.I.S.D.*X0 r ( / ) $.b x x v n.<X3X3X2XO.A S k 6 . B L.(.(.(././././.F.Z.Z.",
").).).).).).).).).).).).).Y.U.H.XX- # $ 3 ~ / q * = c T 1Xx.x.x.X.F X.| d o B L._.).)././././.I.D.D.",
").).).).).).).).).).).).).).). X].*     o r ( 6 * = l Y 1.7.g.f.G S | | j < E E.).).)._._._././.U.Y.",
").).).).).).).).).).).)._.~.L.P b z = X X # $ B T N * - 9 0 G >.D S 0 4 I E T._.).)._.`.6X'._._.~._.",
"_._.).).).).).).).).).).).~.Q X * x z o X X @ U ^.U X     o 6 i g 0 : + h.Y.)._.).)._.'.8X7X`._._.~.",
"'.`._.).).).).).).).).)._.!.Q X @ = - 5 5 - = l U z       X $ : : : C P  X!._._._.)._.`.7X6X_.`.6X'.",
"8X`._.).).).).).).).).)._.!.C.O X   # (  .b x , O O . O . . O O o O ].#X!./._.`.`.).)._._._._.`.8X8X",
"7X`._.).).).).).).).).).).`.].Z m X o 3 8 , z l M M M M M M V V V V  XQ.~.~._.Y.)./.).).).)._.`.7X7X",
"`._.).).).).).).Y.~.).).)._.`.'..X& X       # E (./.).).).)._._.`._.)._._.~._.Y././.).).).).)._.`._.",
").).).).).).~.U.I.U.Y.).)._.).'.%Xm > > > > s a././.(._._._._.)._._.).).).).Y.Y.U.U.~.).).).).).).).",
").).).).).).Y.I.F.H.Y.).).).).).)._.)._.`.(./.H.H./.(.`._.).).).).).).).).).Y.H.F.H.Y.).).).).).).).",
").).).).).).~.H.F.H.Y.).).).).).).)./._.(./.F.F.H./.(.(.).).).).).).).)./.).Y.H.F.H.Y.).).).).).).).",
").).).).).).).Y.Y.Y.~.).).).).).).).).).(.(././././.(.(.).).).).).).).)./._./.Y.Y.Y.).).).).).).).).",
").).).)._.`.`._._.).).).).).).).).).).).`.`._._.).).Y.U.Y./.).).).).).)._.`.`._._.).).).).).).).).).",
").).).)._.6X8X7X_.).).).).).).).).).).`.7X8X6X_.).).H.F.F.U.).).).).).)._.7X8X6X_.~.).).).).).).).)."
};
