/* XPM */
static char *result[] = {
/* columns rows colors chars-per-pixel */
"50 50 203 2 ",
"   c #000000",
".  c #0C0A09",
"X  c #110B0A",
"o  c #190F0F",
"O  c #1D190D",
"+  c #16100E",
"@  c #0A0A12",
"#  c #1A1A1A",
"$  c #11171B",
"%  c #2B1918",
"&  c #391C1A",
"*  c #2B2519",
"=  c #111122",
"-  c #171E25",
";  c #292626",
":  c #372320",
">  c #272736",
",  c #333433",
"<  c #3B3B3D",
"1  c #45201F",
"2  c #442928",
"3  c #442827",
"4  c #5F2C2A",
"5  c #563433",
"6  c #632E2C",
"7  c #6D312E",
"8  c #62302E",
"9  c #70312E",
"0  c #78322F",
"q  c #643332",
"w  c #6B3E3C",
"e  c #663B39",
"r  c #743934",
"t  c #5F4731",
"y  c #6E403E",
"u  c #6D5536",
"i  c #2D2D5C",
"p  c #2D2D4A",
"a  c #363669",
"s  c #383974",
"d  c #2E2F60",
"f  c #4A3658",
"g  c #443C67",
"h  c #3D417A",
"j  c #4F4D4D",
"k  c #545856",
"l  c #534E4E",
"z  c #6F4341",
"x  c #6B4F4E",
"c  c #714542",
"v  c #734A49",
"b  c #764A46",
"n  c #7E514A",
"m  c #785443",
"M  c #7E5B5C",
"N  c #7E6A5F",
"B  c #7E634D",
"V  c #4C476A",
"C  c #5D537B",
"Z  c #514974",
"A  c #644C64",
"S  c #6C576D",
"D  c #566A62",
"F  c #636363",
"G  c gray43",
"H  c #7D6E67",
"J  c #76777A",
"K  c #64716B",
"L  c #8D3936",
"P  c #873A36",
"I  c #903A37",
"U  c #9C3E3A",
"Y  c #913733",
"T  c #9C4B3D",
"R  c #97433C",
"E  c #88403D",
"W  c #AF433E",
"Q  c #A6413C",
"!  c #B2453F",
"~  c #A4573E",
"^  c #93783D",
"/  c #8E763D",
"(  c #973E40",
")  c #894549",
"_  c #83544B",
"`  c #8A5C4B",
"'  c #895A53",
"]  c #9A4148",
"[  c #AF4E4D",
"{  c #A84643",
"}  c #B44A41",
"|  c #B84B42",
" . c #AF504F",
".. c #BA5149",
"X. c #AA585B",
"o. c #886344",
"O. c #84655B",
"+. c #9B6757",
"@. c #9D7456",
"#. c #937747",
"$. c #A16A57",
"%. c #A4765E",
"&. c #AA6743",
"*. c #976B67",
"=. c #86756E",
"-. c #9D7E7D",
";. c #8C6E6F",
":. c #AF646A",
">. c #AB7B63",
",. c #A97766",
"<. c #B17D68",
"1. c #B06D74",
"2. c #C35445",
"3. c #C95948",
"4. c #DB6A4F",
"5. c #DF6D50",
"6. c #CF6250",
"7. c #E06D50",
"8. c #E47152",
"9. c #998644",
"0. c #A48B46",
"q. c #AB9249",
"w. c #B29949",
"e. c #B2964E",
"r. c #BF9E5C",
"t. c #A88455",
"y. c #BEA450",
"u. c #99837F",
"i. c #8D877E",
"p. c #A78367",
"a. c #BD866C",
"s. c #B6836A",
"d. c #B88C73",
"f. c #BC9279",
"g. c #CBB55C",
"h. c #C38C72",
"j. c #CC9375",
"k. c #C79779",
"l. c #C99275",
"z. c #E6CB68",
"x. c #EDD36B",
"c. c #F2D86E",
"v. c #5F749F",
"b. c #515287",
"n. c #837C82",
"m. c #BB7F86",
"M. c #42AE80",
"N. c #55B78E",
"B. c #57B88F",
"V. c #5AB991",
"C. c #47B083",
"Z. c #61BA95",
"A. c #6BBE9B",
"S. c #67BE99",
"D. c #7A9DBB",
"F. c #7698B4",
"G. c #778D84",
"H. c #6FC09E",
"J. c #70C09F",
"K. c #6FC0A0",
"L. c #72C1A2",
"P. c #78C3A6",
"I. c #7DC5A9",
"U. c #838685",
"Y. c #9C9392",
"T. c #A78988",
"R. c #AB8B96",
"E. c #AF9695",
"W. c #B69F9E",
"Q. c #B095A9",
"!. c #B09CB2",
"~. c #B8A8B9",
"^. c #B2AEAF",
"/. c #95BAAB",
"(. c #E49F94",
"). c #D4A382",
"_. c #DAAB87",
"`. c #DDB08B",
"'. c #CEA181",
"]. c #E0AE89",
"[. c #E2B18B",
"{. c #E6BA93",
"}. c #E6A69B",
"|. c #C5B5B8",
" X c #D6B6BF",
".X c #CC8F92",
"XX c #84C9AE",
"oX c #82C7AC",
"OX c #8CC9B2",
"+X c #93CDB7",
"@X c #EEC297",
"#X c #B0ABC6",
"$X c #B0B0CD",
"%X c #AAAAC6",
"&X c #C8BDC8",
"*X c #C6BAC5",
"=X c #D7BFCA",
"-X c #B4CFC4",
";X c #D6CECC",
":X c #C8CDD5",
">X c #D1D1E6",
",X c #E3DAE7",
"<X c #E8E8F7",
/* pixels */
"K.K.K.K.K.K.K.L.P.P.L.K.K.K.K.K.K.K.K.K.L.L.P.P.L.L.K.K.K.K.K.K.K.K.K.K.K.L.P.P.L.K.K.H.S.S.A.K.K.K.",
"K.K.K.K.K.K.K.P.OXOXP.K.K.K.L.L.K.K.K.K.A.P.OXOXP.A.K.K.K.K.K.K.K.K.K.K.K.P.OXOXP.K.K.S.N.N.A.K.K.K.",
"K.K.K.K.K.K.K.P.OXOXP.K.K.K.K.A.Z.Z.A.K.J.I.OXOXP.K.K.K.K.K.K.K.K.K.J.J.K.P.OXOXP.K.K.S.N.N.S.A.Z.Z.",
"K.K.K.K.K.K.K.L.P.P.L.K.K.K.K.V.M.M.Z.K.A.J.P.P.L.L.K.K.K.K.K.K.K.H.L.J.K.L.P.P.L.K.L.A.S.S.K.Z.M.M.",
"K.K.K.K.K.K.K.K.K.K.K.K.K.K.H.S.M.V.Z.A.A.A.A.J.L.L.L.L.L.L.L.L.H.H.H.L.K.K.K.K.K.K.K.K.K.K.K.Z.M.M.",
"K.K.K.K.K.K.K.K.K.K.K.K.K.L.K.H.Z.=.=.=.=.=.=.=.=.=.=.=.=.=.=.=.=.=.i.H.P.L.L.K.K.K.K.K.K.K.K.A.Z.Z.",
"L.K.K.K.K.K.K.K.K.K.K.K.K.K.L.K.Y.6 4 4 4 4 4 6 4 4 4 4 4 4 4 4 4 4 y :XL.L.I.H.K.K.K.L.P.P.L.K.K.K.",
"P.K.K.K.K.K.K.K.K.K.K.K.L.L.|.Q.*.P P R T T T T T T T T T T T T T E E T.W.K.J.J.K.K.K.P.OXOXP.K.K.K.",
"P.L.P.P.L.K.K.K.K.K.K.K.K.P.' 4 L W | 5.8.8.8.8.8.8.8.8.8.8.8.8.4.! W 7 6 u.J.J.K.K.K.P.OXOXP.L.P.P.",
"L.P.OXOXP.K.K.K.K.K.K.L.;X;X' 7 R | 2.5.8.8.8.8.8.8.8.8.8.8.8.8.4...! 7 6 u.J.J.K.K.K.L.P.P.L.P.OXOX",
"K.P.OXOXP.K.K.K.K.L.P.|.q 4 U W 3.8.8.8.8.8.8.8.8.8.8.8.8.8.8.8.8.8.4.r 6 u.J.J.K.K.K.K.K.K.K.P.OXOX",
"K.L.P.P.L.K.K.K.K.H.oX|.q 4 {  .6.8.8.8.8.8.8.8.8.8.8.8.8.8.8.8.8.8.4.0 6 u.L.J.K.K.K.K.K.K.K.L.P.P.",
"K.K.K.K.K.K.K.K.P.W.w e 6 4 |.,X(.8.8.8.8.8.8.8.8.8.8.8.8.8.8.8.8.8.5.! { I e ;.P.S.K.K.K.K.K.K.K.K.",
"K.K.K.K.K.K.K.K.I.E.4 4 4 4 &X<X}.8.8.8.8.8.8.8.8.8.8.8.8.8.8.8.8.8.5.| W Y 4 M K.N.S.K.K.K.K.K.K.K.",
"K.K.K.K.K.K.L.G.< U.*XE.6 4 &X<X.X| 2.8.8.8.8.8.8.8.8.8.8.8.8.8.4.2.| ! W I 4 N V.N.S.K.K.K.K.K.K.K.",
"K.K.K.K.K.K.K.D   J <X~.q 4 &X<X.XW | 7.8.8.8.8.8.8.8.8.8.8.8.8.4.} W W W I 4 =.A.S.A.K.K.K.K.K.K.K.",
"K.K.K.K.K.K.K.k   J <X|.( L ~.>XT.! | 2.3.3.3.3.3.3.3.3.3.3.3.3.2.W W W W I 4 H L.K.K.K.K.K.K.K.K.K.",
"H.K.K.K.K.K.K.l   J <X=XW W Q.$X1.| W ! W W W W W W W W W W W W W W W W W I 4 O.oXK.K.K.K.K.K.K.K.K.",
"H.H.Z.Z.K.K.L.l   J <X=X:.:.R.Q.:.W W W W W W W W W W W W W W W W W W U U 0 1 x I.K.K.K.K.K.K.K.K.K.",
"H.V.M.M.V.K.P.k   v.<X>X$X$XX.W W ! W W W W W W W W W W W W W W W } Q 7 4 &   , P.K.K.K.K.K.K.K.K.K.",
"K.V.M.M.Z.A.K.K % v.;X:X$X$X:. .[ [  .W W W W W W W W W W W W Q Q Q U 9 q :   , P.K.K.K.K.K.K.K.K.K.",
"K.S.S.V.A.A.V.Z.P.=.. f %X$X$X#X#X#X!. .W W W W W W W W W W I 6 6 6 6 w c 2   , K.K.K.K.K.K.K.K.K.K.",
"L.K.K.K.K.S.N.V.Z.i.  < %X$X$X$X$X$X!. .W W W W W W W W W W I 4 6 4 6 w c 3   , L.K.K.L.P.P.L.K.K.K.",
"P.K.K.K.K.A.S.A.A.L.J.^.M M C b.A v v 9 9 9 9 9 9 9 9 9 9 9 9 w w w w y z 3   , I.L.K.P.OXOXP.K.K.K.",
"P.L.P.P.L.K.K.A.S.Z.A.L.b y g s f 4 4 4 6 6 6 6 4 4 6 6 6 6 q y c c z y z 2   , XXK.K.P.OXOXP.L.P.P.",
"L.P.OXOXP.K.L.V.M.M.Z.P.v y ;.;.+.$.` & % _ $.$.$.+.e w ,.<.,.,.$.y y : % l Y.M.L.L.K.L.P.P.L.P.OXOX",
"K.P.OXOXP.K.K.Z.M.M.Z.P.v y <.j.j.j.s.+ . $.j.j.l.<.v y `.@X].j.s.b e X   F S.S.P.P.K.K.K.K.K.P.OXOX",
"K.L.P.P.L.K.K.K.Z.Z.A.K.T.-.<.<.j.j.d.: % s.).j.l.h.' +.[.{.].j.s.5 5 j l A.H.S.H.H.K.K.K.K.K.L.P.P.",
"K.K.K.K.K.K.K.K.K.A.A.A.K.oX;.z d.@X`.n v ).@X_.j.j.j.j.{.@X].j.%.+ # L.L.L.L.A.S.S.H.H.K.K.K.K.K.K.",
"K.K.K.K.K.K.K.K.K.S.N.B.A.K.T.O.d.`.'.o._ ).{._.j.j.j.j._.`.k.h.$.* * L.L.P.L.S.N.N.S.K.K.K.K.K.K.K.",
"K.K.K.K.K.K.K.K.K.S.N.N.A.P.XXL.E.z n h.j.j.j.j.j.j.j.j._ c c c m q.0.%   F P.S.N.B.S.K.K.K.K.K.K.K.",
"K.K.K.K.L.K.K.K.K.K.A.A.A.K.K.K.E.z n h.j.j.j.j.j.j.j.j._ w c c u q.0.O   F I.I.I.S.A.K.K.K.K.K.K.K.",
"K.K.K.K.L.K.K.L.P.P.L.K.K.K.L.XXJ O % u n n _ A Z V r r y c o.0.e.z.z.g.g.9.; k P.K.K.P.S.S.A.K.K.K.",
"K.K.K.K.K.K.K.P.OXOXP.K.K.K.P.P.G   . e z z c g s g 6 6 w y o.w.g.z.c.x.c.9.  , I.L.H.H.B.B.S.K.K.K.",
"K.K.K.K.K.K.K.P.OXOXP.K.H.L.v.x N p.p.f.f.A g g s s g f ( ) &.w.y.x.z.t.@.t   , I.K.K.S.B.B.S.A.V.Z.",
"K.K.K.K.K.K.K.L.P.P.L.K.H.L.<   O.@X@X@X{.C s s s s s s ] W &.w.y.x.z.` c 2   , L.K.K.K.S.S.K.Z.M.M.",
"K.K.K.K.K.K.K.K.K.K.K.K.H.L.<   B `.[.[._.C s s s a p p ( Q { #.#.g.r.#.` 5   , L.K.K.K.K.K.K.Z.C.C.",
"K.K.K.K.K.K.K.K.K.K.K.K.H.L.<   m k.j.j.h.C s s s d     Y Q I 4 6 w b 0.w.u   , L.K.K.K.K.K.K.A.Z.V.",
"L.K.K.K.K.K.K.K.K.K.K.K.H.P.F , m ,.>.s.<.g d i i i - - ) X.) 5 q b m / ^ u , D P.K.K.L.P.P.L.K.K.K.",
"P.K.K.K.K.K.K.K.K.K.H.H.L.H.H.H.G   X e y o       = D.D.D.D.v.s V q.0.O   F H.L.K.K.K.P.OXOXP.K.K.K.",
"P.L.P.P.L.K.K.K.K.K.L.P.K.K.K.P.J . + q e +       $ F.F.D.F.v.s V 0.9.O   F L.K.K.K.K.P.OXOXP.K.P.P.",
"L.P.OXOXP.K.K.L.K.K.K.L.L.K.H.P.OX+XI.; .           $ - a b.h s s h V @   F H.L.K.K.K.L.P.P.L.P.OXOX",
"K.P.OXOXP.K.K.K.K.K.K.H.K.K.K.P.OXOXI.#                 d s s s s s a @   F L.H.K.K.K.K.K.K.K.P.OXOX",
"K.L.P.P.L.K.K.K.K.K.L.L.L.K.K.L.P.P.P.L.L.A.Z.Z.K.L.K./.> = = = = = > Y.^.P.P.L.K.K.K.K.K.K.K.L.P.P.",
"K.K.K.K.K.K.K.K.H.H.S.S.L.H.K.K.A.K.K.K.L.L.P.L.H.H.I.OX,           # -XP.K.L.H.A.S.K.K.K.K.K.K.K.K.",
"K.K.K.K.K.K.K.K.L.P.V.B.H.H.K.K.L.L.K.K.K.K.H.S.N.N.H.P.U.G G G G G J L.K.K.K.S.N.N.S.A.K.K.K.K.K.K.",
"K.K.K.K.K.K.J.H.J.H.B.B.H.K.K.K.K.K.K.K.K.K.L.S.N.B.H.H.L.L.P.P.P.I.P.I.K.K.L.A.Z.A.oXP.K.K.K.K.K.L.",
"K.K.K.K.K.K.K.L.J.A.S.Z.H.K.K.K.K.K.K.K.K.K.K.A.S.S.H.H.K.K.K.K.L.K.L.H.K.J.J.I.A.A.K.K.K.K.K.K.H.P.",
"A.K.K.K.K.K.K.L.P.P.L.K.K.K.K.K.K.K.K.K.K.L.P.P.K.K.K.K.S.A.A.K.H.K.H.K.K.L.P.P.L.K.K.K.K.K.H.K.K.XX",
"S.K.K.K.I.K.K.P.OXOXP.K.K.K.K.K.K.K.K.K.K.P.OXOXP.K.K.S.N.N.S.K.K.K.L.K.K.P.OXOXP.K.K.K.K.K.L.K.K.I."
};
