/* XPM */
static char *result[] = {
/* columns rows colors chars-per-pixel */
"50 50 200 2 ",
"   c #000000",
".  c #0C0A09",
"X  c #110B0A",
"o  c #190F0F",
"O  c #1D190D",
"+  c #16100E",
"@  c #0A0A12",
"#  c #1A1A1A",
"$  c #11171B",
"%  c #2B1918",
"&  c #391C1A",
"*  c #2B2519",
"=  c #111122",
"-  c #171E25",
";  c #292626",
":  c #372320",
">  c #272736",
",  c #333433",
"<  c #3B3B3D",
"1  c #45201F",
"2  c #442928",
"3  c #442827",
"4  c #5F2C2A",
"5  c #563433",
"6  c #632E2C",
"7  c #6D312E",
"8  c #62302E",
"9  c #70312E",
"0  c #78322F",
"q  c #643332",
"w  c #6B3E3C",
"e  c #663B39",
"r  c #743934",
"t  c #5F4731",
"y  c #6E403E",
"u  c #6D5536",
"i  c #2D2D5C",
"p  c #2D2D4A",
"a  c #363669",
"s  c #383974",
"d  c #2E2F60",
"f  c #4A3658",
"g  c #443C67",
"h  c #3D417A",
"j  c #4F4D4D",
"k  c #545856",
"l  c #534E4E",
"z  c #6F4341",
"x  c #6B4F4E",
"c  c #714542",
"v  c #734A49",
"b  c #764A46",
"n  c #7E514A",
"m  c #785443",
"M  c #7E5B5C",
"N  c #7E6956",
"B  c #4C476A",
"V  c #5D537B",
"C  c #514974",
"Z  c #644C64",
"A  c #6C576D",
"S  c #556960",
"D  c #636363",
"F  c gray43",
"G  c #7D6B65",
"H  c #76777A",
"J  c #65716C",
"K  c #8D3936",
"L  c #873A36",
"P  c #903A37",
"I  c #9C3E3A",
"U  c #913733",
"Y  c #9C4B3D",
"T  c #97433C",
"R  c #88403D",
"E  c #AF433E",
"W  c #A6413C",
"Q  c #B2453F",
"!  c #A4573E",
"~  c #93783D",
"^  c #8E763D",
"/  c #973E40",
"(  c #894549",
")  c #83544B",
"_  c #8A5C4B",
"`  c #895A53",
"'  c #9A4148",
"]  c #AC4B49",
"[  c #B44A41",
"{  c #B84B42",
"}  c #AF504F",
"|  c #BA5149",
" . c #AA585B",
".. c #886344",
"X. c #84655B",
"o. c #9B6757",
"O. c #9D7456",
"+. c #937747",
"@. c #A16A57",
"#. c #A4765E",
"$. c #AA6743",
"%. c #976B67",
"&. c #86756E",
"*. c #9D7E7D",
"=. c #8C6E6F",
"-. c #AF646A",
";. c #AB7B63",
":. c #A97766",
">. c #B17D68",
",. c #B06D74",
"<. c #C35445",
"1. c #C95948",
"2. c #DB6A4F",
"3. c #DF6D50",
"4. c #CF6250",
"5. c #E06D50",
"6. c #E47152",
"7. c #998644",
"8. c #A48B46",
"9. c #AB9249",
"0. c #B29949",
"q. c #B2964E",
"w. c #BF9E5C",
"e. c #A88455",
"r. c #BEA450",
"t. c #99837F",
"y. c #8D877E",
"u. c #A78367",
"i. c #BD866C",
"p. c #B6836A",
"a. c #B88C73",
"s. c #BC9279",
"d. c #CBB55C",
"f. c #C38C72",
"g. c #CC9375",
"h. c #C79779",
"j. c #C99275",
"k. c #E6CB68",
"l. c #EDD36B",
"z. c #F2D86E",
"x. c #5F749F",
"c. c #515287",
"v. c #837C82",
"b. c #BB7F86",
"n. c #708B80",
"m. c #43AE80",
"M. c #55B78E",
"N. c #57B88F",
"B. c #5AB991",
"V. c #61BA95",
"C. c #6BBE9B",
"Z. c #67BE99",
"A. c #7A9DBB",
"S. c #7698B4",
"D. c #6FC09F",
"F. c #71C19F",
"G. c #6FC0A0",
"H. c #72C1A2",
"J. c #78C3A6",
"K. c #7DC5A9",
"L. c #838685",
"P. c #9C9392",
"I. c #A78988",
"U. c #AB8B96",
"Y. c #AF9695",
"T. c #B69F9E",
"R. c #B095A9",
"E. c #B09CB2",
"W. c #B8A8B9",
"Q. c #B2AEAF",
"!. c #95BAAB",
"~. c #E49F94",
"^. c #D4A382",
"/. c #DAAB87",
"(. c #DDB08B",
"). c #CEA181",
"_. c #E0AE89",
"`. c #E2B18B",
"'. c #E6BA93",
"]. c #E6A69B",
"[. c #C5B5B8",
"{. c #D6B6BF",
"}. c #CC8F92",
"|. c #84C9AE",
" X c #81C7AB",
".X c #8CC9B2",
"XX c #91CFB7",
"oX c #EEC297",
"OX c #B0ABC6",
"+X c #B0B0CD",
"@X c #AAAAC6",
"#X c #C8BDC8",
"$X c #C6BAC5",
"%X c #D7BFCA",
"&X c #B3CFC4",
"*X c #D6CECC",
"=X c #C8CDD5",
"-X c #D1D1E6",
";X c #E3DAE7",
":X c #E8E8F7",
/* pixels */
"G.G.G.G.G.G.G.H.J.J.H.G.G.G.G.G.G.G.G.G.G.H.J.J.H.G.G.G.G.G.G.G.G.G.G.G.G.H.J.J.H.G.G.D.Z.C.C.G.G.G.",
"G.G.G.G.G.G.G.J..X.XJ.G.G.G.G.D.G.G.G.G.G.J..X.XJ.G.G.G.G.G.G.G.G.G.G.G.G.J..X.XJ.G.D.D.M.M.C.D.G.G.",
"G.G.G.G.G.G.G.J..X.XJ.G.G.G.G.D.V.V.D.D.G.J..X.XJ.G.G.G.G.G.G.G.G.G.G.G.G.J..X.XH.D.D.D.M.M.Z.D.B.V.",
"G.G.G.G.G.G.G.H.J.J.H.G.G.G.G.V.m.m.B.D.G.H.J.J.H.G.G.G.G.G.G.G.G.G.G.G.G.H.J.J.G.D.D.D.C.Z.C.Z.m.m.",
"G.G.G.G.G.G.G.G.D.G.G.H.F.D.D.V.m.m.Z.D.C.C.G.H.F.F.F.F.G.H.K.J.J.D.D.G.G.G.G.G.G.G.G.G.G.G.G.B.m.m.",
"G.G.G.G.G.G.G.G.D.H.H.H.D.y.&.&.&.&.&.&.G &.&.&.&.&.&.&.&.&.&.G.G.G.G.G.G.G.G.G.G.G.G.G.G.G.G.D.V.V.",
"H.G.G.G.G.G.G.G.D.K.F.F.=Xy 4 4 6 4 4 4 8 4 4 4 6 4 4 4 4 4 8 P.D.D.H.D.G.G.G.G.G.G.G.G.J.J.H.G.G.G.",
"J.G.G.G.G.G.G.G.D.F.F.T.Y.R L Y Y Y Y Y Y Y Y Y Y Y Y Y T L L %.T.[.H.H.G.G.G.G.G.G.G.J..X.XJ.G.G.G.",
"J.H.J.J.H.G.G.G.G.H.*.4 7 W Q 2.6.6.6.6.6.6.6.6.6.6.6.6.2.{ Q K 6 ` J.H.H.G.G.G.G.G.G.J..X.XJ.H.J.J.",
"H.J..X.XJ.G.G.G.G.G.t.4 7 Q <.3.6.6.6.6.6.6.6.6.6.6.6.6.5.<.{ T 0 ` *X*XH.G.G.G.G.G.G.H.J.J.H.J..X.X",
"G.J..X.XJ.G.G.G.H.C.t.6 r 2.6.6.6.6.6.6.6.6.6.6.6.6.6.6.6.6.6.1.E I 4 q W.J.H.G.G.G.G.G.G.G.G.J..X.X",
"G.H.J.J.H.G.G.G.G.J.t.6 0 2.6.6.6.6.6.6.6.6.6.6.6.6.6.6.6.6.6.4.} ' 4 q [.|.H.D.G.G.G.G.G.G.G.H.J.J.",
"G.G.G.G.G.G.G.K.&.w T W [ 3.6.6.6.6.6.6.6.6.6.6.6.6.6.6.6.6.6.~.;X[.4 6 e y T. XC.Z.C.G.G.G.G.G.G.G.",
"G.G.G.G.G.G.G.|.M 6 P E [ 3.6.6.6.6.6.6.6.6.6.6.6.6.6.6.6.6.6.].:X#X4 4 6 6 Y.F.N.N.C.G.G.G.G.G.G.G.",
"G.G.G.G.G.G.G.J.M 4 K Q [ { | 3.6.6.6.6.6.6.6.6.6.6.6.6.6.<.<.}.:X#X6 8 I.*Xv.p n.N.C.D.G.G.G.G.G.G.",
"G.G.G.G.G.G.G.H.G 8 K E E E Q 2.6.6.6.6.6.6.6.6.6.6.6.6.5.Q E }.:X$X4 8 Q.:XH   S C.C.D.G.G.G.G.G.G.",
"C.G.G.G.G.G.G.J.G 4 U E E E E <.1.1.1.1.1.1.1.1.1.1.1.1.<.Q Q b.-XW.K K $X:X&.  k F.F.H.G.G.G.G.G.G.",
"C.G.G.H.G.G.G. XX.4 U E E E E E E E E E E E E E E E E E E E [ ,.+XR.E [ %X:Xx.  l H.G.D.G.G.G.G.G.G.",
"C.C.V.V.C.G.G.K.x 1 0 I I E E E E E E E E E Q E E E E E E E E -.R.U.-.-.%X:XF   k H.G.G.G.G.G.G.G.G.",
"C.V.m.m.B.G.G.J.,   & 6 7 W E E E E E E E E E E E E E E E E E [ [  .+X+X-X:XH   k H.G.G.G.G.G.G.G.G.",
"G.B.m.m.V.C.C.C.,   & 8 7 I ] W W E E Q E E E E E E E E [ ] } } } -.+X+X=X=XH # J H.G.G.G.G.G.G.G.G.",
"G.G.V.V.C.C.M.N.,   2 z w 8 6 6 6 K E E E E E E E E E E ] E.OXOXOXOX+X@Xf @ v.K.J.G.G.G.G.G.G.G.G.G.",
"H.G.H.G.G.C.N.B.,   2 c w 6 4 4 6 K Q E E E E E E E E E } E.+X+X+X+X+X@X,   v.G.H.G.G.H.J.J.H.G.G.G.",
"J.G.G.G.G.C.C.J.,   2 z c w w w w 7 9 9 9 9 9 9 9 9 9 9 9 z x Z c.V M M Q.C.H.G.H.G.G.J..X.XJ.G.G.G.",
"J.H.J.J.H.G.G.|.,   2 c c c c z z q 4 4 4 6 4 4 8 4 6 6 4 6 6 f s g v v J.C.V.C.G.G.G.J..X.XJ.H.J.J.",
"H.J..X.XJ.G.J.G.m.P.l * : w b o.:.p.p.:.e q o.@.o.-.) % % _ @.o.=.X.z v J.V.m.m.V.G.G.H.J.J.H.J..X.X",
"G.J..X.XJ.G.J.J.D.B.D   X w b i.g./.oX(.y c f.g.j.g.#.. + p.g.g.g.i.y x H.V.m.m.V.G.G.G.G.G.G.J..X.X",
"G.H.J.J.G.G.G.C.Z.D.D.j j 2 5 p.g.(.oX`._ ` f.g.h.^.p.% : j.g.j.>.:.t.I.H.C.V.V.C.G.G.G.G.G.G.G.J.J.",
"G.G.G.G.G.G.G.G.D.D.D.F.C.O X #.g._.oX'.g.g.g.g.(.oX^.v m (.oXa.z =.K.H.H.G.G.C.Z.Z.C.G.G.G.G.G.G.G.",
"G.G.G.G.G.G.G.G.D.D.B.N.C.* * #.f.h././.g.g.g.g.^.'.^.) _ ).(.a.M b.H.H.H.G.G.Z.N.M.C.G.G.G.G.G.G.G.",
"G.G.G.G.G.G.G.G.F.F.D   % 7.9.) c c c ) g.g.g.g.g.g.g.g.i.n z Y.H.|.H.G.G.G.G.C.M.M.Z.G.G.G.G.G.G.G.",
"G.G.G.G.G.G.H.K. XK.D   O 8.9.m y c y ) g.g.g.g.g.g.g.g.f.n z Y.G.H.G.G.H.H.G.C.C.Z.G.H.G.G.G.G.G.G.",
"G.G.G.G.J.G.H.J.k , +.d.d.k.k.9.8...c y r r B C Z ) ) ( u # X H |.H.F.C.G.H.J.J.H.G.G.G.C.C.C.D.G.G.",
"G.G.G.H.H.G.H.J.,   7.z.z.z.l.r.0...c w 4 8 a s f c z c y X   F K.J.H.H.G.J..X.XJ.G.G.C.M.M.C.G.G.C.",
"G.G.G.G.G.G.H.J.,   t O.e.k.l.r.0.$.T ( g f s s g B Z s.s.u.u.N k H H.D.G.J..X.XJ.G.G.C.M.M.Z.C.V.V.",
"G.G.G.G.G.G.G.J.,   2 z ..k.l.r.0.$.E ' s s s s s s V '.oXoXoXX.  < H.G.G.H.J.J.H.G.G.C.C.C.C.V.m.m.",
"G.G.G.G.G.G.G.H.,   t ....r.w.+.+.] E P p p s s s s V /._._.`.N   < H.H.G.G.G.G.G.G.G.G.D.G.G.V.m.m.",
"G.G.G.G.G.G.G.H.,   u 0.9.b z q 4 K E K     d s s s V f.g.g.h.m   < H.G.G.G.G.G.G.G.G.G.G.G.G.C.V.V.",
"H.G.G.G.G.G.G.H.k , u ~ +.m m e 5 (  .( - - i i d d B >.i.:.#.m , D H.G.G.G.G.G.G.G.G.H.J.J.H.G.G.G.",
"J.G.G.G.G.G.G.H.H.F.D   O 8.9.B s x.A.A.A.A.$       o e e .   F F.F.H.D.G.G.G.G.G.G.G.J..X.XJ.G.G.G.",
"J.H.J.J.H.G.G.G.H.H.D   O 7.9.B s x.A.A.A.S.$       o e e + . H K.J.H.G.K.H.G.G.G.G.G.J..X.XJ.H.J.J.",
"H.J..X.XJ.G.G.G.H.G.D   @ B B s s h h h $ $           X ; K.J.J..X.XJ.G.H.G.G.G.G.G.G.H.J.J.H.J..X.X",
"G.J..X.XJ.G.G.G.D.G.D   @ d s s s s s d                 # G.G.J..X.XJ.G.C.G.G.G.G.G.G.G.G.G.G.J..X.X",
"G.H.J.J.H.G.G.G.G.K.J.Q.P.> = = = = = , !.C.V.V.C.H.G.C.G.J.H.H.J.J.H.J.H.H.G.H.G.G.G.G.G.G.G.H.J.J.",
"G.G.G.G.G.G.G.G.C.G.Z.F.&X$           , XXK.H.H.C.C.H.H.G.G.G.C.G.G.G.H.H.G.G.G.Z.Z.C.G.G.G.G.G.G.G.",
"G.G.G.G.G.G.G.G.H.C.M.M.G.n.F F F F F L.J.G.G.C.B.M.C.H.G.G.H.H.G.G.G.G.G.H.K.C.M.N.C.G.G.G.G.G.G.G.",
"G.G.G.G.J. X XJ.H.C.M.M.H.J.K.J.J.H.H.H.H.H.H.C.N.M.C.C.G.G.G.G.G.G.G.G.H.H.H.C.M.M.Z.G.G.G.G.G.G.G.",
"G.G.G.G.G.H.H.J.J.C.C.Z.G.H.H.H.G.H.G.G.G.G.G.C.C.C.C.G.G.G.G.G.G.G.G.G.G.G.G.C.Z.Z.G.G.G.G.G.G.G.G.",
"G.G.G.G.G.G.G.H.J.J.H.G.G.G.G.G.G.G.G.G.G.H.J.J.H.G.G.C.C.C.C.H.G.G.G.G.G.H.J.J.H.G.G.G.G.G.G.G.G.G.",
"Z.G.G.G.G.G.G.J..X.XJ.H.G.G.G.H.G.G.G.G.G.J..X.XJ.G.G.C.M.M.C.C.G.G.G.G.G.J..X.XJ.G.G.K.G.G.G.G.G.G."
};
