/* XPM */
static char *result[] = {
/* columns rows colors chars-per-pixel */
"50 50 206 2 ",
"   c #3F3A2C",
".  c #3E3E25",
"X  c #3F3730",
"o  c #423E2E",
"O  c #443B34",
"+  c #384F04",
"@  c #394C0A",
"#  c #395206",
"$  c #395509",
"%  c #3A5B0D",
"&  c #375309",
"*  c #3A4911",
"=  c #3C441B",
"-  c #3C5C12",
";  c #375D17",
":  c #386212",
">  c #396816",
",  c #386C1A",
"<  c #35691C",
"1  c #39711D",
"2  c #3E4230",
"3  c #3D4120",
"4  c #2E6B27",
"5  c #366E29",
"6  c #397521",
"7  c #387B24",
"8  c #387F28",
"9  c #277B3A",
"0  c #2F7028",
"q  c #415C0E",
"w  c #415E10",
"e  c #405816",
"r  c #446213",
"t  c #42621D",
"y  c #4A6B1A",
"u  c #466B19",
"i  c #45711E",
"p  c #51731E",
"a  c #466B29",
"s  c #4B7824",
"d  c #487627",
"f  c #547C29",
"g  c #567B26",
"h  c #4B7539",
"j  c #564C44",
"k  c #5F534C",
"l  c #60594C",
"z  c #61554E",
"x  c #635453",
"c  c #685857",
"v  c #635E52",
"b  c #4F7E45",
"n  c #507143",
"m  c #616051",
"M  c #38842B",
"N  c #38882E",
"B  c #3D8C32",
"V  c #3E8E39",
"C  c #348934",
"Z  c #39903D",
"A  c #47852C",
"S  c #55832B",
"D  c #5E852C",
"F  c #418D32",
"G  c #4A8E32",
"H  c #43873C",
"J  c #5D8A34",
"K  c #5B8B34",
"L  c #449136",
"P  c #469538",
"I  c #4A963A",
"U  c #4D9B3D",
"Y  c #489036",
"T  c #55973B",
"R  c #60872E",
"E  c #638F35",
"W  c #618F39",
"Q  c #63933A",
"!  c #69983A",
"~  c #1F8F54",
"^  c #1E9B5E",
"/  c #2C8E42",
"(  c #21884B",
")  c #2B9247",
"_  c #259651",
"`  c #229857",
"'  c #39944D",
"]  c #1B9D63",
"[  c #189F68",
"{  c #3D9861",
"}  c #1DA16B",
"|  c #26A16A",
" . c #3AA469",
".. c #26A571",
"X. c #2FA976",
"o. c #2BA674",
"O. c #34AA7A",
"+. c #3BAE7E",
"@. c #30A977",
"#. c #4E8548",
"$. c #528246",
"%. c #429242",
"&. c #499849",
"*. c #559E41",
"=. c #599C41",
"-. c #4A9B54",
";. c #4F9A5A",
":. c #509F51",
">. c #4F8D57",
",. c #689A41",
"<. c #639943",
"1. c #53A142",
"2. c #5BA345",
"3. c #5EAC48",
"4. c #5EA847",
"5. c #53A05F",
"6. c #49A05E",
"7. c #6CA246",
"8. c #6CA549",
"9. c #65AB4C",
"0. c #69AD4F",
"q. c #64A546",
"w. c #70A74B",
"e. c #71A94C",
"r. c #72A644",
"t. c #65B24D",
"y. c #67AC52",
"u. c #73AE51",
"i. c #6DB152",
"p. c #6FBA52",
"a. c #74B454",
"s. c #72BD55",
"d. c #76B958",
"f. c #7CBC5C",
"g. c #79B556",
"h. c #7DB24E",
"j. c #5C9869",
"k. c #5A9965",
"l. c #5E9F71",
"z. c #619F6B",
"x. c #55A66B",
"c. c #49AA7A",
"v. c #58A971",
"b. c #5AAD7A",
"n. c #5FB07F",
"m. c #62A57B",
"M. c #61B17E",
"N. c #74C057",
"B. c #76C159",
"V. c #7BC25C",
"C. c #83BE59",
"Z. c #87C057",
"A. c #80C05F",
"S. c #81CB5E",
"D. c #8CC55B",
"F. c #90CB5F",
"G. c #84C562",
"H. c #85CC63",
"J. c #89CC64",
"K. c #92CF62",
"L. c #8BD467",
"P. c #91D56B",
"I. c #95DB6D",
"U. c #9CDE6D",
"Y. c #95D365",
"T. c #9ADE70",
"R. c #97E06F",
"E. c #9FE16F",
"W. c #9DE573",
"Q. c #9FE874",
"!. c #A0E675",
"~. c #A4EA76",
"^. c #A6ED79",
"/. c #A8EF7B",
"(. c #AEF67E",
"). c #3DAE80",
"_. c #45B184",
"`. c #49B287",
"'. c #4DB48A",
"]. c #52B68D",
"[. c #5BB488",
"{. c #56B790",
"}. c #5CBA94",
"|. c #58B791",
" X c #41AF82",
".X c #65AC83",
"XX c #67AF88",
"oX c #62B385",
"OX c #66B58C",
"+X c #68B48E",
"@X c #6AB692",
"#X c #61BB97",
"$X c #6ABA95",
"%X c #65BC99",
"&X c #6CBE9D",
"*X c #6EC09F",
"=X c #6FC0A0",
"-X c #73C1A3",
";X c #79C3A7",
":X c #7CC4A8",
">X c #82C6AD",
",X c #86C8AF",
"<X c #8CC9B2",
"1X c #95CDB9",
"2X c #9CCFBE",
"3X c #A0D0C0",
/* pixels */
"&X].#X=X=X=X=X=X*X*X=X=X=X=X=X=X=X=X=X=X=X=X=X&X&X-X*X{.|.=X=X=X=X=X=X=X=X=X=X=X=X=X=X=X=X=X=X=X=X=X",
"*X#X&X*X`.'.=X=X-X*X=X=X=X=X=X=X=X=X=X=X=X=X&.%.%.v.=X%X%X=X]._.=X=X=X=X=X=X=X=X=X=X=X=X=X=X=X=X=X=X",
"*X*X*X*X}.}.=X=X*X*X:X<X;X*X*X*X*X*X=X=Xv.n V.V.S.y.b @X=X=X#X}.=X=X=X=X-X<X:X=X=X=X=X=X=X=X=X=X=X=X",
"-X;X-X*X=X&X}.&X*X*X:X1X:X*X;X;X*X*X*XoX#.% W.(.(.r.- l.XX=X=X=X}.#X=X=X-X1X,X=X;X;X=X=X=X=X=X=X=X=X",
"-X3X:X=X=X}.} ].*X*X*X*X*X-X2X,X$X&X.Xr 1 N W.(.(.p.N > d &X&X$X| O.=X=X=X=X=X*X1X1X=X=X=X=X=X=X=X=X",
"-X-X-X=X=X=X%X=X*X*X*X*X*X*X-XM.V V U E.p.N W.(.D.3.N U.L.H V V $X&X=X=X=X=X=X*X-X-X=X=X=X=X=X=X=X=X",
"=X=X=X=X=X=X=X}.'.*X*X*X*X*XU t.L.U I (.s.N Q.~.Z.3.F Q.Y.A N.L.-.6.'.}.=X=X*X*X=X=X=X=X=X=X&X'.}.=X",
"=X=X=X=X=X=X=X}.].*X*X*XM.M.N 3.L.3.1.Z.a.3.~.(.S.3.U U.S.M Y.1XF /  .v.oX*X*X*X=X=X=X=X=X=X&X'.#X=X",
"=X=X=X=X-X&X;X-X=X=X&X$X1.P P G P p.h.% r.(.(.(.V.Z.A.A.8.$ Z./.I P P P U OX&X*X=X=X=X=X=X-X-X=X=X=X",
"=X=X=X=X&X;X2X>X=X=Xn.B L./.<X(.(.J.s.A Z.(.(.(.A.V.A.A.a.M 0.S./.(.(./.Q.V 5.=X=X=X=X=X-X1X1X=X=X=X",
"=X=X=X=X=X-X;X-X=X=Xl.$ e.J.(.~.D.Q./.Q.~.(.(.(././.~.G.f.d.I.(.U t.(.I.V.: $.=XO.X.=X=X=X;X-X=X=X=X",
"=X=X=X=X=X=X=X&X*Xv.#.+ S E V.S.I.(.(.(.(.(.(.(.(.(.(.E.P.A.W.(.s.N.B.7.D $ d x. X_.=X#X|.*X=X=X=X=X",
"=X=X=X=X=X=X-X$XoX1.G p q # U s.(.W.W.(.(.(.(.(.(.(.(.(.^.J.I.W.(.R.U > # y S U M.OX-X}.`.*X*X*X=X=X",
"=X=X=X=X=X=X&X;.V Q.(.(.g # (.(.(.1.P (.(.(.(.(.(.(.(.(.(.(.3.N (.(.(.D r ^.(.(.U V *X-X=X*X*X*X=X=X",
"-X2X>X=X=X.X- C.(.(.!.G.T N (.L.B a.S.(.(.(.(.(.(.(.(.(.(.(.J.f.L 3.(.4.F C.I.(./.W.$ #.*Xo.o.=X=X=X",
"-X>X;X=X=X$Xj.$.E t.B.W.s.9.E K N H.!.(.~.Y.(.(.(.(.(.p.Z.1X~.W.N A E q.i.E.J.t.Q E j..X*X{.].-X=X=X",
"=X=X=X=X&X$Xj.$.f q.B.!.f.9.: , 6 e.D.(.L.0.~.(.1X(.(.I 1.(.K.C.6 , > T a.T.H.t.S f j..X*X*X*X}.&X=X",
"=X=X=X=X&Xm.# W f.^.W.V.I N B 7 # $ y ~.s.M W.(.(.(.~.G 1.(.R q # > N N B f.L./.H.a.# b &X*X%X).}.=X",
"=X=X*X*XL N N > & M N N N N V.V.A.A.h.# + + U.(.(.r.q q y A.C.Z.V.i.N N N N N N % $ N N B @X*X*X=X=X",
"=X=Xv.%.i.a.a.f + % S I.W.I.~.E.A.=.I w.e.e.g p p R r.r.q.Y i.V.~.Q.R.R.U.R.e.% # % i.a.i.&.;.*X=X=X",
"&X Xc.x.J W A.f $ ! Z.(.S.B.(.^.T.U L I.J.A.Q J J w.A.I.S.N V.I.(.W.N.W.(.(.Y.r.w % A.w.J k.v.*X=X=X",
"%X..c.XXy s A.J y K.E.U.3.U (.(.W.T G (.I.d.G.H.J.V.d.^.I.8 V.W.(.I.I S.U.U.U.U.g y f.! r m.+X=X=X=X",
"*X*Xb @ a.V.f.V.d.q # # D.(.(.H.N % r /.s.B Q.(.(.s.F E.F.+ 1 N (.(.(.D # # @ $ w.C.f.f.f.r > =X=X=X",
"=X*X$.@ B A q s L e.7.M i y (.Z.& + $ r K d./.(.(.P.a.p r + $ % (.F.r i M M T g.I F w d L $ e -X=X=X",
"+Xh e @ : u ,.q.i.f.f.i.A 5 D S 1 1 1 # ! E.(.(.(.(.E.r $ 1 6 6 D S 1 =.0.0.a.f.i.0.,.S - $ e =X=X=X",
"@Xa - + + r w.0.i.f.f.V.I B % , N N M % ! F.(.1X(.U.F.y > N N N - , N 0.G.V.G.f.a.i.7.D # @ t &X=X=X",
"&X@X$.q q q + 1 L f.f.d.I N V B B B N M u % Y.!.~.! $ 7 M N B B B B N 0.f.f.f.G.I B + # % q a @X&X=X",
"XX- W f.g.7.@ W f.V.i.B B N f.f.V.P M $ > M r w q 1 M % : N 9.f.f.0.N B B B *.f.f.u.+ g g.g.w.- j.*X",
"j.w.=.I Y L 7 i y G A % =.a.f.G.Z.s.8.$ , N 7.w.8.T N & u i.f.V.f.f.a.d : M 6 u G I 7 B I f.u.$ >.|.",
"z.Q A 6 M N N 1 > 1 > + 8.f.G.f.V.7.K : 6 N d.f.A.2.N > i Q a.G.G.C.V.s $ 1 , : 8 N N 7 6 K K 0 { '.",
"XX# % w F F N M 7 $ + + ,.u.C.f.u.y : M B F d.A.A.9.L M 6 $ Q u.A.f.h.y + + : M N N F d w $ ; } X.].",
"XX+ Q C.f.p.N > # + + + @ # S.! $ 7 7 # J f.A.G.V.f.f.r - N : # f.7.# # + + # @ 7 V A.V.f.: : ).|.=X",
"&X+Xb w e q $ 1 M 8 8 M 8 8 q $ + & % M 1 q a.V.G.K w 8 6 & & + % > M M M M M M % $ % : % -.c.%X*X=X",
"-X&Xm.>.>.b + 1 N N 8 > > , 1 , 1 & & > % + T 2.2.d # : : + : 1 1 , > > 1 N M M % & 9 9 9 | X.{.%X=X",
"&X>X:X&X=XXXa 6 7 7 , + % % N M 7 % + % % : 1 7 6 , % : % + , 7 N 7 % $ # 1 7 7 < 4 } [ [ [ } O.|.=X",
":X3X<X&X=X=X-Xb + + + + 7 N N 6 + + & N N N $ + + , N N 7 + + + N N N : + + + + ~ [ [ [ [ [ [ } '.*X",
"&X&X&X-X*X-X-Xb + M N N N N N 1 # 7 N N N N N N N N N N N N - + M N N N N N , + ~ [ [ [ [ [ [ [ X.].",
"&X-X-X&X=X&X&X;.6 : : % 8 M : > 6 : : N N N N N N N N N 8 - 1 6 : , N > : : 0 ( ^ [ [ [ [ ) ) [ } _.",
"-X&X-X-X=X$Xv.H , & + + > 1 + % 1 , < N N N N M 1 8 N N M < 7 N > > 1 % + + 4 _ ] [ [ ^ ` ) ) ` ^ +.",
"&X-X-X&X$XoXM : + + + + + + + + @ 6 8 M M N M 6 $ , N M M 8 N N N 6 & & + + : M ~ ] [ ` C ^ ^ C ` ).",
"=X*X=X=XV 7 + + + + + + + + + + + .   + > N $ e c n N $ @ X 5 N N N M : + + + + M C } [ [ [ [ [ X.].",
"%X..].=XV 7 + + + + + + + + + *     O k k m l l c v v l j O 2 2 M 7 % + + + + + 7 N } ~ C } [ [ `.*X",
"%X'.}.-XV 7 + + + + + + + + + @ =   O x v c c c c c c c k X . = < : + + + + + + M C } ] _ } } ..|.=X",
"=X=X*X*X&.V % & + + + + + + + + # 3 o k x l c c c x k x j   @ + + + + + + + & % M C [ [ } } ..).}.=X",
"-X-X=X=X-XOXB , & & & + + + + + + + + X   X k x x j   X . + + + + + + + & # > C ^ } } } } X._.*X=X=X",
"-X2X>X=X*X*X$X-.M M 1 + + + + + + + + @ @ @ o O O 3 @ @ @ + + + + + + 1 M M Z ] } } O.'.*X*X*X*X=X*X",
"-X:X-X=X=X=X=XOXb.n.k.6 6 6 6 , + + + + + + * * * + + + + + , 6 M 1 1 ) ` ` | X.`.].#X'.o.*X*Xo.|.-X",
"=X=X=X=X=X=X=X%X#X*X[.&.-.-.-.V : : : % : : : : % : : : : : M / Z ' ' | O.O.+.`.*X*X=X].X.#X*X} ].=X",
"=X=X=X=X=X=X=X}.'.*X=X=X=X=X=XoX;.-.;.-.-.-.-.-.-.-.-.-.-.-.O.O.'.'.].*X*X*X*X*X*X*X=X=X=X=X*X'.}.=X",
"=X=X=X=X=X=X=X=X=X=X=X=X=X=X=X=X*X*X=X*X&X=X=X=X=X=X=X=X=X=X=X=X*X*X*X*X*X*X*X*X*X*X=X=X=X=X=X=X=X=X"
};
