/* XPM */
static char *result[] = {
/* columns rows colors chars-per-pixel */
"50 50 203 2 ",
"   c #010101",
".  c #090704",
"X  c #0C0B06",
"o  c #0C0C0B",
"O  c #110E07",
"+  c #120F0A",
"@  c #14120B",
"#  c #19150D",
"$  c #1D180D",
"%  c #141413",
"&  c #1B1A16",
"*  c #1C1B1B",
"=  c #1C1710",
"-  c #231D0D",
";  c #251E12",
":  c #1A241C",
">  c #28220F",
",  c #252213",
"<  c #2A2311",
"1  c #23231C",
"2  c #362D17",
"3  c #3B3118",
"4  c #252524",
"5  c #2B2B2B",
"6  c #2B2B23",
"7  c #382E20",
"8  c #313126",
"9  c #3C3B2D",
"0  c #36392C",
"q  c #2C3D32",
"w  c #3B3C3B",
"e  c #363934",
"r  c #2E372B",
"t  c #493E1D",
"y  c #43391B",
"u  c #423F30",
"i  c #463C21",
"p  c #3A4738",
"a  c #4E411F",
"s  c #4B442C",
"d  c #5B4B25",
"f  c #4E4C3D",
"g  c #474839",
"h  c #544A35",
"j  c #585437",
"k  c #604F27",
"l  c #68562B",
"z  c #705D2D",
"x  c #604F34",
"c  c #63543C",
"v  c #6A5A3D",
"b  c #715D38",
"n  c #75622D",
"m  c #7C692F",
"M  c #69633D",
"N  c #7B6838",
"B  c #3F5342",
"V  c #4A4B49",
"C  c #434744",
"Z  c #504F4B",
"A  c #475548",
"S  c #5B594E",
"D  c #565547",
"F  c #4F5A53",
"G  c #575F54",
"H  c #695E44",
"J  c #715C40",
"K  c #5A6859",
"L  c #54715E",
"P  c #6C654D",
"I  c #7D6A4C",
"U  c #756749",
"Y  c #7F734B",
"T  c #686D57",
"R  c #666754",
"E  c #736F54",
"W  c #6D735B",
"Q  c #77795A",
"!  c #5C7666",
"~  c #517264",
"^  c #617461",
"/  c #667A66",
"(  c #787F63",
")  c #826D36",
"_  c #887136",
"`  c #8C743B",
"'  c #957C3C",
"]  c #826D4C",
"[  c #886F4D",
"{  c #8A7646",
"}  c #8E7C47",
"|  c #84734A",
" . c #8B724E",
".. c #8D7C4B",
"X. c #827546",
"o. c #947F45",
"O. c #93794E",
"+. c #806E50",
"@. c #837453",
"#. c #857D5B",
"$. c #887855",
"%. c #937E55",
"&. c #56876A",
"*. c #4E8F73",
"=. c #6A836A",
"-. c #7D8465",
";. c #778768",
":. c #6D8773",
">. c #6B997E",
",. c #739275",
"<. c #7D9573",
"1. c #7B9977",
"2. c #769B79",
"3. c #7B9D7C",
"4. c #79A07F",
"5. c #9C843C",
"6. c #A58B3E",
"7. c #9C8342",
"8. c #96834C",
"9. c #9D854A",
"0. c #9F894C",
"q. c #978147",
"w. c #84815E",
"e. c #8B845D",
"r. c #8A8250",
"t. c #91845A",
"y. c #9A8755",
"u. c #A18541",
"i. c #AC8E47",
"p. c #A18749",
"a. c #A48A49",
"s. c #AA8D49",
"d. c #A48844",
"f. c #AE9145",
"g. c #AE9149",
"h. c #A6914E",
"j. c #B69A45",
"k. c #B19248",
"l. c #B5994C",
"z. c #BB9D4B",
"x. c #B89B47",
"c. c #BA9F53",
"v. c #A99654",
"b. c #BDA14C",
"n. c #B8A354",
"m. c #818B69",
"M. c #878964",
"N. c #83906F",
"B. c #849470",
"V. c #9B9568",
"C. c #A29B6A",
"Z. c #9AAD7E",
"A. c #B2A366",
"S. c #B9A968",
"D. c #BEB46F",
"F. c #B2AD70",
"G. c #C4A54E",
"H. c #CBAA4D",
"J. c #D0AF4F",
"K. c #D1B04F",
"L. c #D4B657",
"P. c #CDB45D",
"I. c #C9B769",
"U. c #D8BE62",
"Y. c #C9BD73",
"T. c #C2B876",
"R. c #DBC56D",
"E. c #CEC37A",
"W. c #D9CB7C",
"Q. c #D3C478",
"!. c #E0CF79",
"~. c #E1D37E",
"^. c #669B84",
"/. c #42AE80",
"(. c #5DA785",
"). c #55B78E",
"_. c #5AB188",
"`. c #68A88A",
"'. c #74A482",
"]. c #7AA483",
"[. c #74A886",
"{. c #75AC8C",
"}. c #6EAF91",
"|. c #6CB595",
" X c #61BA95",
".X c #6FB799",
"XX c #6BBE9B",
"oX c #69BB97",
"OX c #73B392",
"+X c #71BB9B",
"@X c #7BB597",
"#X c #76BDA1",
"$X c #6FC0A0",
"%X c #72C1A2",
"&X c #78C3A6",
"*X c #8DC7AF",
"=X c #8BC7B0",
"-X c #8CC9B2",
";X c #C4C480",
":X c #DCCF80",
">X c #DED483",
",X c #E5D985",
"<X c #E4D784",
/* pixels */
"$X$X$X$X$X$X$X%X&X&X%X$X$X$X$X$X$X$X$X$X$X%X&X&X%X$X$X$X$X$X$X$X$X$X$X$X$X%X&X&X%X$X$XXXXXXX$X$X$X$X",
"$X$X$X$X$X$X$X&X-X-X&X$X$X$X$X$X$X$X$X$X$X&X-X-X&X$X$X$X$X$X$X$X$X$X$X$X$X&X-X-X&X$X$XXX).). X%X$X$X",
"$X$X$X$X$X$X$X&X-X-X&X$X$X$X$XXX X XXX$X$X&X-X-X&X$X$X$X$X$X$X$X$X$X$X$X$X&X-X-X&X$X$XXX).).XXXX X X",
"$X$X$X$X$X$X$X%X&X&X%X$X$X$X$X X/./. X$X$X%X&X&X%X$X$X$X$X$X$X$X$X$X$X$X$X%X&X&X%X$X$XXX XXX$X X/./.",
"$X$X$X$X$X$X$X$X$X$X$X$X$X$X$X X/./. X#XXXXX$X$X$X$X$X$X$X$X$X$X$X$X$X$X$X$X$X$X$X$X$X$X$X$X$X X/./.",
"$X$X$X$X$X$X$X$X$X$X$X$X$X$X$XXX X XXX].>X<X,X,XE.:.$X$X$X$X$X$X$X$X$X$X$X$X$X$X$X$X$X$X$X$X$XXX X X",
"%X$X$X$X$X$X$X$X$X$X$X$X$X$X$X$X$XXX`.B.>X<X<X,XE.XX$X%X&X&X%X$X$X$X$X$X$X$X$X$X$X$X$X%X&X&X%X$X$X$X",
"&X$X$X$X$X$X$X$X$X$X$X$X$X$X$X$XXXZ.D.T.R.P.t.=.oX$X$X&X-X-X&X$X$X$X$X$X$X$X$X$X$X$X$X&X-X-X&X$X$X$X",
"&X%X&X&X%X$X$X$X$X$X$X$X$X$X$X%X+X;X,XR.K.H.W _.XX$X$X&X-X-X&X%X&X&X%X$X$X$X$X$X$X$X$X&X*X-X&X%X&X&X",
"%X&X-X-X&X$X$X$X$X$X$X$X$X$X$X&X=X;X!.I.l.h.&./. X$X$X%X&X&X%X&X-X-X&X$X$X$X$X$X$X$X$X%X&X&X%X&X-X-X",
"$X&X-X-X&X$X$X$X$X$X$X$X$X$XXX&X=XS.L.0.D S *./. X$X$X$X$X$X$X&X-X-X&X$X$X$X$X$X$X$X$X$XXX%X$X&X-X-X",
"$X%X&X&X%X$X$X$X$X$X$X$X$X$X$X#X+Xn.K.8.V V &.,.{.$X$X$X$X$X$X%X&X&X%X%X$X$X$X$X$X$X$X%XXX$X$X%X&X&X",
"$X$X$X$X$X$X%X$X$X$XoXoXXX$X#XM./ p.g.0...Y K >.1.<.XX$X$X$X$X$X%X%XXXXX$X%XXXXXXX XXX+X.XXX%X%X$X$X",
"$X$X$X$X$X$XXX$X$XXX).).oX<.^.L D I  .h.J.G.U Z ~ -.-.B.3.$X$X$XXX%X%X%X$X+X+X|._.`.2.;.}.$X%XXX$X$X",
"$X$X$X$X$XXX%X$X$XXX)._.2.! V 5 1 [ O.h.H.G.Y G F C A / -.<.XX$X#XXX+X|.^./ e.e.e.t.$.E >.%X$X$X$X$X",
"$X$X$X$X$X$X$X$X$XXX4.;.q X 5   . c.G.b.l.l.I.E.A.+ o o % H W ^.#.( ~ R Y $.Q.W.W.W.Q.e.:.XX$X$X$X$X",
"XX$X$X$X$X$X$X@X&XB.Q D     %   . c.K.G.k.l.Q.,XI.        . e I S I I H  .%.:X,X,X,X<XM./ %X$X$X$X$X",
"XX$X$X$X$X$X$X@X-X! 5 *       .   c.J.6.k z v.I.n.P M ,     * 5 5 4 H I A.S.R.R.I.C.C.Q |.$X$X$X$X$X",
"XXXX X XXX$XXX@X/ %           . o z.J.z   O n g.c.,X,Xj               $.,X<XK.K.s.V F ^.$X$X$X$X$X$X",
"XX X/./. X$X[./ w o             o G.K.n   O l 6.h.W.>Xc & @ .   . X o ..,X:X@   7 V ^.#X$X$X$X$X$X$X",
"$X X/./. XXX`.% o           X   . c.K.n     + $ 2 %.y.A.D.A.,   X   X A.<XE.@   & I }..X#XXX$X$X$X$X",
"$XXX X XXXXXP @                 X b.K.n         # [  .T.<XQ.o   +     D.<XY.@   % P ;.].$X#X$X$X$X$X",
"%X$X$X$XXXXXD                   X l.H.) < > X   + v J A.W.Y.# . X     S.,XY.o   % w E +X&X&X$X$X$X$X",
"&X$X$X$XXX.X0                   X 9.l.z.H.x.y         z f.j.G.6.}     C.<XY.X       h ].-X-X&X$X$X$X",
"&X%X&X&X%X{.u                   * d.k.z.K.x.y         z i.k.H.K.0.1 1 C.,XE..       u &X-X-X&X%X&X&X",
"%X&X-X-X&X.X0                   1 d.k.x.z.x.5._ z     < 3 t u.z.p.] V y.R.h..       h {.&X&X%X&X-X-X",
"$X&X-X-X&XXXg                   4 p.k.z O k.H.J.f..       X ` k.p.p.S 8.K.6.O       U 1.$X$X$X&X-X-X",
"$X%X&X&X#X[.H                   o p.k.t . 3 x.H.f.< - X   X n ' { k.i.8.K.6.O       h }.$X$X$X%X&X&X",
"$X$X$X$X$XXXA                   + p.k.t   . d g.j.H.H.a     . . * k.g.8.K.m .       9 '.$X$X$X$X$X$X",
"$X$X$X$X$X].U                   % s.k.k   O - i.j.K.K.a         * ..k.9.K.x..       8 [.$X$X$X$X$X$X",
"$X$X$X$X$Xm.]               o   % i.k.u   . ; 3 d x.z.' ) m $   * 4 i.f.b.6.X       : |.$X$X$X$X$X$X",
"$X$X$X$X$Xw.I                   o { g.u         - i.f.G.H.x.<   *   5 N G.6.O       0 '.$X$X$X$X$X$X",
"$X$X$X$X$X}.]                   o } g.s X . .   $ 7.u.z.H.z.3 O 1     } K.j.X       v oXoXXXXX$X$X$X",
"$X$X$X$X$X.XI                   o p.g.q._ N <   . > < b p.O.u.6.X.. 4 8.K.j.X       g '.).).XX$X$X$X",
"$X$X$X$X$X.XI                   X } 9.g.g.u.3         h [  .G.H.s.H % 8.K.j.X       0 [.).).oXXX X X",
"$X$X$X$X%XXX] & % .             X q.N 7.k.{ s 1 ;     3 h x p.z.9.a.5 8.K.x.O       0 OXoXXXXX X/./.",
"$X$X$X$X$X$X<.R w o               k.g.8 9.s.g.8.D       . + v  .k.s.| 8.K.x.O       r +X$X$X$X X/./.",
"$X$X$X$X$X$X+X$.Z o .           < k.k.6 8.g.f.k.o.o . .   . c ] k.s.k.8.x.k.X     . p {.$X$X$XXX X X",
"%X$X$X$X$X$X$X+X,.C e 5         X f.k.o & N X.g.8.f f &     = ; ) s.k.g.g.a.X   % e ! 1.&X&X%X$X$X$X",
"&X$X$X$X$X$X$X$XOX-.! w           k.k.    X g g.s.s.E 1         % ; O.k.g.9..   % C ,.&X-X-X&X$X$X$X",
"&X%X&X&X$X$X$X$X$X+X'.! 1 1 & * & k.g.o   . 8 j U g.a.9 1 & .   . o C s.i.o.* % e -.OX&X-X-X&X%X&X&X",
"$X&X-X-X&X$X$X$X$X$X$XM.@.P w X * k.g.%     . X & a.g...q.Y %   o   + k.i.o.p F 1.3.OX$X&X&X%X&X-X-X",
"$X&X-X-X&X$X$X$X$X$X$X$X].@.I f % d._ &         @ R a.g.g.8.#   * . 4 { 6.i G #.#.+XXX$X$X$X$X&X-X-X",
"$X%X&X&X%X$X$X$X$X$X$X$XXX#X,.@.$.L W K A A D B f T T T T R g 9 C K T L &.:.+X$XXX%X%X#X$X$X$X%X&X&X",
"$X$X$X$X$X$X$X$X$X$XoXoXXXXX%X$X$X$X{.OX$X4.{.{.w.w.4.2.1.;.{.<.#.#.1.].#.{.$XXXXXoX$X$X$X$X$X$X$X$X",
"$X$X$X$X$X$X$X$X$XoX).).XX%X$X$X$X$X$X$X$X$XXXXX).).oXXX$X$X$X$X#XXXXX#X$X$X$XoX).).XX$X$X$X$X$X$X$X",
"$X$X$X$X$X$X$X$X$XoX).).XX$X$X$X$X$X$X$X$X$X$XXX).).oX$X$X$X$X$X$X$XXX#X$X$X$XoX).).XX$X$X$X$X$X$X$X",
"$X$X$X$X$X$X$X$X$X$XXXXXXX$X$X$X$X$X$X$X$X$X$XXXXXoX$X$X$X$X$X$X$X$X$X$X$X$X$X$XXX XXX$X$X$X$X$X$X$X",
"$X$X$X$X$X$X$X%X&X&X%X$X$X$X$X$X$X$X$X$X$X%X&X&X%X$X$X$XoXoX$X$X$X$X$X$X$X%X&X&X%X$X$X$X$X$X$X$X$X$X",
"oX$X$X$X$X$X$X&X-X-X&X$X$X$X$X$X$X$X$X$X$X&X-X-X&X$X$XXX).).XX$X$X$X$X$X$X&X-X-X&X$X$X$X$X$X$X$X$X$X"
};
