/* XPM */
static char *result[] = {
/* columns rows colors chars-per-pixel */
"50 50 198 2 ",
"   c #000001",
".  c #09080A",
"X  c #120909",
"o  c #17110E",
"O  c #0C0D16",
"+  c #181717",
"@  c #0E1214",
"#  c #271917",
"$  c #371918",
"%  c #250F0D",
"&  c #2E241B",
"*  c #33251D",
"=  c #111122",
"-  c #16162C",
";  c #1B1B39",
":  c #1D252C",
">  c #272429",
",  c #372723",
"<  c #323236",
"1  c #511F1D",
"2  c #442B26",
"3  c #5F2C2A",
"4  c #562725",
"5  c #4A352A",
"6  c #5A372F",
"7  c #593735",
"8  c #442A30",
"9  c #6D2D2B",
"0  c #642B28",
"q  c #6A322E",
"w  c #653938",
"e  c #7A3833",
"r  c #5A442D",
"t  c #65462D",
"y  c #69443E",
"u  c #6D5137",
"i  c #25254A",
"p  c #2D2C57",
"a  c #2E2B4A",
"s  c #2E2F60",
"d  c #343465",
"f  c #35366E",
"g  c #383974",
"h  c #373873",
"j  c #4C394E",
"k  c #603E58",
"l  c #503B65",
"z  c #3D4275",
"x  c #53535D",
"c  c #585757",
"v  c #514A55",
"b  c #6F4341",
"n  c #724643",
"m  c #734A44",
"M  c #7C4F49",
"N  c #784844",
"B  c #7C514D",
"V  c #79584A",
"C  c #7B5753",
"Z  c #63574C",
"A  c #6A655E",
"S  c #454678",
"D  c #59517A",
"F  c #50516E",
"G  c #735C74",
"H  c #695671",
"J  c #676767",
"K  c #7E7E7E",
"L  c #83332F",
"P  c #863835",
"I  c #993C37",
"U  c #99483A",
"Y  c #8D413C",
"T  c #AF433E",
"R  c #A3413D",
"E  c #B2453F",
"W  c #A5503F",
"Q  c #B0573F",
"!  c #854643",
"~  c #934244",
"^  c #84554C",
"/  c #895C53",
"(  c #AC4843",
")  c #B54840",
"_  c #BB4D42",
"`  c #A75140",
"'  c #A95140",
"]  c #BE5044",
"[  c #AF5555",
"{  c #8A6249",
"}  c #8D6353",
"|  c #966458",
" . c #8C7259",
".. c #9A7346",
"X. c #A07A49",
"o. c #A4745B",
"O. c #A86B5A",
"+. c #995D63",
"@. c #AF5D60",
"#. c #8A6564",
"$. c #9A7A79",
"%. c #987877",
"&. c #8B6F75",
"*. c #BC6461",
"=. c #A97461",
"-. c #B27D67",
";. c #AF717B",
":. c #A67D77",
">. c #AF6C74",
",. c #C45446",
"<. c #CC5C49",
"1. c #D8674D",
"2. c #DF6E52",
"3. c #C76757",
"4. c #E16E51",
"5. c #E47152",
"6. c #E4775C",
"7. c #B2845B",
"8. c #B78269",
"9. c #BB856C",
"0. c #BF896D",
"q. c #B88D72",
"w. c #B1887A",
"e. c #C18A6F",
"r. c #C38B70",
"t. c #CB9274",
"y. c #CB9779",
"u. c #D19A7A",
"i. c #E58872",
"p. c #495387",
"a. c #546391",
"s. c #647E9E",
"d. c #7979A4",
"f. c #433FCF",
"g. c #413ED0",
"h. c #4440CD",
"j. c #8C7884",
"k. c #807391",
"l. c #42AE80",
"z. c #4FB087",
"x. c #55B78E",
"c. c #56B88F",
"v. c #5BB992",
"b. c #61BA95",
"n. c #6BBE9B",
"m. c #66BD99",
"M. c #71BD9E",
"N. c #7DB49F",
"B. c #73AD98",
"V. c #7191AD",
"C. c #7B9FBD",
"Z. c #7394B3",
"A. c #6E8BAF",
"S. c #73BFA1",
"D. c #72C09F",
"F. c #6FC0A0",
"G. c #72C1A2",
"H. c #78C3A6",
"J. c #7DC5A9",
"K. c #97829E",
"L. c #AF808F",
"P. c #A68988",
"I. c #B7888E",
"U. c #AC889A",
"Y. c #AF8E93",
"T. c #8080A9",
"R. c #9189A7",
"E. c #B09AB0",
"W. c #85BEA7",
"Q. c #B3B3BE",
"!. c #B3A4AD",
"~. c #C68689",
"^. c #C68B8F",
"/. c #C68F95",
"(. c #D59A99",
"). c #CCA681",
"_. c #D9A885",
"`. c #E0AE89",
"'. c #E5B68F",
"]. c #EBBE94",
"[. c #C5A4AC",
"{. c #CFB1B4",
"}. c #E4BABA",
"|. c #83C5AB",
" X c #8CC9B2",
".X c #8CC7B1",
"XX c #EEC297",
"oX c #9F9FC0",
"OX c #ADADCB",
"+X c #B0B0CD",
"@X c #BEBED7",
"#X c #BDADC1",
"$X c #C6B9CD",
"%X c #C6C6DE",
"&X c #E7D0D5",
"*X c #E4D4DE",
"=X c #E8E8F7",
"-X c #E3E3F4",
/* pixels */
"F.F.F.F.F.F.F.G.H.H.F.F.F.F.F.F.F.F.F.F.F.G.H.H.G.F.F.F.F.F.F.F.F.F.F.F.F.G.H.H.F.F.F.F.m.m.D.D.G.F.",
"F.F.F.F.F.F.F.H. X XH.F.F.F.F.F.F.F.F.F.F.H. X XH.F.F.F.F.F.F.F.F.F.F.F.F.H. X XH.F.F.F.x.x.m.D.F.F.",
"F.F.F.F.F.F.F.H. X XH.F.F.F.F.F.b.v.F.F.F.H. X XH.F.F.F.F.F.F.F.F.F.F.F.F.H. X XG.F.F.m.c.x.n.n.b.b.",
"F.F.F.F.F.F.F.G.H.H.F.F.F.F.F.m.l.l.v.F.F.H.J.J.H.J.H.G.F.G.G.F.G.F.F.F.F.G.H.H.G.F.F.F.m.m.F.b.l.l.",
"F.F.F.F.F.F.F.F.F.F.F.F.F.F.F.F.c.x.F.F.F.F.G.G.G.G.F.S.G.F.F.F.G.F.G.F.F.F.F.F.F.F.F.F.F.F.F.v.l.l.",
"F.F.F.F.F.F.F.F.F.F.F.F.F.F.F.F.$.$.$.$.$.$.$.$.$.$.$.$.w.&.&.w.$.$.F.G.H.F.F.F.F.F.F.F.F.F.F.F.b.b.",
"G.F.F.F.F.F.F.F.F.F.F.F.F.H.G.F.3 0 3 3 3 3 3 3 3 3 3 3 3 3 6 3 0 3 Y.J.F.F.F.F.F.F.F.G.H.H.G.F.F.F.",
"H.F.F.F.F.F.F.F.F.F.F.F.F.F.P.w.P P U ` W W W ' ` ` ` ` ` ` ` ` Y P | Y.F.J.F.F.F.F.F.H. X XH.F.F.F.",
"H.G.H.H.G.F.F.F.F.F.F.F.|.D.0 9 T ( <.5.5.5.5.5.g.g.h.5.5.5.5.5.,.T L 3 Z J.F.F.F.F.F.H. X XH.G.H.H.",
"G.H. X XH.F.F.F.F.F.F.H.J.D.3 q _ ] 1.5.5.5.5.g.g.h.g.h.5.5.5.5.<.,.I 3 m S.F.F.F.F.F.G.H.H.G.H. X X",
"F.H. X XH.F.F.F.F.F.G.F.D.|.0 e 4.5.5.5.5.5.g.5.5.5.g.h.h.5.5.5.5.5.W 0 n S.S.F.F.F.F.F.F.F.F.H. X X",
"F.G.H.H.G.F.F.F.F.F.F.F. X!.9 e 5.5.5.5.5.5.h.f.5.g.h.g.h.5.5.5.5.4.W 9 n J.S.M.F.F.F.F.F.F.F.F.H.H.",
"F.F.F.F.F.F.F.F.F.F.n.P.q e T E 4.5.5.5.5.5.h.f.f.g.5.5.g.5.5.5.4.5.<.T R q y M.n.n.n.F.F.F.F.F.F.F.",
"F.F.F.F.F.F.F.F.F.n.c.%.4 9 E E 4.1.4.5.5.5.5.g.f.g.5.h.5.5.5.5.4.4.,.T R 4 4 M.c.c.n.F.F.F.F.F.F.F.",
"F.F.F.F.F.F.F.F.F.m.v.J . $ T T ) E 1.4.5.5.5.5.h.h.g.5.5.5.5.5.,.E E E I X . n.x.c.m.F.F.F.F.F.F.F.",
"F.F.F.F.F.F.F.F.F.F.n.J   $ T T T T <.4.2.2.5.6.6.6.6.6.4.4.4.2.,.T T E I X   n.n.n.F.F.F.F.F.F.F.F.",
"F.F.F.F.F.F.F.D.J.H.H.J   $ T T T T ) _ _ _ 3.}.&X&X&X(.,._ _ _ ) T T T I X   H.G.D.G.D.F.F.F.F.F.F.",
"F.F.F.F.F.F.F.G. X X XA   $ T T T T T T E E *.*X=X=X=X(.E E T T T ( T T I X   .XJ.G.G.F.F.F.F.F.F.F.",
"F.F.b.b.F.F.F.D. XK J Z r t P Y ^.j.@.T 3.L.j.^.^.^.^.~.~.j.) T >.L.+.P e r r A J G.G.F.F.F.F.F.F.F.",
"F.x.l.l.b.F.D.D.J.+   r 7.U 3 b +X+X;.T j.+X[.[ T T T j.+XE.[ E U.OXj.0 9 ..X.# . n.G.F.F.F.F.F.F.F.",
"D.c.l.l.c.D.D.F.G.+ . u 7.{ $ 8 k.T.U.~.[.%X$X/.~.~.~.[.%X$X^.~.j.T.H $ 2 o.7.#   M.G.F.F.F.F.F.F.F.",
"F.F.b.v.F.v.z.x.F.+ . V t.}   O g S oX=X=X=X=X=X=X=X-X-X-X=X=X-Xd.f ;   o 9.t.,   M.F.F.F.F.F.F.F.F.",
"F.F.D.D.F.F.x.x.D.J c Z { y # $ H H R.+XOXOXOXOXOXOXOXOXOXOXOXOXk.H j # & ^ } Z c S.M.G.H.H.G.F.F.F.",
"G.F.F.D.F.F.F.F.F.G.J.A   + b M ~.u.G g h g g g g l g g g g g l %.t.o.y w .   W.J.G.F.H. X XH.F.F.F.",
"H.G.H.H.G.F.F.F.n.m.S.c   # ^ / t.t.&.D S s d F p.D D S s d D D :.t.O.^ n X   n.H.G.F.H. X XH.G.H.H.",
"G.H. X XH.F.G.b.l.^ n #   2 t.t.t.t.`.XX .  > ).].].XX .  , u.XX_.t.y.t.8.X   z.b.G.F.G.H.H.G.H. X X",
"F.H. X XH.F.F.F.v.^ n #   , t.t.t.t.`.]. .  , ).].].].o.  , ).XXu.u.t.t.8.o   z.b.F.F.F.F.F.F.H. X X",
"F.G.H.H.H.G.n. .#.-.e.H d l B / t.t.t.u.o.w V _.].].}.r.r m r.u.y.t.=.B } H.m.m.n.F.F.F.F.F.F.G.H.H.",
"F.F.F.F.F.H.F.m M r.t.G h l w n 9.8.0.r.o.N } _.].].XXq.M / -.r.9.8.} w C F.F.F.m.n.F.F.F.F.F.F.F.F.",
"F.F.F.F.F.G.F.n M r.t.G g p X X + # 6 M | e.r.u.u.u.u.r.0.-.^ M 2 + o X > G.F.F.c.v.n.F.F.F.F.F.F.F.",
"F.F.F.F.D.D.G.m V r.t.H h i         2 b } r.t.t.t.t.t.t.t.8.^ w #       + J.H.F.x.F.m.F.F.F.F.F.F.F.",
"F.F.F.F.F.D.J.$X!.r 5 > - ; i a 9 9 q q 6 5 5 5 5 5 5 5 5 w Y ~ j i i i a c x G.v.n.S.F.F.F.F.F.F.F.",
"F.F.F.F.F.F.J.H.|.+       = g l T T P 3 $                 % I T k h h h d .   S.S.S.F.n.m.m.n.G.F.F.",
"F.F.F.F.F.D.F.H. X XH.n.M.B.l k T T I P 9 1 4 x x x x j 1 3 P ~ &.j.j.j.&., &  XJ.S.S.n.c.c.n.F.n.S.",
"F.F.F.F.F.F.F.H. X XH.J.J.S.b n T T T T ( T [ E.+X+X+XL.T R N n y.XX].XX'.B n  XJ.F.F.n.c.c.m.n.v.m.",
"F.F.F.F.F.F.F.G.J.J.G.F.F.M.6 6 L L I T ) _ *.#X@X$X%XY._ ) N N q.'.'.'._.N n H.S.n.F.n.m.n.S.v.l.l.",
"F.F.F.F.F.F.F.F.F.F.G.F.F.S.        0 T <.5.i.*X=X=X=X}.5.<.u N -.y.t.t.r.N n G.G.F.F.F.S.F.F.v.l.l.",
"F.F.F.F.F.F.F.F.F.F.F.F.H.S.  . : : w ~ ` Q O.!.Q.+XQ.Y.Q W w 7 | -.8.8.-.%.&.G.J.F.F.F.F.F.G.n.m.v.",
"G.F.F.F.F.F.F.F.F.F.F.G.G.S.  + C.C.a.g i                       8 n n b C |.S.F.H.F.F.G.H.H.G.F.F.F.",
"H.F.F.F.F.F.F.F.F.F.F.H.G.H.@ : Z.Z.a.z i . .   .           @ + 7 C B B #.S.M.F.F.F.n.H. X XJ.F.F.F.",
"H.G.H.H.G.F.F.F.F.F.F.G.F.G.G.H.@ @ F C.Z.V.A.d d =       < J.G.H.H.G.G.F.F.F.F.F.F.F.H. X XH.F.H.H.",
"G.H. X XH.F.F.F.F.F.F.F.G.F.J.J.    F C.C.C.A.p.g =       < H.H. X XH.F.F.G.F.F.F.F.F.G.H.H.G.H. X X",
"F.H. X XH.F.F.F.F.F.F.F.F.F.M.H.    a p.p.p.z - = B.H.H.G.F.F.H. X XH.F.F.F.F.F.F.F.F.F.F.F.F.H. X X",
"F.G.H.H.G.F.F.F.F.F.F.F.F.F.H.H.. @ i h z f p @ X W.H.G.G.G.G.G.H.J.G.F.F.F.F.F.F.F.F.F.F.F.F.G.H.H.",
"F.F.F.F.F.F.F.F.G.n.n.m.M.F.F.F.F.H.x = O = < N.S.n.n.H.H.H.F.G.S.F.F.F.F.F.F.n.n.m.F.F.F.F.F.F.F.F.",
"F.F.F.F.F.F.F.F.F.m.c.x.m.F.F.F.G.J.J       < H.m.v.n.M.G.D.F.F.F.F.F.F.F.F.F.m.c.c.m.F.F.F.F.F.F.F.",
"F.F.F.F.F.F.F.F.F.n.x.x.n.F.F.F.F.G.F.F.M.F.F.m.x.x.m.F.F.F.F.F.F.F.F.F.F.F.S.n.c.c.n.F.F.F.F.F.F.F.",
"F.F.F.F.F.F.F.F.F.n.n.m.F.F.F.F.F.F.F.G.G.G.H.H.n.n.n.F.F.F.F.F.F.F.F.F.F.F.S.n.m.m.n.F.F.F.F.F.F.F.",
"F.F.F.F.F.F.F.G.H.H.G.F.F.F.F.F.F.F.F.F.F.F.H.H.G.F.F.F.n.m.F.D.F.F.F.F.F.G.H.H.G.F.F.F.F.F.F.F.F.F.",
"m.F.F.F.F.F.F.H. X XH.F.F.F.F.F.F.F.F.F.F.H. X XH.F.F.m.x.x.m.F.F.F.F.F.F.G. X XH.F.F.F.F.F.F.F.F.F."
};
