/* XPM */
static char *result[] = {
/* columns rows colors chars-per-pixel */
"50 50 196 2 ",
"   c #000001",
".  c #09080A",
"X  c #120909",
"o  c #17110E",
"O  c #0C0D16",
"+  c #181717",
"@  c #0E1214",
"#  c #271917",
"$  c #371918",
"%  c #250F0D",
"&  c #2E241B",
"*  c #33251D",
"=  c #111122",
"-  c #16162C",
";  c #1B1B39",
":  c #1D252C",
">  c #272429",
",  c #372723",
"<  c #323236",
"1  c #511F1D",
"2  c #442B26",
"3  c #5F2C2A",
"4  c #562725",
"5  c #4A352A",
"6  c #593735",
"7  c #53322F",
"8  c #6D2D2B",
"9  c #642B28",
"0  c #6A322E",
"q  c #653938",
"w  c #7A3833",
"e  c #5A442D",
"r  c #65462D",
"t  c #69443E",
"y  c #6D5137",
"u  c #25254A",
"i  c #2D2B50",
"p  c #2E2F60",
"a  c #343465",
"s  c #35366E",
"d  c #383974",
"f  c #373873",
"g  c #4C394E",
"h  c #603E58",
"j  c #503B65",
"k  c #3D4275",
"l  c #53535D",
"z  c #585757",
"x  c #514A55",
"c  c #6F4341",
"v  c #724643",
"b  c #7C4F49",
"n  c #764944",
"m  c #7C514D",
"M  c #7A584A",
"N  c #7B5753",
"B  c #63574C",
"V  c #6A655E",
"C  c #454678",
"Z  c #59517A",
"A  c #50516E",
"S  c #735C74",
"D  c #695671",
"F  c #676767",
"G  c #7E7E7E",
"H  c #83332F",
"J  c #863835",
"K  c #993C37",
"L  c #99483A",
"P  c #8D413C",
"I  c #AF433E",
"U  c #A3413D",
"Y  c #B2453F",
"T  c #A5503F",
"R  c #B0573F",
"E  c #854643",
"W  c #934244",
"Q  c #84554C",
"!  c #895C53",
"~  c #AC4843",
"^  c #B54840",
"/  c #BB4D42",
"(  c #A75140",
")  c #A95140",
"_  c #BE5044",
"`  c #AF5555",
"'  c #8A6249",
"]  c #8D6353",
"[  c #966458",
"{  c #8C7259",
"}  c #9A7346",
"|  c #A4745B",
" . c #A47352",
".. c #995D63",
"X. c #AF5D60",
"o. c #8A6564",
"O. c #9A7A79",
"+. c #987877",
"@. c #8B6F75",
"#. c #BC6461",
"$. c #A97461",
"%. c #B27D67",
"&. c #AF717B",
"*. c #A67D77",
"=. c #AF6C74",
"-. c #C45446",
";. c #CC5C49",
":. c #D8674D",
">. c #DF6E54",
",. c #C76757",
"<. c #E16E51",
"1. c #E47152",
"2. c #E4775C",
"3. c #B2845B",
"4. c #B78269",
"5. c #BB856C",
"6. c #BF896D",
"7. c #B88D72",
"8. c #B1887A",
"9. c #C18A6F",
"0. c #C38B70",
"q. c #CB9274",
"w. c #CB9779",
"e. c #D19A7A",
"r. c #E58872",
"t. c #495387",
"y. c #546391",
"u. c #647E9E",
"i. c #7979A4",
"p. c #433FCE",
"a. c #413ED0",
"s. c #4540CD",
"d. c #4A41C9",
"f. c #8C7884",
"g. c #807391",
"h. c #42AE80",
"j. c #55B78E",
"k. c #58B890",
"l. c #61BA95",
"z. c #6ABE9A",
"x. c #67BC98",
"c. c #71BE9E",
"v. c #77AE9A",
"b. c #7191AD",
"n. c #7B9FBD",
"m. c #7394B3",
"M. c #6E8BAF",
"N. c #74BFA1",
"B. c #7DBAA2",
"V. c #6EC09F",
"C. c #71C09F",
"Z. c #6FC0A0",
"A. c #72C1A2",
"S. c #78C3A6",
"D. c #7DC5A9",
"F. c #97829E",
"G. c #AF808F",
"H. c #A68988",
"J. c #B7888E",
"K. c #AC889A",
"L. c #AF8E93",
"P. c #8080A9",
"I. c #9189A7",
"U. c #B09AB0",
"Y. c #85BEA7",
"T. c #B3B3BE",
"R. c #B3A4AD",
"E. c #C68689",
"W. c #C68B8F",
"Q. c #C68F95",
"!. c #D59A99",
"~. c #CCA681",
"^. c #D9A885",
"/. c #E0AE89",
"(. c #E5B68F",
"). c #EBBE94",
"_. c #C5A4AC",
"`. c #CFB1B4",
"'. c #E4BABA",
"]. c #83C5AB",
"[. c #83C9AD",
"{. c #8AC7AF",
"}. c #8CC9B2",
"|. c #91CBB5",
" X c #EEC297",
".X c #9F9FC0",
"XX c #ADADCB",
"oX c #B0B0CD",
"OX c #BEBED7",
"+X c #BDADC1",
"@X c #C6B9CD",
"#X c #C6C6DE",
"$X c #E7D0D5",
"%X c #E4D4DE",
"&X c #E8E8F7",
"*X c #E3E3F4",
/* pixels */
"z.V.z.z.z.z.C.A.S.S.A.V.V.Z.Z.Z.Z.Z.Z.Z.Z.A.A.z.Z.z.z.Z.Z.Z.Z.Z.Z.Z.Z.Z.Z.A.S.S.Z.Z.Z.V.z.x.V.Z.Z.Z.",
"C.z.z.z.z.z.z.S.A.z.S.A.Z.Z.Z.A.Z.Z.Z.Z.Z.S.z.Z.A.z.z.z.Z.Z.Z.Z.Z.Z.Z.Z.Z.S.}.}.S.Z.V.V.j.j.x.Z.Z.Z.",
"z.z.z.c.z.z.z.z.z.z.C.V.Z.Z.Z.z.l.l.z.Z.Z.S.A.c.S.Z.Z.z.Z.Z.Z.Z.Z.Z.Z.V.Z.S.}.}.S.Z.V.l.j.j.x.V.l.l.",
"V.z.z.z.z.z.z.z.z.z.z.V.Z.Z.Z.l.h.h.l.Z.Z.S.S.S.S.A.A.S.D.S.A.S.A.Z.Z.V.Z.A.S.S.Z.Z.Z.V.z.x.V.l.h.x.",
"c.x.z.z.z.z.z.z.z.z.z.V.Z.Z.A.l.h.h.k.A.z.z.c.A.Z.A.A.A.A.A.A.A.S.A.A.S.D.D.A.V.Z.Z.Z.Z.Z.Z.Z.l.h.V.",
"C.z.z.z.z.z.z.z.x.z.z.z.Z.Z.Z.z.k.z.V.x.O.O.O.+.O.O.O.O.O.O.O.O.O.O.O.O.O.O.V.V.Z.Z.Z.Z.Z.Z.Z.z.l.z.",
"C.C.z.z.x.z.z.z.x.z.V.z.Z.Z.Z.Z.A.A.D.L.3 3 3 3 3 3 3 3 3 3 3 3 3 3 3 3 3 9 A.S.D.Z.Z.A.S.S.A.Z.V.z.",
"S.C.c.z.z.z.x.z.z.z.V.x.c.Z.Z.Z.D.A.L.[ J L ( ( ( ( ( ( ( ( ( ( ( ( ( L P J H.H.A.Z.Z.S.[.A.S.z.z.z.",
"S.C.C.c.x.x.x.x.x.x.C.C.Z.Z.Z.A.{.B 9 J Y -.1.1.1.1.1.a.a.a.1.1.1.1.1.;.Y I 8 3 A.D.V.S.S.V.V.l.x.z.",
"z.z.z.z.C.x.C.x.C.x.C.C.Z.Z.Z.S.|.n 3 P _ ;.1.1.1.1.s.a.a.a.a.1.1.1.1.:.-.R 8 3 A.S.S.S.C.C.x.V.z.z.",
"z.x.z.z.C.x.z.x.z.x.C.V.Z.Z.N.D.}.v 9 T 1.1.1.1.1.s.1.>.1.s.p.a.1.1.1.1.<.<.w 9 ].c.V.A.C.C.x.x.z.z.",
"z.z.z.x.z.z.x.z.x.x.V.C.Z.Z.V.A.].v 8 T 1.1.1.1.1.s.s.2.p.d.p.s.1.1.1.1.1.1.w 8 _.{.A.Z.V.C.V.V.z.z.",
"z.x.x.C.x.x.x.x.V.x.l.V.V.C.A.t 0 U I ;.1.1.1.1.1.p.d.p.p.>.1.s.1.1.1.1.1.1.Y I w q H.C.V.V.V.V.z.z.",
"z.x.x.c.x.x.C.z.V.x.j.j.x.C.C.4 3 U I -.:.<.1.1.1.1.s.p.a.>.a.1.1.1.1.<.<.:.Y I 0 4 +.C.V.V.V.C.V.V.",
"z.x.z.x.C.C.x.z.x.x.j.j.V.V.V.  % K I Y Y -.1.1.1.1.<.p.p.p.>.1.1.1.<.:.Y Y I I 1   F S.V.V.V.C.V.V.",
"z.z.x.z.x.x.x.z.x.V.x.V.V.C.C.  X K I I I _ >.<.<.<.2.2.2.2.2.2.<.<.<.;.Y Y I U $   F V.V.V.V.C.V.V.",
"z.x.x.z.z.x.z.x.z.V.A.Z.A.A.z.  X K I I I Y / / / / !.%X$X$X'.,./ / / Y I I I I 1   V B.C.C.C.C.Z.Z.",
"x.V.z.z.x.z.z.z.z.A.S.A.A.S.A.  X K I I Y Y I I I I !.&X&X&X%X#.I I I I I I I I %   F }.C.C.C.C.Z.Z.",
"z.z.z.z.z.z.z.x.V.z.S.A.A.F V e e w H ..f.E.Y ~ f.f.Q.W.W.W.W.f.G.#.Y #.f.G.W H r e B F b.v.Z.Z.Z.Z.",
"V.x.z.x.z.c.z.z.z.z.A.A.A.  & } } 0 3 @.oXK.~ ` Q.@X&.Y Y Y ` +X+Xf.Y G.@XoXh 8 '  .r   + A.Z.Z.Z.Z.",
"z.x.C.x.z.V.x.z.z.z.A.A.c.  & 3. .2 $ l g.I.E.Q.@X#X_.E.E.E.W.@X#X_.E.f.g.i.2 $ ' 3.y   + S.Z.Z.Z.Z.",
"x.z.x.V.x.z.j.j.z.z.Z.A.c.  * q.5.o   ; d i.*X&X&X&X&X&X&X&X&X&X&X*X*X.Xk d O   ' q.M   + S.Z.Z.Z.Z.",
"x.x.V.x.z.z.j.x.z.Z.Z.Z.N.l B ' Q $ # g S g.XXXXXXXXXXXXXXXX+XXXXXXXoXI.y.S * # y ' N z F [.A.Z.Z.Z.",
"x.V.x.V.z.z.z.z.z.Z.Z.Z.N.].].    t t | q.+.d d d j d d d d d d d d j S q.q.Q q #   F D.}.}.S.V.Z.Z.",
"C.V.C.x.C.C.C.x.l.l.C.C.C.D.S.  . n b $.q.8.Z Z s p C Z Z Z Z a p C Z @.q.q.! Q #   B Y.}.|.S.A.S.S.",
"l.V.x.x.C.C.V.V.h.h.k.C.C.C.S.  X %.q.q.q.e. X~.> . {  X). X~.*   { )./.q.q.q.q.2   # h N S.A.S.}.}.",
"x.V.l.V.C.V.V.x.h.h.k.V.V.C.A.  o 5.q.q.q.~.).~.,   {  X X X~.&   { )./.q.q.q.q.2   # v ! D.S.S.}.}.",
"C.x.V.x.C.V.C.x.l.k.C.C.Z.A.A.S.{.! Q $.q.q.e.0.n q 7.). X X^.m q | e.e.q.q.! b g a D 5.5.o.o.A.D.S.",
"x.V.C.l.l.C.V.x.V.V.l.V.V.V.A.A.A.m q ] 5.5.0.5.! n 7.). X).^.] n | 0.9.5.5.v q j d S w.0.b y N.S.Z.",
"x.l.V.V.V.x.C.V.l.V.j.j.V.A.Z.A.A.> X o % , b Q %.6.q.e.e.e.w.0.9.[ Q 7 + + X X i d D w.9.b n N.A.A.",
"V.l.l.V.l.V.C.C.l.x.j.j.D.V.C.A.D.-       # t b %.q.0.q.q.q.q.q.q.[ t 2         u f S q.9.Q n A.Z.Z.",
"l.C.V.x.V.x.V.C.V.V.V.V.V.V.A.z z i u u u g L P 6 5 5 5 5 5 5 5 5 6 0 8 8 8 u u ; - > 5 e R.@XD.Z.Z.",
"V.C.C.C.l.C.l.V.C.l.C.C.C.C.V.  . p d d d h I K %                 $ 3 J I I j f =       + A.A.D.V.Z.",
"l.C.C.l.V.l.C.C.C.V.V.C.V.V.c.* , @.g.f.f.@.W K 4 1 g l l l l 4 1 8 w K I I h j v.c.c.x.k.j.z.A.A.Z.",
"l.V.V.l.V.V.C.C.C.].C.C.Z.Z.C.c b (. X X).~.h t U ~ J.oXoXoXR.` I I ~ I ~ I n c S.S.S.z.j.j.z.z.k.x.",
"C.C.l.V.l.V.C.C.C.C.C.C.Z.z.A.c Q ^.(.(.(.0.t P ~ -.J.OXOXOX+X#.-.^ I K H H 3 7 S.Z.A.Z.V.z.V.l.h.h.",
"C.l.C.x.x.x.C.V.Z.Z.Z.Z.Z.S.A.c n 9.q.q.w.$.v E ,.1.'.&X&X&X%Xr.<.-.Y 9         Z.A.Z.A.V.Z.Z.l.h.h.",
"l.V.x.x.x.C.C.C.Z.Z.Z.Z.Z.S.C.@.+.%.%.5.4.[ 6 q T R L.T.T.T.R.#.) ~ W g : > .   A.S.Z.Z.C.Z.Z.z.l.l.",
"C.l.C.l.x.x.C.C.Z.Z.Z.Z.V.S.C.A.].N t h c 5                       u s y.n.n.+   N.A.A.A.S.S.A.Z.V.V.",
"l.C.l.C.x.C.C.C.Z.Z.Z.Z.V.Z.A.C.N.] Q N m 6 + @             . . . i k y.m.b.: @ A.A.A.S.}.}.S.Z.V.V.",
"x.z.z.z.z.z.z.Z.Z.Z.Z.Z.Z.Z.Z.A.S.S.A.Z.Z.z.l.z.<       = a k u.b.m.n.A O @ S.A.S.c.A.S.}.}.S.Z.C.A.",
"z.z.z.z.z.z.z.V.Z.Z.Z.Z.Z.Z.Z.S.}.}.S.Z.Z.l.h.h.<       = f C M.n.n.n.A     A.S.Z.Z.Z.A.S.S.A.A.V.V.",
"z.z.z.z.z.x.V.V.Z.Z.Z.Z.Z.Z.Z.S.}.}.S.Z.Z.l.h.h.l.C.S.S.v.= - C t.t.t.i     A.Z.Z.Z.Z.Z.Z.Z.Z.A.V.V.",
"z.z.z.z.x.z.Z.Z.Z.Z.Z.Z.Z.Z.Z.A.S.S.A.Z.S.z.l.l.C.A.A.S.Y.. O p a k s u . @ S.S.Z.Z.Z.Z.Z.Z.Z.A.A.V.",
"z.z.x.z.x.z.V.Z.V.V.x.z.V.Z.Z.Z.Z.Z.Z.Z.Z.Z.V.V.A.C.A.C.A.S.Y.< @ = = l A.Z.Z.z.z.x.Z.Z.Z.Z.Z.Z.Z.Z.",
"z.z.z.z.z.V.Z.Z.V.z.j.j.x.Z.Z.Z.Z.Z.Z.Z.Z.V.V.z.k.k.z.A.A.D.S.<       F [.Z.Z.z.j.j.x.Z.Z.Z.Z.Z.Z.Z.",
"z.x.z.z.x.Z.Z.Z.V.z.j.j.x.Z.Z.Z.Z.Z.Z.Z.Z.Z.V.x.j.j.z.V.Z.Z.Z.Z.Z.Z.Z.A.Z.Z.Z.x.j.j.x.Z.Z.Z.Z.Z.Z.Z.",
"x.z.z.z.z.V.Z.Z.Z.z.x.z.V.Z.Z.Z.Z.Z.Z.Z.Z.Z.V.V.z.x.V.V.Z.A.S.A.A.A.Z.Z.Z.Z.Z.V.z.x.Z.Z.Z.Z.Z.Z.Z.Z.",
"z.x.l.V.l.V.C.C.S.S.C.V.C.V.Z.Z.Z.Z.Z.Z.Z.A.S.S.A.Z.Z.V.x.x.V.V.Z.Z.Z.Z.Z.Z.D.S.Z.Z.Z.Z.Z.Z.Z.Z.Z.Z.",
"V.C.V.].V.C.V.C.}.}.S.V.V.V.Z.Z.Z.Z.Z.Z.Z.S.}.}.S.Z.Z.V.j.j.x.V.Z.Z.Z.Z.Z.D.}.}.S.Z.Z.Z.Z.Z.Z.Z.Z.Z."
};
