/* XPM */
static char *result[] = {
/* columns rows colors chars-per-pixel */
"50 50 219 2 ",
"   c #030304",
".  c #0D0B0B",
"X  c #0A0608",
"o  c #150C0A",
"O  c #121112",
"+  c #191919",
"@  c #110F16",
"#  c #2A1815",
"$  c #391A19",
"%  c #38231E",
"&  c #25241E",
"*  c #171827",
"=  c #1D1D3A",
"-  c #291E2F",
";  c #1E2238",
":  c #3B2524",
">  c #24342E",
",  c #2B2C34",
"<  c #383737",
"1  c #2E2A2E",
"2  c #401D1C",
"3  c #54211E",
"4  c #44391E",
"5  c #461E22",
"6  c #492C29",
"7  c #5F2C2A",
"8  c #592729",
"9  c #4A342A",
"0  c #573B33",
"q  c #583130",
"w  c #612D2B",
"e  c #682F2C",
"r  c #642724",
"t  c #65302E",
"y  c #6C312E",
"u  c #72322F",
"i  c #693937",
"p  c #733630",
"a  c #7A3937",
"s  c #33443D",
"d  c #554826",
"f  c #5B502E",
"g  c #6E413F",
"h  c #74403E",
"j  c #635332",
"k  c #716035",
"l  c #313757",
"z  c #282A4B",
"x  c #2F3062",
"c  c #35356A",
"v  c #3B3B73",
"b  c #533858",
"n  c #553B5F",
"m  c #3B4443",
"M  c #3E554C",
"N  c #39475B",
"B  c #4B4A4B",
"V  c #41564E",
"C  c #575152",
"Z  c #4D5252",
"A  c #6F4341",
"S  c #714542",
"D  c #7A4D45",
"F  c #794946",
"G  c #7D514B",
"H  c #7C5545",
"J  c #7F5755",
"K  c #7B5854",
"L  c #664C55",
"P  c #57615D",
"I  c #70695B",
"U  c #445869",
"Y  c #4E456C",
"T  c #655879",
"R  c #7D5E65",
"E  c #546E6B",
"W  c #767668",
"Q  c #797A78",
"!  c #766572",
"~  c #8A3935",
"^  c #863733",
"/  c #973D39",
"(  c #82322F",
")  c #A23F3B",
"_  c #9B433C",
"`  c #8C413F",
"'  c #A5413B",
"]  c #AE433E",
"[  c #A44F3E",
"{  c #B1453F",
"}  c #B2483F",
"|  c #8A723D",
" . c #8A3B42",
".. c #82554C",
"X. c #88584C",
"o. c #805755",
"O. c #865D59",
"+. c #945C58",
"@. c #954141",
"#. c #AF4E4C",
"$. c #AB4442",
"%. c #B64941",
"&. c #B75A44",
"*. c #B95245",
"=. c #AF5455",
"-. c #AF585A",
";. c #B55551",
":. c #8A644A",
">. c #986B5A",
",. c #90714B",
"<. c #A26D5B",
"1. c #A2755B",
"2. c #8E6A68",
"3. c #876667",
"4. c #997269",
"5. c #8F6E72",
"6. c #967272",
"7. c #996669",
"8. c #A97763",
"9. c #AB7B71",
"0. c #C85947",
"q. c #C65F52",
"w. c #D3624B",
"e. c #DA684E",
"r. c #D26C5B",
"t. c #E16E51",
"y. c #E37152",
"u. c #E2755A",
"i. c #E27A60",
"p. c #658879",
"a. c #6A8A7D",
"s. c #548772",
"d. c #9B8540",
"f. c #B1944E",
"g. c #B4846B",
"h. c #BA856C",
"j. c #AF876E",
"k. c #C5AB5A",
"l. c #C68E72",
"z. c #CB9275",
"x. c #C8977A",
"c. c #D39D7D",
"v. c #D3B762",
"b. c #CDAF62",
"n. c #E5CB67",
"m. c #787789",
"M. c #565689",
"N. c #967F83",
"B. c #AF7D8A",
"V. c #AF7884",
"C. c #6A9585",
"Z. c #7E9C88",
"A. c #43AE80",
"S. c #47B084",
"D. c #54B68D",
"F. c #58B88F",
"G. c #5AB791",
"H. c #5DB992",
"J. c #73A18F",
"K. c #6DA891",
"L. c #76A391",
"P. c #79AC95",
"I. c #63BB96",
"U. c #66BC99",
"Y. c #6CBE9C",
"T. c #6DB394",
"R. c #7BB59D",
"E. c #74B89C",
"W. c #68A28A",
"Q. c #7CBDA2",
"!. c #77BDA1",
"~. c #6FBFA0",
"^. c #7091AC",
"/. c #6EC09F",
"(. c #70C09F",
"). c #6FC0A0",
"_. c #72C1A2",
"`. c #79C3A6",
"'. c #7DC5A9",
"]. c #8C918D",
"[. c #A78A89",
"{. c #A98B93",
"}. c #B29D9A",
"|. c #B29492",
" X c #88AA9A",
".X c #92A89B",
"XX c #A0A59C",
"oX c #9F9FA9",
"OX c #B09DB4",
"+X c #AC8FA1",
"@X c #88BCA5",
"#X c #83BBA3",
"$X c #9AB6A6",
"%X c #93A9A0",
"&X c #A7AAA2",
"*X c #B8ADA9",
"=X c #ABB5AB",
"-X c #A3B5A7",
";X c #B1B1BC",
":X c #B4AFB3",
">X c #C98D8E",
",X c #D8A684",
"<X c #DCB387",
"1X c #C7A48D",
"2X c #E3B58E",
"3X c #E8BA91",
"4X c #D4ACB3",
"5X c #E4B9B6",
"6X c #84C6AD",
"7X c #85C8AE",
"8X c #8BC9B2",
"9X c #ACABC8",
"0X c #B0ABC7",
"qX c #B6B5CE",
"wX c #C4BACF",
"eX c #CBC6D4",
"rX c #D8D4E4",
"tX c #E2DBE9",
"yX c #E5E3F2",
/* pixels */
"Y.G.D.I./.)._.'.8X7X`.).).).).).).).).).).).)._.'.8X6X_.).).Y.I.I.Y.).).).).`.6X8X'._.).).).).).).).",
"Y.U.U.Y.Y.)._.`.'.`._./.).).).).).).).).).).)._.`.'.`._.)./.H.S.S.I.Y.).).).).`.'.`._.).).).).).).).",
"/./.Y.).).).).).).).).).).).).).).).).).).).)./.).)./.Y.Y.Y.H.A.A.H./.).).).).)._.).).).).).).).).).",
"Y.).).).).).).)._.).).)._._._.).).).).).).).)./.)./.I.F.G.Y.Y.G.G.U./.).).).).).).).).).).).).).).).",
"~.`.`._.).).).)./.).).)._._.(.(._._.`.'.`._._._.(./.H./.I././././././.).).).)./.).).).).).).).).).).",
"_.6X7X'._.).).)./._._./.`.=X=X=X=X=X=X=X=X=X=X=X=X-X-X$X$X$X/./.).).).).).).)./.).).).).).).).).).`.",
"`.7X8X'._.).).)._.).(.Q.XXO.o.o.J o.o.o.o.o.J o.K K K K K R $X`.`._././.).)././.).).).).).)._.`.).`.",
"`.'.'.`._.).).)././._.Q.[.y p p p p p p p p p u p p p p y h }.6X7X'._.`._.)././.).).).)._.'.7X6X`._.",
"~._._._./././._./.Q..XI +./ ' } &.&.&.&.&.&.*.0.} &.&.[ [ _ +.W XX'.'._._.)././.).).).)._.'.8X8X`.).",
"~.).).)././._._./.@X[.y ~ } *.t.t.t.y.y.t.t.y.y.y.y.y.t.0.' ^ i [.#X`._._._././.).).).).).`.6X'._.).",
").).).)./././.(.E.#X[.y _ 0.w.y.y.y.y.y.y.y.y.y.y.y.y.y.e.0.' ~ >.W ].E.)._././.).).).).)._._._.).).",
").).).)./.U.I.U.Y.#X[.p [ y.y.y.y.y.y.y.y.y.y.y.y.y.y.y.y.t.q.;.` t 6.E._./.I./.Y.).).).).).).).).).",
").).).).Y.H.F.T.Z.Q >.~ *.y.y.y.y.y.y.y.y.y.y.y.y.y.y.y.y.u.>X1X7.q G Q ].T.H.U.Y.).).).).).).).).).",
").).).).Y.U.H.P.6.p ~ { 0.t.t.t.y.y.y.y.y.y.y.y.y.y.y.y.y.i.5XyX{.i t i 2.K.U.U.).).).).).).).).).).",
").).).).).Y.Y. X2.t ~ { 0.w.w.t.y.y.y.y.y.y.y.y.y.y.y.t.w.r.5XyX{.t S 5.].p.p.T._._.).).).).~.~.).).",
").).).).).)._. X2.t ~ ] ) { 0.e.y.y.y.y.y.y.y.y.y.y.y.w.0.;.4XyX{.y 5.eX:X< < C.'.'._.).).).).~.).Y.",
").).).)././.`. X7.y ~ %.] ] %.w.e.w.w.w.w.w.w.w.w.w.w.w.%.;.4XrX{.a 9.tX:X1 1 C.8X6X_.~.~.~.Y.Y.).U.",
").).).)._./.`. X3.y ~ ) ] ] ] %.%.$.{ { { { { { { { { %.) *.B.0X[.$.V.tX0X1 > C.7X'._.~.~.I.F.G.U.Y.",
").).).)._./._. X3.8 u ) ) { ] ] { ] ] { ] { ] ] ] ) { { ] #.B.OXV.-.>XtX;X1 & p._._.Y._.Y.F.A.S.I.).",
").)././._._./.J.C o 5 u ~ ] $.] ] ] ] ] ] ] ] ] ] { { ) ] ] =.-.V.OXwXtX;X< 1 p._.Y.I.Y.Y.H.S.S.I.).",
").).).).(.(._.J.B X $ r ^ ) ) ) ) ] ] ] ] ] ] ] ] ] ] $.#.-.-.-.B.qXqXeXoXm m C.Y.I.D.H.Y.Y.I.I.~.).",
"_.`.`.`.`.(.).J.B X : i i y y y ( ) ] ] ] ] ] ] ] ] ] =.B.OXOXOXOX0Xm.l Z K.)._.Y.I.D.I.Y.Y.).).)._.",
"`.7X8X'.`.(.(.J.B X 6 i i w w w u ) ] ] ] ] ] ] ] ] ] =.+X0X9X9X9X9Xm.+ B C.`._.Y.Y.U.Y.Y._.(.~.).`.",
"`.8X8X'.`._.`.L.B . : A g i g i i p u u u u u u u u u a S L T M.T R ].E.).).~.Y.U.Y.Y.(._._.`.`._.`.",
"_.`.`._._.)./.W.B X : S A A A A i q 7 7 w w 8 r 8 w 8 7 7 q b v n A [.@X'._.).H.D.G.U.)._.'.8X7X`.).",
")./.).).).).Y.I.#X].L & 6 A ..8.9.h.g.G a :.<.<.-...: : ..<.6.5.O.S [.Q.`.).).D.S.D.U.)._.'.8X8X`.).",
").).).)._.Y.Y.Y.Y.P.W X : h ..l.c.3X2X>.F 8.l.z.h.:.# # >.z.z.l.4.S [.@X).).).U.G.U.Y.).~.`.'.`._.).",
").).).).Y.Y.Y.Y.Q.!.R.Q C : 0 l.c.3X3Xg.<.h.z.c.,X9.d 0 g.,X9.<.j.}.R._.).Y.Y.U.Y.~.).).~.~.).).).).",
").).).(.Y.I.G.I.(._._.R.Q o % l.c.3X3Xc.z.z.z.,X3Xx.X...x.<X8.F |.#X`.)./.H.G.H.).).).).).).).).).).",
").).)./.Y.I.D.H./._.T.Q I d f 1.8.g.j.z.z.z.z.c.,Xx.1.<.g.j.[.}.Q._._._.U.G.F.U.Y.).).).).).).).).).",
").)./././.U.U.Y._.Q.a.& f d.,...F F X.g.z.z.z.c.x.z.l.9.>.O.*X6X).).).).).U.U.U.).).).).).).).).).).",
"Y.Y.Y.Y./././._.E.].,.f | k.f.:.H L L 3.6.>.:.>.8.8.8.<.F G *X_.)._.).).)./.)._._._.).).).).).).).).",
"Y.H.H.U.Y.)._.P.E < ,.k.v.n.v.f.,.Y Y Y Y < # 9 F ....F i S *X~.~.~.~.~.).)._.'.6X'._.).).).).).).).",
"Y.G.D.I.Y.).`.L.Z o k v.v.v.k.k.j.! M.Y v = @ 5 h F a a t g *XY.U.~.~.~.).).`.6X8X6X_.).).).).).).).",
"Y.I.I.U.~.).~.L.B o 9 ,.:.,.1.<X<X1X[.T v x x b @.@.$./ y g *XG.D.I.~.~.).)._.'.'.'._.).).).).).).).",
"Y.Y././.~.~.`.L.B o 4 h F S :.<X3X3X,Xm.v c x b $.) / ^ r i &XD.D.U.~._.).).~._._._.).).).).).).).).",
"/./.~._.Y._._.L.B o d ,.:.D X.c.,Xc.c.T v = * 8 / ~ 3 $ # : oXG.I.U.).).).).).).).).).).).).).).).).",
"/._._._.).).~.T.E < k | H g ..g.h.8.4.C x = * 6 ( r o   X * Z. X_.~.).~.).).).).).).).).).).).).).).",
"_.'.6X`._.).)._.T.p.I 4 0 A D :.o.0 9 & = N U V 2 # X X = z b P L.~.~.~.).).).).).).).).).).).).)._.",
"`.7X8X'._.)._.).(. XQ + 1 i g i 6 X     . U ^.U @ X X o z x *   Q !.~.~.).).).).).).).).)._._._.).`.",
"`.'.6X'._.)._._.(.(. XP C : : % # X       z U N = - 5 5 , = @ X Q ~.).).).)././.).).).)._.`.'.'._.`.",
")._.`._._.)._.`.(.(._.#X].o O o O O . . O O O ; x n  .( #   X O ].Q._.).).).)./.).).).)._.'.8X8X`.).",
").).).)./.)._.).(.(.`.`.%XV M V M M M M M M M m z 1 8 3 o X m Z ].`._.).).)././.).).).).).'.7X6X`.).",
").).).).)./.Y.Y.(.(.(.(.).~.`.`._.).)./././.(.E # X       + .X6X`.).).).).Y././.).).).).)._._.`._.).",
").).).).Y.Y.I.Y.~.).).).)._.).)._._._._.(./.Y.s.l > > > > m %X`.Y.).).)./.U.I.Y.).).).).).).).).).).",
").).).).Y.I.D.H.Y.).).).).).).)./._._.`._.Y.I.H.Y.(.6X(._._.).).~.).).)./.G.D.I.Y.).).).).).).).).).",
").).).).Y.H.G.H.Y.).).).).).).).).).).(.(.Y.I.D.I./.(.(.).).).).).).).).Y.G.F.I.Y.).).).).).).).).).",
").).).).Y.Y.Y.Y.).).).).).).).).).)././.(./.Y.Y.Y.(.(.(.).).).).).).).).Y.Y.Y./.).).).).).).).).).).",
").).).).).)._.`.'.`.).~.).).).).).Y.Y.U.Y./.).).`.`.`.).).).).).).).).).).)._.`.'._.).).).).).).).Y.",
").).).).).)._.'.8X7X`.Y.).).).).).Y.F.D.I.Y.)._.6X8X6X_.).).).).).).).).).)._.6X8X6X`.~.).).).).).U."
};
